SplineFontDB: 3.0
FontName: Loma
FullName: Loma
FamilyName: Loma
Weight: Book
Copyright: Copyright (c) NECTEC, 2003. All rights reserved.\nModified under GNU General Public License by TLWG.
Version: 0.9.17: 2012-01-06
ItalicAngle: 0
UnderlinePosition: -170
UnderlineWidth: 20
Ascent: 1638
Descent: 410
LayerCount: 2
Layer: 0 0 "Back"  1
Layer: 1 0 "Fore"  0
NeedsXUIDChange: 1
FSType: 0
OS2Version: 0
OS2_WeightWidthSlopeOnly: 0
OS2_UseTypoMetrics: 0
CreationTime: 1153662374
ModificationTime: 1326356097
PfmFamily: 33
TTFWeight: 400
TTFWidth: 5
LineGap: 0
VLineGap: 0
Panose: 2 11 5 4 2 2 2 2 2 4
OS2TypoAscent: 0
OS2TypoAOffset: 1
OS2TypoDescent: 0
OS2TypoDOffset: 1
OS2TypoLinegap: 0
OS2WinAscent: 0
OS2WinAOffset: 1
OS2WinDescent: 0
OS2WinDOffset: 1
HheadAscent: 0
HheadAOffset: 1
HheadDescent: 0
HheadDOffset: 1
OS2Vendor: 'PfEd'
Lookup: 4 0 1 "'liga' Standard Ligatures lookup 0"  {"'liga' Standard Ligatures lookup 0"  } ['liga' ('latn' <'dflt' > ) ]
Lookup: 6 0 0 "'ccmp' Thai Conditional Descender Removal"  {"'ccmp' Thai Conditional Descender Removal"  } ['ccmp' ('DFLT' <'dflt' > 'thai' <'KUY ' 'PAL ' 'THA ' 'dflt' > ) ]
Lookup: 6 0 0 "'ccmp' Thai General Composition"  {"'ccmp' Thai Below Vowel Tone Reordering"  "'ccmp' Thai General Composition"  } ['ccmp' ('DFLT' <'dflt' > 'thai' <'KUY ' 'PAL ' 'THA ' 'dflt' > ) ]
Lookup: 5 0 0 "Required Thai Descender Removal"  {"Required Thai Descender Removal"  } [' RQD' ('thai' <'PAL ' > ) ]
Lookup: 1 0 0 "Thai Descender Removal Single Substitution"  {"Thai Descender Removal Single Substitution" ("descless" ) } []
Lookup: 2 0 0 "Thai Sara Am Decomposition"  {"Thai Sara Am Decomposition"  } []
Lookup: 2 0 0 "Thai Tone Nikhahit Attachment"  {"Thai Tone Nikhahit Attachment"  } []
Lookup: 1 0 0 "Thai Sara Am Lakkhang"  {"Thai Sara Am Lakkhang"  } []
Lookup: 1 0 0 "Thai Tone Low Variant"  {"Thai Tone Low Variant" ("low" ) } []
Lookup: 1 0 0 "Thai Mark High Variant"  {"Thai Mark High Variant" ("high" ) } []

StartChar: .notdef
Encoding: 65536 -1 0
Width: 1536
Flags: W
HStem: 0 32<288 1248> 1248 32<288 1248>
VStem: 256 32<32 1248> 1248 32<32 1248>
LayerCount: 2
Fore
SplineSet
256 0 m 1
 256 1280 l 1
 1280 1280 l 1
 1280 0 l 1
 256 0 l 1
288 32 m 1
 1248 32 l 1
 1248 1248 l 1
 288 1248 l 1
 288 32 l 1
EndSplineSet
EndChar

StartChar: uni0E47.high
Encoding: 63263 63263 1
Width: 0
Flags: W
HStem: 1797.6 131.4<-858.58 -813.834> 1797.6 158.4<-570.775 -414.998> 1876.8 136.8<-775.394 -665.879> 1917.3 38.7<-516.481 -476.5> 2066.7 47.7<-518.27 -424.606> 2136 106.2<-818.232 -472.209>
VStem: -998.5 133.2<1930.21 2089.11> -584.5 55.8<1963.91 2058.99> -424.3 127.8<2288.65 2346.6> -413.5 83.7<1959.5 2063.9>
AnchorPoint: "AboveMark" -665 1740 mark 0
LayerCount: 2
Back
SplineSet
-453 1583 m 0x7e
 -486 1583 -513 1558 -513 1517 c 0
 -513 1482 -484 1460 -445 1460 c 0
 -408 1460 -385 1483 -385 1519 c 0
 -385 1558 -412 1583 -453 1583 c 0x7e
-455 1417 m 1
 -554 1417 -575 1483 -575 1522 c 0
 -575 1590 -516 1636 -452 1636 c 0
 -384 1636 -328 1610 -312 1566 c 0
 -302 1538 -292 1509 -292 1476 c 0
 -292 1370 -360 1284 -468 1284 c 0
 -653 1284 -677 1372 -754 1372 c 0
 -796 1372 -785 1298 -795 1284 c 1
 -963 1284 -1035 1398 -1035 1510 c 0
 -1035 1617 -980 1778 -641 1778 c 0
 -551 1778 -435 1786 -397 1894 c 1
 -255 1894 l 1
 -255 1804 -366 1700 -459 1675 c 0
 -491 1666 -547 1660 -628 1660 c 0
 -824 1660 -887 1600 -887 1505 c 0
 -887 1471 -868 1430 -839 1430 c 1
 -835 1470 -822 1524 -754 1524 c 0xbe
 -699 1524 -645 1452 -580 1426 c 0
 -547 1414 -487 1398 -455 1417 c 1
EndSplineSet
Fore
Refer: 190 3655 N 0.9 0 0 0.9 -67 642 2
EndChar

StartChar: uni0E4D.high
Encoding: 63262 63262 2
Width: 0
VWidth: 2561
Flags: W
HStem: 1726 72<-328.679 -197.779> 1954 73<-330.042 -196.713>
VStem: -412 69<1814.59 1940.06> -183 70<1814.21 1939.26>
AnchorPoint: "AboveMark" -262 1740 mark 0
LayerCount: 2
Fore
SplineSet
-262 2027 m 0
 -180 2027 -113 1961 -113 1875 c 0
 -113 1795 -180 1726 -262 1726 c 0
 -341 1726 -412 1789 -412 1875 c 0
 -412 1957 -343 2027 -262 2027 c 0
-263 1798 m 0
 -224 1798 -183 1834 -183 1875 c 0
 -183 1921 -220 1954 -263 1954 c 0
 -312 1954 -343 1917 -343 1875 c 0
 -343 1834 -305 1798 -263 1798 c 0
EndSplineSet
EndChar

StartChar: exclam
Encoding: 33 33 5
Width: 569
Flags: W
HStem: 0 194<206 370> 1430 20G<198 378>
VStem: 198 180<0 194 792.431 1450>
LayerCount: 2
Fore
SplineSet
198 999 m 1
 198 1450 l 1
 378 1450 l 1
 378 999 l 1
 335 365 l 1
 242 365 l 1
 198 999 l 1
206 194 m 1
 370 194 l 1
 370 0 l 1
 206 0 l 1
 206 194 l 1
EndSplineSet
EndChar

StartChar: quotedbl
Encoding: 34 34 6
Width: 727
Flags: W
HStem: 947 503<156 241 487 572>
VStem: 106 180<1139.59 1450> 156 85<947 1024.41> 439 180<1136.36 1450> 487 85<947 1027.64>
LayerCount: 2
Fore
SplineSet
156 947 m 1xa0
 106 1217 l 1
 106 1450 l 1
 286 1450 l 1
 286 1217 l 1xc0
 241 947 l 1
 156 947 l 1xa0
487 947 m 1x88
 439 1217 l 1
 439 1450 l 1
 619 1450 l 1
 619 1217 l 1x90
 572 947 l 1
 487 947 l 1x88
EndSplineSet
EndChar

StartChar: numbersign
Encoding: 35 35 7
Width: 1139
Flags: W
HStem: -10 21G<87 271.405 546 729.405> 385 180<21 174 384 632 842 1113> 895 180<21 278 488 737 947 1113> 1450 20G<390.595 575 849.595 1034>
DStem2: 87 -10 267 -10 0.203743 0.979024<36.6737 404.44 623.451 924.932 1143.94 1511.71> 546 -10 725 -10 0.204377 0.978892<36.5835 404.239 623.359 924.933 1144.05 1511.71>
LayerCount: 2
Fore
SplineSet
87 -10 m 1
 174 385 l 1
 21 385 l 1
 21 565 l 1
 204 565 l 1
 278 895 l 1
 21 895 l 1
 21 1075 l 1
 308 1075 l 1
 395 1470 l 1
 575 1470 l 1
 488 1075 l 1
 767 1075 l 1
 854 1470 l 1
 1034 1470 l 1
 947 1075 l 1
 1113 1075 l 1
 1113 895 l 1
 917 895 l 1
 842 565 l 1
 1113 565 l 1
 1113 385 l 1
 812 385 l 1
 725 -10 l 1
 546 -10 l 1
 632 385 l 1
 354 385 l 1
 267 -10 l 1
 87 -10 l 1
384 565 m 1
 662 565 l 1
 737 895 l 1
 458 895 l 1
 384 565 l 1
EndSplineSet
EndChar

StartChar: dollar
Encoding: 36 36 8
Width: 1139
Flags: W
HStem: -17 140<383.742 491> 651 159<391.6 491> 1271 138<390.988 491 634 726.604>
VStem: 76 179<277.858 417> 106 180<907.199 1172.03> 491 143<-118 -15 123 629 810 1269 1405.46 1488> 833 175<1050 1158.65> 858 184<237.835 524.776>
LayerCount: 2
Fore
SplineSet
491 -17 m 5xe5
 251 14 77 143 76 417 c 5
 255 417 l 5xf5
 278 255 361 143 491 123 c 5
 491 651 l 5
 319 693 106 781 106 1031 c 4
 106 1243 267 1394 491 1409 c 5
 491 1488 l 5
 634 1488 l 5
 634 1409 l 5
 840 1389 997 1258 1008 1050 c 5
 833 1050 l 5xee
 820 1143 737 1253 634 1269 c 5
 634 790 l 5
 635 789 l 5
 853 740 1042 647 1042 397 c 4
 1042 165 861 -4 634 -15 c 5
 634 -118 l 5
 491 -118 l 5
 491 -17 l 5xe5
491 1271 m 5
 382 1257 286 1158 286 1044 c 4xec
 286 910 379 843 491 810 c 5
 491 1271 l 5
858 386 m 4xe5
 858 532 769 586 634 629 c 5
 634 123 l 5
 755 149 858 237 858 386 c 4xe5
EndSplineSet
EndChar

StartChar: percent
Encoding: 37 37 9
Width: 1821
Flags: W
HStem: -50 123<1282.29 1474.46> -10 21G<458 648.113> 600 125<1277.23 1482.56> 717 123<332.079 528.465> 1366 125<331.03 536.558>
VStem: 119 157<900.834 1306.97> 590 155<901.803 1309.78> 1066 157<134.413 540.972> 1536 155<135.381 543.779>
DStem2: 458 -10 638 -10 0.451252 0.892397<81.2253 1681.99>
LayerCount: 2
Fore
SplineSet
1066 348 m 0xaf80
 1066 550 1171 725 1372 725 c 0
 1585 725 1691 562 1691 338 c 0
 1691 120 1580 -50 1374 -50 c 0
 1171 -50 1066 116 1066 348 c 0xaf80
1378 600 m 0
 1261 600 1223 488 1223 330 c 0
 1223 179 1270 73 1378 73 c 0
 1490 73 1536 184 1536 344 c 0
 1536 494 1500 600 1378 600 c 0
119 1114 m 0
 119 1316 225 1491 426 1491 c 0
 639 1491 745 1328 745 1104 c 0
 745 886 634 717 428 717 c 0x1f80
 225 717 119 882 119 1114 c 0
432 1366 m 0
 315 1366 276 1254 276 1096 c 0
 276 945 324 840 432 840 c 0
 544 840 590 950 590 1110 c 0
 590 1260 554 1366 432 1366 c 0
1217 1491 m 1
 1397 1491 l 1
 638 -10 l 1
 458 -10 l 1x4f80
 1217 1491 l 1
EndSplineSet
EndChar

StartChar: ampersand
Encoding: 38 38 10
Width: 1366
Flags: W
HStem: -25 158<409.484 714.328> 1343 148<513.337 739.139>
VStem: 88 195<264.601 550.605> 272 185<1069.79 1286.68> 793 184<1042.35 1286.53> 1032 189<541.708 652.11>
DStem2: 606 938 436 842 0.625325 -0.780364<-280.527 -31.3903 150.083 576.746>
LayerCount: 2
Fore
SplineSet
973 172 m 1xdc
 856 41 720 -25 553 -25 c 0
 284 -25 90 164 88 403 c 1xec
 88 586 204 733 436 842 c 1
 359 941 272 1032 272 1163 c 0
 272 1352 440 1491 637 1491 c 0
 832 1491 977 1348 977 1178 c 0
 977 1039 885 920 700 821 c 1
 963 485 l 1
 993 542 1016 611 1032 690 c 1
 1221 649 l 1
 1188 522 1144 417 1090 334 c 1
 1157 247 1233 172 1319 109 c 1
 1198 -35 l 1
 1126 13 1051 82 973 172 c 1xdc
606 938 m 1
 726 1012 793 1048 793 1174 c 0
 793 1268 720 1345 627 1343 c 1
 536 1345 457 1268 457 1182 c 0xdc
 457 1100 555 998 606 938 c 1
530 725 m 1
 385 633 283 548 283 416 c 0xec
 283 288 380 133 555 133 c 0
 688 133 797 220 860 315 c 1
 530 725 l 1
EndSplineSet
EndChar

StartChar: quotesingle
Encoding: 39 39 11
Width: 391
Flags: W
HStem: 947 519<136 247>
VStem: 90 205<1139.17 1466> 136 111<947 1028.83>
LayerCount: 2
Fore
SplineSet
136 947 m 1xa0
 90 1221 l 1
 90 1466 l 1
 295 1466 l 1
 295 1221 l 1xc0
 247 947 l 1
 136 947 l 1xa0
EndSplineSet
EndChar

StartChar: parenleft
Encoding: 40 40 12
Width: 682
Flags: W
VStem: 124 185<190.178 888.505>
LayerCount: 2
Fore
SplineSet
479 -431 m 1
 279 -172 124 160 124 531 c 0
 124 945 281 1239 479 1491 c 1
 608 1491 l 1
 412 1155 309 960 309 530 c 0
 309 210 409 -111 608 -431 c 1
 479 -431 l 1
EndSplineSet
EndChar

StartChar: parenright
Encoding: 41 41 13
Width: 682
Flags: W
VStem: 420 185<190.178 888.505>
LayerCount: 2
Fore
SplineSet
250 -431 m 1
 450 -172 605 160 605 531 c 0
 605 945 448 1239 250 1491 c 1
 121 1491 l 1
 317 1155 420 960 420 530 c 0
 420 210 320 -111 121 -431 c 1
 250 -431 l 1
EndSplineSet
EndChar

StartChar: asterisk
Encoding: 42 42 14
Width: 797
Flags: W
HStem: 867 624
VStem: 321 145<1247.64 1491>
LayerCount: 2
Fore
SplineSet
64 1197 m 1
 110 1339 l 1
 216 1302 293 1269 341 1242 c 1
 328 1363 322 1446 321 1491 c 1
 466 1491 l 1
 464 1425 456 1342 443 1243 c 1
 512 1278 590 1310 679 1339 c 1
 725 1197 l 1
 640 1169 557 1150 476 1141 c 1
 517 1106 574 1043 648 952 c 1
 528 867 l 1
 489 920 444 991 391 1082 c 1
 342 988 298 916 261 867 c 1
 143 952 l 1
 220 1047 276 1110 309 1141 c 1
 223 1158 141 1176 64 1197 c 1
EndSplineSet
EndChar

StartChar: plus
Encoding: 43 43 15
Width: 1196
Flags: W
HStem: 639 168<114 513 683 1082>
VStem: 513 170<237 639 807 1206>
LayerCount: 2
Fore
SplineSet
513 237 m 1
 513 639 l 1
 114 639 l 1
 114 807 l 1
 513 807 l 1
 513 1206 l 1
 683 1206 l 1
 683 807 l 1
 1082 807 l 1
 1082 639 l 1
 683 639 l 1
 683 237 l 1
 513 237 l 1
EndSplineSet
EndChar

StartChar: comma
Encoding: 44 44 16
Width: 569
Flags: W
HStem: 0 205<182 284>
VStem: 182 205<0 205> 284 103<-157.748 0>
LayerCount: 2
Fore
SplineSet
182 0 m 1xc0
 182 205 l 1
 387 205 l 1
 387 0 l 1xc0
 386 -157 332 -241 220 -290 c 1
 170 -213 l 1
 251 -176 280 -117 284 0 c 1xa0
 182 0 l 1xc0
EndSplineSet
EndChar

StartChar: hyphen
Encoding: 45 45 17
Width: 682
Flags: W
HStem: 440 181<65 618>
VStem: 65 553<440 621>
LayerCount: 2
Fore
SplineSet
65 440 m 1
 65 621 l 1
 618 621 l 1
 618 440 l 1
 65 440 l 1
EndSplineSet
EndChar

StartChar: period
Encoding: 46 46 18
Width: 569
Flags: W
HStem: 0 205<186 391>
VStem: 186 205<0 205>
LayerCount: 2
Fore
SplineSet
186 0 m 1
 186 205 l 1
 391 205 l 1
 391 0 l 1
 186 0 l 1
EndSplineSet
EndChar

StartChar: slash
Encoding: 47 47 19
Width: 595
Flags: W
HStem: -10 21G<-81 109.919> 1450 20G<498.068 688>
DStem2: -81 -10 102 -10 0.368682 0.929556<67.4688 1592.16>
LayerCount: 2
Fore
SplineSet
-81 -10 m 1
 506 1470 l 1
 688 1470 l 1
 102 -10 l 1
 -81 -10 l 1
EndSplineSet
EndChar

StartChar: zero
Encoding: 48 48 20
Width: 1139
Flags: W
HStem: -10 150<425.788 698.857> 1309 150<421.284 698.732>
VStem: 86 184<362.402 1101.73> 856 184<358.726 1085.23>
LayerCount: 2
Fore
SplineSet
86 723 m 0
 86 1160 196 1459 563 1459 c 0
 881 1459 1040 1214 1040 723 c 0
 1040 288 920 -10 563 -10 c 0
 208 -10 86 300 86 723 c 0
270 723 m 0
 270 392 344 140 563 140 c 0
 758 140 856 336 856 723 c 0
 856 1114 758 1309 561 1309 c 0
 316 1309 270 1032 270 723 c 0
EndSplineSet
EndChar

StartChar: one
Encoding: 49 49 21
Width: 1139
Flags: W
HStem: 0 21G<583 763> 1452 20G<557 763>
VStem: 583 180<0 1135 1376.16 1472>
LayerCount: 2
Fore
SplineSet
763 0 m 1
 583 0 l 1
 583 1135 l 1
 520 1033 368 937 223 907 c 1
 223 1104 l 1
 377 1175 531 1308 583 1472 c 1
 763 1472 l 1
 763 0 l 1
EndSplineSet
EndChar

StartChar: two
Encoding: 50 50 22
Width: 1139
Flags: W
HStem: 0 173<312 1031> 1333 149<405.038 725.01>
VStem: 96 185<1039 1205.71> 844 185<905.655 1217.72>
LayerCount: 2
Fore
SplineSet
1031 173 m 1
 1031 0 l 1
 62 0 l 1
 62 174 225 365 437 542 c 0
 655 724 844 855 844 1079 c 0
 844 1228 723 1333 568 1333 c 0
 395 1333 283 1220 281 1039 c 1
 96 1039 l 1
 96 1304 295 1482 572 1482 c 0
 831 1482 1029 1326 1029 1075 c 0
 1029 785 800 630 596 455 c 0
 493 366 384 298 312 173 c 1
 1031 173 l 1
EndSplineSet
EndChar

StartChar: three
Encoding: 51 51 23
Width: 1139
Flags: W
HStem: -10 166<391.379 715.426> 713 137<443.202 657.299> 1070 21G<104 295.5> 1317 165<393.909 702.516>
VStem: 86 180<280.785 427> 104 180<1070 1202.54> 789 185<967.856 1231.91> 855 191<293.129 603.887>
LayerCount: 2
Fore
SplineSet
86 427 m 1xf9
 266 427 l 1
 267 263 392 156 553 156 c 0
 724 156 855 274 855 445 c 0xf9
 855 612 744 713 576 713 c 0
 533 713 488 707 441 694 c 1
 441 852 l 1
 455 851 469 850 483 850 c 0
 651 850 789 953 789 1105 c 0
 789 1237 690 1317 549 1317 c 0
 396 1317 307 1228 284 1070 c 1
 104 1070 l 1
 110 1301 300 1482 545 1482 c 0
 776 1482 974 1328 974 1101 c 0xf6
 974 964 883 844 772 794 c 1
 949 749 1046 640 1046 449 c 0
 1046 181 832 -10 552 -10 c 0
 292 -10 89 170 86 427 c 1xf9
EndSplineSet
EndChar

StartChar: four
Encoding: 52 52 24
Width: 1139
Flags: W
HStem: 0 21G<662 842> 347 175<251 662 842 1040> 1452 20G<648.611 842>
VStem: 662 180<0 347 522 1117>
DStem2: 26 522 251 522 0.556314 0.830972<125.171 848.244>
LayerCount: 2
Fore
SplineSet
662 0 m 1
 662 347 l 1
 26 347 l 1
 26 522 l 1
 662 1472 l 1
 842 1472 l 1
 842 522 l 1
 1040 522 l 1
 1040 347 l 1
 842 347 l 1
 842 0 l 1
 662 0 l 1
662 522 m 1
 662 1117 l 1
 251 522 l 1
 662 522 l 1
EndSplineSet
EndChar

StartChar: five
Encoding: 53 53 25
Width: 1139
Flags: W
HStem: -10 164<398.336 716.295> 817 170<397.312 729.392> 1292 180<423 988>
VStem: 85 189<280.908 415> 866 191<307.842 675.898>
DStem2: 117 708 344 920 0.182734 0.983162<12.9072 75.0338 249.911 630.083>
LayerCount: 2
Fore
SplineSet
85 415 m 1
 274 415 l 1
 303 249 388 154 556 154 c 0
 745 154 866 296 866 496 c 0
 866 696 752 817 553 817 c 0
 454 817 372 773 306 686 c 1
 117 708 l 1
 259 1472 l 1
 988 1472 l 1
 988 1292 l 1
 423 1292 l 1
 344 920 l 1
 397 964 484 987 591 987 c 0
 868 987 1057 796 1057 512 c 0
 1057 224 858 -10 556 -10 c 4
 280 -10 109 158 85 415 c 1
EndSplineSet
EndChar

StartChar: six
Encoding: 54 54 26
Width: 1139
Flags: W
HStem: -10 165<437.433 732.771> 807 170<427.576 730.553> 1305 177<436.085 744.966>
VStem: 77 194<842 1086.31> 840 179<1103 1202.62> 861 184<294.172 663.193>
LayerCount: 2
Fore
SplineSet
1019 1103 m 1xf8
 840 1103 l 1xf8
 808 1235 736 1303 592 1305 c 1
 383 1305 276 1151 271 842 c 1
 346 934 443 977 594 977 c 0
 852 977 1045 766 1045 491 c 0xf4
 1045 216 865 -10 586 -10 c 0
 208 -10 77 292 77 701 c 0
 77 1168 216 1482 603 1482 c 0
 826 1482 1021 1327 1019 1103 c 1xf8
306 490 m 0
 306 308 405 155 583 155 c 0
 764 155 861 300 861 480 c 0xf4
 861 667 760 807 576 807 c 0
 404 807 306 670 306 490 c 0
EndSplineSet
EndChar

StartChar: seven
Encoding: 55 55 27
Width: 1139
Flags: W
HStem: 0 21G<293 511> 1292 180<97 795>
VStem: 293 218<0 345.203>
LayerCount: 2
Fore
SplineSet
97 1292 m 1
 97 1472 l 1
 1046 1472 l 1
 1046 1292 l 1
 895 1111 772 911 675 692 c 0
 566 446 511 215 511 0 c 1
 293 0 l 1
 294 235 359 494 486 776 c 0
 577 979 680 1151 795 1292 c 1
 97 1292 l 1
EndSplineSet
EndChar

StartChar: eight
Encoding: 56 56 28
Width: 1139
Flags: W
HStem: -10 157<406.339 740.828> 699 181<418.553 715.905> 1326 156<414.696 714.489>
VStem: 83 185<283.759 591.159> 142 184<969.067 1244.03> 804 185<967.774 1239.66> 865 184<274.645 586.618>
LayerCount: 2
Fore
SplineSet
362 805 m 1xf2
 215 859 142 959 142 1104 c 0
 142 1340 328 1482 563 1482 c 0
 804 1482 989 1332 989 1099 c 0xec
 989 958 908 856 773 805 c 1
 948 743 1049 632 1049 434 c 0
 1049 152 854 -10 566 -10 c 4
 292 -10 83 164 83 439 c 0
 83 644 193 763 362 805 c 1xf2
326 1110 m 0
 326 972 424 880 567 880 c 0
 704 880 804 967 804 1100 c 0
 804 1236 708 1326 565 1326 c 0
 431 1326 326 1248 326 1110 c 0
268 438 m 0xf2
 268 268 398 147 568 147 c 0
 748 147 865 260 865 432 c 0
 865 612 740 699 562 699 c 0
 389 699 268 609 268 438 c 0xf2
EndSplineSet
EndChar

StartChar: nine
Encoding: 57 57 29
Width: 1139
Flags: W
HStem: -10 177<413.034 724.684> 495 170<429.526 734.695> 1317 165<425.859 718.603>
VStem: 113 184<808.187 1179.98> 139 179<269.382 369> 887 194<395.332 630>
LayerCount: 2
Fore
SplineSet
139 369 m 1xec
 318 369 l 1xec
 350 237 422 167 566 167 c 0
 780 167 882 321 887 630 c 1
 812 538 715 495 564 495 c 0
 316 495 113 704 113 981 c 0xf4
 113 1260 294 1482 572 1482 c 0
 936 1482 1081 1188 1081 771 c 0
 1081 332 952 -10 555 -10 c 0
 332 -10 137 145 139 369 c 1xec
852 982 m 1
 854 1167 753 1317 575 1317 c 0
 396 1317 297 1178 297 992 c 0xf4
 297 804 399 665 582 665 c 0
 760 665 855 802 852 982 c 1
EndSplineSet
EndChar

StartChar: colon
Encoding: 58 58 30
Width: 569
Flags: W
HStem: 0 205<185 390> 857 205<185 390>
VStem: 185 205<0 205 857 1062>
LayerCount: 2
Fore
SplineSet
185 857 m 1
 185 1062 l 1
 390 1062 l 1
 390 857 l 1
 185 857 l 1
185 0 m 1
 185 205 l 1
 390 205 l 1
 390 0 l 1
 185 0 l 1
EndSplineSet
EndChar

StartChar: semicolon
Encoding: 59 59 31
Width: 569
Flags: W
HStem: 0 205<182 284> 857 205<182 387>
VStem: 182 205<0 205 857 1062> 284 103<-159.229 0>
LayerCount: 2
Fore
SplineSet
182 857 m 1xe0
 182 1062 l 1
 387 1062 l 1
 387 857 l 1
 182 857 l 1xe0
182 0 m 1
 182 205 l 1
 387 205 l 1
 387 0 l 1xe0
 388 -150 328 -245 220 -290 c 5
 170 -213 l 1
 250 -178 281 -110 284 0 c 1xd0
 182 0 l 1
EndSplineSet
EndChar

StartChar: less
Encoding: 60 60 32
Width: 1196
Flags: W
DStem2: 112 809 313 724 0.921242 0.38899<152.105 984.383> 313 724 112 641 0.919536 -0.393005<0 833.412>
LayerCount: 2
Fore
SplineSet
112 641 m 1
 112 809 l 1
 1083 1219 l 1
 1083 1040 l 1
 313 724 l 1
 1083 405 l 1
 1083 226 l 1
 112 641 l 1
EndSplineSet
EndChar

StartChar: equal
Encoding: 61 61 33
Width: 1196
Flags: W
HStem: 417 168<114 1082> 862 168<114 1082>
LayerCount: 2
Fore
SplineSet
1082 862 m 1
 114 862 l 1
 114 1030 l 1
 1082 1030 l 1
 1082 862 l 1
1082 417 m 1
 114 417 l 1
 114 585 l 1
 1082 585 l 1
 1082 417 l 1
EndSplineSet
EndChar

StartChar: greater
Encoding: 62 62 34
Width: 1196
Flags: W
DStem2: 112 1219 112 1040 0.921242 -0.38899<69.6292 900.985> 112 405 112 226 0.919536 0.393005<0 832.492>
LayerCount: 2
Fore
SplineSet
1083 641 m 1
 112 226 l 1
 112 405 l 1
 881 724 l 1
 112 1040 l 1
 112 1219 l 1
 1083 809 l 1
 1083 641 l 1
EndSplineSet
EndChar

StartChar: question
Encoding: 63 63 35
Width: 1139
Flags: W
HStem: 0 205<461 666> 1341 163<413.173 731.736>
VStem: 90 185<1046 1192.41> 461 205<0 205> 472 173<361 555.604> 853 187<949.481 1224.32>
LayerCount: 2
Fore
SplineSet
90 1046 m 1xec
 104 1302 280 1504 565 1504 c 0
 834 1504 1040 1330 1040 1105 c 0
 1040 745 645 758 645 361 c 1
 472 361 l 1
 474 436 l 2
 483 793 853 822 853 1088 c 0
 853 1202 763 1341 568 1341 c 0
 391 1341 301 1222 275 1046 c 1
 90 1046 l 1xec
461 0 m 1xf4
 461 205 l 1
 666 205 l 1
 666 0 l 1
 461 0 l 1xf4
EndSplineSet
EndChar

StartChar: at
Encoding: 64 64 36
Width: 2079
Flags: W
HStem: -431 157<784.474 1450.66> -33 196<1277 1537.37> -3 164<774.275 1036.33> 925 159<882.783 1158.38> 1338 155<813.75 1363.77>
VStem: 111 158<211.95 774.614> 502 181<257.993 674.991> 1799 157<502.941 943.287>
LayerCount: 2
Fore
SplineSet
1354 -33 m 0xdf
 1200 -33 1168 47 1161 121 c 1
 1090 38 987 -3 854 -3 c 0xbf
 643 -3 502 199 502 461 c 0
 502 805 763 1084 1011 1084 c 0
 1153 1084 1254 1035 1313 938 c 1
 1347 1079 l 1
 1526 1079 l 1
 1380 379 l 2
 1367 315 1358 265 1352 229 c 1
 1355 173 1400 163 1422 163 c 0
 1605 163 1799 482 1799 716 c 0
 1799 1102 1481 1338 1093 1338 c 0
 599 1338 269 975 269 485 c 0
 269 -11 594 -274 1120 -274 c 0
 1555 -274 1751 -87 1824 19 c 1
 2005 19 l 1
 1873 -253 1544 -431 1123 -431 c 0
 527 -431 111 -124 111 469 c 0
 111 1061 507 1493 1102 1493 c 0
 1586 1493 1956 1181 1956 713 c 0
 1956 365 1687 -33 1354 -33 c 0xdf
683 453 m 0
 683 271 766 161 891 161 c 0
 1107 161 1243 421 1243 649 c 0
 1243 882 1112 925 1024 925 c 0
 795 925 683 640 683 453 c 0
EndSplineSet
EndChar

StartChar: A
Encoding: 65 65 37
Width: 1366
Flags: W
HStem: 0 21G<-2 211.025 1140.46 1368> 471 182<435 903> 1430 20G<551.262 776.276>
DStem2: -2 0 203 0 0.360832 0.932631<73.9705 581.437 766.691 1392.17> 559 1450 659 1237 0.360832 0.932631<-788.05 -162.567> 768 1450 659 1237 0.382352 -0.924017<155.139 788.059> 1368 0 948 471 0.382352 -0.924017<-595.8 -83.735>
LayerCount: 2
Fore
SplineSet
559 1450 m 1
 768 1450 l 1
 1368 0 l 1
 1149 0 l 1
 948 471 l 1
 392 471 l 1
 203 0 l 1
 -2 0 l 1
 559 1450 l 1
903 653 m 1
 659 1237 l 1
 435 653 l 1
 903 653 l 1
EndSplineSet
EndChar

StartChar: B
Encoding: 66 66 38
Width: 1366
Flags: W
HStem: 0 173<344 940.594> 669 173<344 911.662> 1277 173<344 904.188>
VStem: 164 180<173 669 842 1277> 995 191<917.368 1193.66> 1056 201<267.507 571.736>
LayerCount: 2
Fore
SplineSet
981 772 m 1xf8
 1189 711 1257 565 1257 421 c 0xf4
 1257 140 1055 0 709 0 c 2
 164 0 l 1
 164 1450 l 1
 709 1450 l 2
 995 1450 1186 1315 1186 1079 c 0
 1186 1000 1153 857 981 772 c 1xf8
344 842 m 1
 683 842 l 2
 890 842 995 895 995 1056 c 0xf8
 995 1245 845 1277 709 1277 c 2
 344 1277 l 1
 344 842 l 1
344 173 m 1
 709 173 l 2
 1010 173 1056 295 1056 421 c 0xf4
 1056 605 940 669 683 669 c 2
 344 669 l 1
 344 173 l 1
EndSplineSet
EndChar

StartChar: C
Encoding: 67 67 39
Width: 1479
Flags: W
HStem: -10 180<580.324 1005.58> 1297 180<579.436 1010.73>
VStem: 102 197<491.431 999.616> 1185 188<1050 1140.26> 1210 188<354.725 480>
LayerCount: 2
Fore
SplineSet
788 170 m 0xf0
 1024 170 1193 300 1210 480 c 1
 1398 480 l 1xe8
 1306 117 1054 -10 791 -10 c 0
 384 -10 102 256 102 745 c 0
 102 1191 389 1477 794 1477 c 0
 1141 1477 1311 1266 1373 1050 c 1
 1185 1050 l 1
 1123 1252 935 1297 790 1297 c 0
 472 1297 299 1065 299 746 c 0
 299 522 397 170 788 170 c 0xf0
EndSplineSet
EndChar

StartChar: D
Encoding: 68 68 40
Width: 1479
Flags: W
HStem: 0 173<350 908.237> 1277 173<350 908.268>
VStem: 168 182<173 1277> 1183 197<464.784 1002.24>
LayerCount: 2
Fore
SplineSet
1380 733 m 0
 1380 147 1054 0 697 0 c 2
 168 0 l 1
 168 1450 l 1
 673 1450 l 2
 1239 1450 1380 1142 1380 733 c 0
1183 736 m 0
 1183 1169 936 1277 670 1277 c 2
 350 1277 l 1
 350 173 l 1
 675 173 l 2
 980 173 1183 325 1183 736 c 0
EndSplineSet
EndChar

StartChar: E
Encoding: 69 69 41
Width: 1366
Flags: W
HStem: 0 179<341 1222> 646 180<341 1021> 1268 182<341 1222>
VStem: 162 179<179 646 826 1268>
LayerCount: 2
Fore
SplineSet
162 0 m 1
 162 1450 l 1
 1222 1450 l 1
 1222 1268 l 1
 341 1268 l 1
 341 826 l 1
 1021 826 l 1
 1021 646 l 1
 341 646 l 1
 341 179 l 1
 1222 179 l 1
 1222 0 l 1
 162 0 l 1
EndSplineSet
EndChar

StartChar: F
Encoding: 70 70 42
Width: 1251
Flags: W
HStem: 0 21G<168 347> 641 179<347 1009> 1271 179<347 1157>
VStem: 168 179<0 641 820 1271>
LayerCount: 2
Fore
SplineSet
168 0 m 1
 168 1450 l 1
 1157 1450 l 1
 1157 1271 l 1
 347 1271 l 1
 347 820 l 1
 1009 820 l 1
 1009 641 l 1
 347 641 l 1
 347 0 l 1
 168 0 l 1
EndSplineSet
EndChar

StartChar: G
Encoding: 71 71 43
Width: 1479
Flags: W
HStem: -10 180<581.164 998.028> 504 180<905 1212> 1297 180<578.508 1010.02>
VStem: 102 197<492.98 1000.28> 1185 188<1050 1140.26> 1212 192<352.564 504>
LayerCount: 2
Fore
SplineSet
299 746 m 0xf8
 299 521 396 170 788 170 c 0
 982 170 1213 287 1212 504 c 1
 905 504 l 1
 905 684 l 1
 1404 684 l 1xf4
 1428 192 1188 -10 791 -10 c 0
 432 -10 102 212 102 745 c 0
 102 1191 384 1477 794 1477 c 0
 1141 1477 1311 1266 1373 1050 c 1
 1185 1050 l 1
 1145 1184 1031 1297 790 1297 c 0
 472 1297 299 1068 299 746 c 0xf8
EndSplineSet
EndChar

StartChar: H
Encoding: 72 72 44
Width: 1479
Flags: W
HStem: 0 21G<164 344 1134 1314> 668 180<344 1134> 1430 20G<164 344 1134 1314>
VStem: 164 180<0 668 848 1450> 1134 180<0 668 848 1450>
LayerCount: 2
Fore
SplineSet
164 0 m 1
 164 1450 l 1
 344 1450 l 1
 344 848 l 1
 1134 848 l 1
 1134 1450 l 1
 1314 1450 l 1
 1314 0 l 1
 1134 0 l 1
 1134 668 l 1
 344 668 l 1
 344 0 l 1
 164 0 l 1
EndSplineSet
EndChar

StartChar: I
Encoding: 73 73 45
Width: 650
Flags: W
HStem: 0 160<25 235 415 625> 1290 160<25 235 415 625>
VStem: 235 180<160 1290>
LayerCount: 2
Fore
SplineSet
625 160 m 1
 625 0 l 1
 25 0 l 1
 25 160 l 1
 235 160 l 1
 235 1290 l 1
 25 1290 l 1
 25 1450 l 1
 625 1450 l 1
 625 1290 l 1
 415 1290 l 1
 415 160 l 1
 625 160 l 1
EndSplineSet
EndChar

StartChar: J
Encoding: 74 74 46
Width: 1024
Flags: W
HStem: -10 180<323.008 612.376> 1280 170<408 685>
VStem: 64 180<261.167 455> 685 180<247.773 1280>
LayerCount: 2
Fore
SplineSet
865 1450 m 1
 865 456 l 2
 865 108 712 -10 463 -10 c 0
 126 -10 64 216 64 455 c 1
 244 455 l 1
 244 244 328 170 462 170 c 0
 616 170 685 256 685 408 c 2
 685 1280 l 1
 408 1280 l 1
 408 1450 l 1
 865 1450 l 1
EndSplineSet
EndChar

StartChar: K
Encoding: 75 75 47
Width: 1366
Flags: W
HStem: 0 21G<150 330 1094.07 1346> 1430 20G<150 330 1049.68 1316>
VStem: 150 180<0 539 785 1450>
DStem2: 330 785 479 670 0.734489 0.67862<0 31.3976 219.908 996.273>
LayerCount: 2
Fore
SplineSet
150 0 m 1
 150 1450 l 1
 330 1450 l 1
 330 785 l 1
 1072 1450 l 1
 1316 1450 l 1
 610 806 l 1
 1346 0 l 1
 1113 0 l 1
 479 670 l 1
 330 539 l 1
 330 0 l 1
 150 0 l 1
EndSplineSet
EndChar

StartChar: L
Encoding: 76 76 48
Width: 1139
Flags: W
HStem: 0 170<330 1060> 1430 20G<150 330>
VStem: 150 180<170 1450>
LayerCount: 2
Fore
SplineSet
150 0 m 1
 150 1450 l 1
 330 1450 l 1
 330 170 l 1
 1060 170 l 1
 1060 0 l 1
 150 0 l 1
EndSplineSet
EndChar

StartChar: M
Encoding: 77 77 49
Width: 1706
Flags: W
HStem: 0 21G<152 332 698.241 1003.76 1370 1550> 1430 20G<152 339.882 1362.12 1550>
VStem: 152 180<0 964> 1370 180<0 964>
DStem2: 332 1450 332 964 0.366636 -0.930365<452.157 1415.57> 851 133 996 0 0.366636 0.930365<0 963.417>
LayerCount: 2
Fore
SplineSet
152 0 m 1
 152 1450 l 1
 332 1450 l 1
 851 133 l 1
 1370 1450 l 1
 1550 1450 l 1
 1550 0 l 1
 1370 0 l 1
 1370 964 l 1
 996 0 l 1
 706 0 l 1
 332 964 l 1
 332 0 l 1
 152 0 l 1
EndSplineSet
EndChar

StartChar: N
Encoding: 78 78 50
Width: 1479
Flags: W
HStem: 0 21G<156 336 1117 1311> 1430 20G<156 350.009 1131 1311>
VStem: 156 180<0 1136> 1131 180<315 1450>
DStem2: 336 1450 336 1136 0.573366 -0.8193<257.26 1385.73>
LayerCount: 2
Fore
SplineSet
156 0 m 1
 156 1450 l 1
 336 1450 l 1
 1131 315 l 1
 1131 1450 l 1
 1311 1450 l 1
 1311 0 l 1
 1131 0 l 1
 336 1136 l 1
 336 0 l 1
 156 0 l 1
EndSplineSet
EndChar

StartChar: O
Encoding: 79 79 51
Width: 1593
Flags: W
HStem: -10 180<576.319 1020.8> 1298 180<571.559 1020.37>
VStem: 104 200<462.761 999.089> 1296 200<473.987 1001.29>
LayerCount: 2
Fore
SplineSet
800 -10 m 0
 370 -10 104 306 104 714 c 0
 104 1188 364 1478 801 1478 c 0
 1230 1478 1496 1176 1496 731 c 0
 1496 277 1212 -10 800 -10 c 0
802 1298 m 0
 404 1298 304 1002 304 711 c 0
 304 383 482 170 799 170 c 0
 1122 170 1296 384 1296 732 c 0
 1296 1072 1127 1298 802 1298 c 0
EndSplineSet
EndChar

StartChar: P
Encoding: 80 80 52
Width: 1366
Flags: W
HStem: 0 21G<158 338> 580 173<338 958.614> 1277 173<338 970.26>
VStem: 158 180<0 580 753 1277> 1077 200<864.456 1181.77>
LayerCount: 2
Fore
SplineSet
158 0 m 1
 158 1450 l 1
 711 1450 l 2
 1185 1450 1277 1255 1277 1026 c 0
 1277 735 1105 580 728 580 c 2
 338 580 l 1
 338 0 l 1
 158 0 l 1
731 753 m 2
 925 753 1077 806 1077 1020 c 0
 1077 1175 1020 1277 727 1277 c 2
 338 1277 l 1
 338 753 l 1
 731 753 l 2
EndSplineSet
EndChar

StartChar: Q
Encoding: 81 81 53
Width: 1659
Flags: W
HStem: -14 189<738.548 1041.1 1319.18 1522.09> 297 178<789.732 1022.03> 1298 180<572.302 1026.08>
VStem: 104 200<454.424 999.089> 1296 200<461.022 1003.05>
LayerCount: 2
Fore
SplineSet
895 475 m 1
 1075 473 1174 375 1194 354 c 1
 1284 466 1296 643 1296 732 c 0
 1296 1080 1127 1298 802 1298 c 0
 404 1298 304 1002 304 711 c 0
 304 480 388 318 543 230 c 1
 586 394 751 475 895 475 c 1
1496 731 m 0
 1496 396 1390 261 1317 204 c 1
 1334 185 1358 176 1390 175 c 1
 1429 175 1488 192 1533 228 c 1
 1659 90 l 1
 1585 21 1498 -14 1399 -14 c 0
 1313 -14 1215 16 1156 88 c 1
 1052 22 962 -10 820 -10 c 0
 373 -10 104 284 104 714 c 0
 104 1188 368 1478 801 1478 c 0
 1230 1478 1496 1176 1496 731 c 0
1050 226 m 1
 1010 273 963 297 908 297 c 0
 770 297 738 174 738 174 c 1
 755 169 776 167 803 167 c 0
 923 169 1015 197 1050 226 c 1
EndSplineSet
EndChar

StartChar: R
Encoding: 82 82 54
Width: 1400
Flags: W
HStem: 0 21G<158 338 1092.9 1387> 580 173<338 698> 1277 173<338 966.255>
VStem: 158 180<0 580 753 1277> 1077 200<861.038 1181>
LayerCount: 2
Fore
SplineSet
698 580 m 1
 338 580 l 1
 338 0 l 1
 158 0 l 1
 158 1450 l 1
 711 1450 l 2
 1175 1450 1277 1260 1277 1026 c 0
 1277 799 1151 630 924 596 c 1
 1387 0 l 1
 1107 0 l 1
 698 580 l 1
731 753 m 2
 925 753 1077 806 1077 1020 c 0
 1077 1155 1035 1277 727 1277 c 2
 338 1277 l 1
 338 753 l 1
 731 753 l 2
EndSplineSet
EndChar

StartChar: S
Encoding: 83 83 55
Width: 1366
Flags: W
HStem: -10 174<483.435 927.312> 1300 171<448.505 872.256>
VStem: 92 183<359.794 502> 148 187<972.56 1200.5> 1029 186<1019 1148.15> 1072 187<287.483 532.828>
LayerCount: 2
Fore
SplineSet
1259 429 m 0xd4
 1259 157 1014 -10 717 -10 c 0
 203 -10 97 291 92 502 c 1
 275 502 l 1
 303 271 466 164 708 164 c 0
 897 164 1072 239 1072 413 c 1xe4
 1075 617 817 625 639 666 c 1
 384 728 148 800 148 1067 c 0
 148 1323 372 1471 664 1471 c 0
 964 1471 1192 1319 1215 1019 c 1
 1029 1019 l 1xd8
 1009 1191 880 1300 672 1300 c 0
 391 1300 335 1168 335 1080 c 0
 335 904 560 883 692 852 c 0
 884 808 1259 780 1259 429 c 0xd4
EndSplineSet
EndChar

StartChar: T
Encoding: 84 84 56
Width: 1251
Flags: W
HStem: 0 21G<538 718> 1280 170<48 538 718 1210>
VStem: 538 180<0 1280>
LayerCount: 2
Fore
SplineSet
538 0 m 1
 538 1280 l 1
 48 1280 l 1
 48 1450 l 1
 1210 1450 l 1
 1210 1280 l 1
 718 1280 l 1
 718 0 l 1
 538 0 l 1
EndSplineSet
EndChar

StartChar: U
Encoding: 85 85 57
Width: 1479
Flags: W
HStem: -10 180<527.393 962.741> 1430 20G<161 341 1134 1314>
VStem: 161 180<352.651 1450> 1134 180<342.039 1450>
LayerCount: 2
Fore
SplineSet
737 170 m 0
 1055 170 1134 337 1134 568 c 2
 1134 1450 l 1
 1314 1450 l 1
 1314 567 l 2
 1314 182 1123 -10 741 -10 c 0
 277 -10 161 264 161 567 c 2
 161 1450 l 1
 341 1450 l 1
 341 568 l 2
 341 250 536 170 737 170 c 0
EndSplineSet
EndChar

StartChar: V
Encoding: 86 86 58
Width: 1366
Flags: W
HStem: 0 21G<569.166 783.917> 1430 20G<9 226.822 1143.89 1350>
DStem2: 219 1450 9 1450 0.364738 -0.93111<0 1257.38> 677 279 776 0 0.368072 0.929797<0 1263.63>
LayerCount: 2
Fore
SplineSet
577 0 m 1
 9 1450 l 1
 219 1450 l 1
 677 279 l 1
 1152 1450 l 1
 1350 1450 l 1
 776 0 l 1
 577 0 l 1
EndSplineSet
EndChar

StartChar: W
Encoding: 87 87 59
Width: 1933
Flags: W
HStem: 0 21G<408.634 617.966 1304.03 1513.37> 1430 20G<25 229.453 827.943 1094.06 1692.55 1897>
DStem2: 224 1450 25 1450 0.259113 -0.965847<0 1098.68> 513 390 612 0 0.285845 0.958276<0 875.514> 1088 1450 961 1170 0.285845 -0.958276<232.015 1107.53> 1409 390 1508 0 0.259113 0.965847<0 1098.68>
LayerCount: 2
Fore
SplineSet
414 0 m 1
 25 1450 l 1
 224 1450 l 1
 513 390 l 1
 834 1450 l 1
 1088 1450 l 1
 1409 390 l 1
 1698 1450 l 1
 1897 1450 l 1
 1508 0 l 1
 1310 0 l 1
 961 1170 l 1
 612 0 l 1
 414 0 l 1
EndSplineSet
EndChar

StartChar: X
Encoding: 88 88 60
Width: 1366
Flags: W
HStem: 0 21G<9 253.421 1108.58 1353> 1430 20G<76 319.686 1068.33 1313>
DStem2: 9 0 239 0 0.595201 0.803577<136.896 892.568 1124.8 1804.43> 306 1450 76 1450 0.585409 -0.810738<0 663.813 898.116 1653.85>
LayerCount: 2
Fore
SplineSet
9 0 m 1
 564 756 l 1
 76 1450 l 1
 306 1450 l 1
 681 902 l 1
 1083 1450 l 1
 1313 1450 l 1
 798 756 l 1
 1353 0 l 1
 1123 0 l 1
 681 613 l 1
 239 0 l 1
 9 0 l 1
EndSplineSet
EndChar

StartChar: Y
Encoding: 89 89 61
Width: 1366
Flags: W
HStem: 0 21G<571 765> 1431 20G<6 250.899 1105.23 1350>
VStem: 571 194<0 621>
DStem2: 680 855 765 621 0.576103 0.817377<0 740.642>
LayerCount: 2
Fore
SplineSet
571 0 m 1
 571 621 l 1
 6 1451 l 1
 236 1451 l 1
 680 855 l 1
 1120 1451 l 1
 1350 1451 l 1
 765 621 l 1
 765 0 l 1
 571 0 l 1
EndSplineSet
EndChar

StartChar: Z
Encoding: 90 90 62
Width: 1251
Flags: W
HStem: 0 180<325 1200> 1270 180<45 945>
LayerCount: 2
Fore
SplineSet
41 0 m 1
 41 187 l 1
 945 1270 l 1
 45 1270 l 1
 45 1450 l 1
 1213 1450 l 1
 1213 1270 l 1
 325 180 l 1
 1200 180 l 1
 1200 0 l 1
 41 0 l 1
EndSplineSet
EndChar

StartChar: bracketleft
Encoding: 91 91 63
Width: 569
Flags: W
HStem: -407 149<319 536> 1317 149<319 536>
VStem: 139 397<-407 -258 1317 1466> 139 180<-258 1317>
LayerCount: 2
Fore
SplineSet
139 -407 m 1xe0
 139 1466 l 1
 536 1466 l 1
 536 1317 l 1xe0
 319 1317 l 1
 319 -258 l 1xd0
 536 -258 l 1
 536 -407 l 1
 139 -407 l 1xe0
EndSplineSet
EndChar

StartChar: backslash
Encoding: 92 92 64
Width: 569
Flags: W
VStem: 0 569
DStem2: 145 1491 0 1491 0.269936 -0.962878<0 1535.31>
LayerCount: 2
Fore
SplineSet
425 -25 m 1
 0 1491 l 1
 145 1491 l 1
 569 -25 l 1
 425 -25 l 1
EndSplineSet
EndChar

StartChar: bracketright
Encoding: 93 93 65
Width: 569
Flags: W
HStem: -407 149<39 256> 1317 149<39 256>
VStem: 39 397<-407 -258 1317 1466> 256 180<-258 1317>
LayerCount: 2
Fore
SplineSet
436 -407 m 1xe0
 39 -407 l 1
 39 -258 l 1xe0
 256 -258 l 1
 256 1317 l 1xd0
 39 1317 l 1
 39 1466 l 1
 436 1466 l 1
 436 -407 l 1xe0
EndSplineSet
EndChar

StartChar: asciicircum
Encoding: 94 94 66
Width: 961
Flags: W
DStem2: 54 690 239 690 0.403275 0.915079<74.6058 717.694>
LayerCount: 2
Fore
SplineSet
239 690 m 1
 54 690 l 1
 407 1491 l 1
 552 1491 l 1
 907 690 l 1
 726 690 l 1
 479 1287 l 1
 239 690 l 1
EndSplineSet
EndChar

StartChar: underscore
Encoding: 95 95 67
Width: 1139
Flags: W
HStem: -407 130<-31 1162>
LayerCount: 2
Fore
SplineSet
-31 -407 m 1
 -31 -277 l 1
 1162 -277 l 1
 1162 -407 l 1
 -31 -407 l 1
EndSplineSet
EndChar

StartChar: grave
Encoding: 96 96 68
Width: 682
Flags: W
HStem: 1194 280<320 330>
VStem: 89 376
LayerCount: 2
Fore
SplineSet
465 1194 m 1
 320 1194 l 1
 89 1474 l 1
 330 1474 l 1
 465 1194 l 1
EndSplineSet
EndChar

StartChar: a
Encoding: 97 97 69
Width: 1139
Flags: W
HStem: -24 141<326.223 656.339> 0 21G<854.5 1052> 533 141<657.169 813> 937 149<374.182 738.942>
VStem: 74 192<174.601 389.933> 105 176<757.045 839.373> 813 182<265.359 533 660.298 858.647>
LayerCount: 2
Fore
SplineSet
995 445 m 2xb6
 995 153 1000 93 1052 0 c 1
 864 0 l 1x76
 845 37 833 81 828 131 c 1
 732 49 616 -24 437 -24 c 0
 149 -24 74 155 74 280 c 0xba
 74 402 146 535 332 585 c 0
 451 616 659 621 813 674 c 1
 813 828 785 937 558 937 c 0
 389 937 318 883 281 735 c 1
 105 759 l 1
 146 990 321 1086 584 1086 c 0
 969 1086 995 906 995 685 c 2
 995 445 l 2xb6
266 285 m 0xba
 266 218 307 117 480 117 c 0
 628 117 737 188 784 287 c 0
 803 328 813 388 813 467 c 2
 813 533 l 1
 582 437 266 500 266 285 c 0xba
EndSplineSet
EndChar

StartChar: b
Encoding: 98 98 70
Width: 1139
Flags: W
HStem: -10 158<448.813 737.467> 928 158<458.007 739.957> 1446 20G<134 314>
VStem: 134 180<0 119 302.603 756.418 943 1466> 883 172<313.059 765.395>
LayerCount: 2
Fore
SplineSet
596 -10 m 0
 419 -10 330 82 301 119 c 1
 301 0 l 1
 134 0 l 1
 134 1466 l 1
 314 1466 l 1
 314 943 l 1
 390 1038 487 1086 605 1086 c 0
 887 1086 1055 859 1055 547 c 0
 1055 228 893 -10 596 -10 c 0
589 928 m 0
 426 928 312 752 312 542 c 0
 312 227 473 148 581 148 c 0
 777 148 883 309 883 535 c 0
 883 855 707 928 589 928 c 0
EndSplineSet
EndChar

StartChar: c
Encoding: 99 99 71
Width: 1024
Flags: W
HStem: -10 170<402.723 733.323> 916 170<403.083 721.156>
VStem: 80 185<314.723 761.451> 828 177<255.871 403 696 809.411>
LayerCount: 2
Fore
SplineSet
561 160 m 0
 683 161 823 203 828 403 c 1
 1005 403 l 1
 997 137 829 -10 563 -10 c 0
 310 -10 80 174 80 527 c 0
 80 867 252 1086 564 1086 c 0
 947 1086 1003 807 1003 696 c 1
 828 696 l 1
 816 816 714 916 571 916 c 0
 366 916 265 786 265 532 c 0
 265 225 442 160 561 160 c 0
EndSplineSet
EndChar

StartChar: d
Encoding: 100 100 72
Width: 1139
Flags: W
HStem: -10 158<399.127 664.672> 928 158<390.01 676.192> 1446 20G<812 991>
VStem: 70 185<310.226 767.03> 817 174<0 122 320.836 757.806 958 1466>
LayerCount: 2
Fore
SplineSet
519 1086 m 0
 695 1086 769 1014 812 958 c 1
 812 1466 l 1
 991 1466 l 1
 991 0 l 1
 824 0 l 1
 824 122 l 1
 764 34 665 -10 527 -10 c 0
 244 -8 70 219 70 530 c 0
 70 848 228 1086 519 1086 c 0
544 928 m 0
 313 928 255 716 255 538 c 0
 255 218 428 148 544 148 c 0
 658 148 817 281 817 523 c 0
 817 784 696 928 544 928 c 0
EndSplineSet
EndChar

StartChar: e
Encoding: 101 101 73
Width: 1139
Flags: W
HStem: -11 158<404.565 755.695> 485 158<271 862> 928 158<409.214 741.264>
VStem: 75 192<295.703 485 643 777.637> 862 186<249.388 333>
LayerCount: 2
Fore
SplineSet
267 485 m 1
 273 213 435 147 582 147 c 0
 732 147 825 214 862 333 c 1
 1048 333 l 1
 1008 124 836 -11 581 -11 c 0
 259 -11 75 183 75 522 c 0
 75 859 253 1086 571 1086 c 0
 880 1086 1053 882 1053 485 c 1
 267 485 l 1
862 643 m 1
 852 765 804 928 573 928 c 0
 403 928 281 811 271 643 c 1
 862 643 l 1
EndSplineSet
EndChar

StartChar: f
Encoding: 102 102 74
Width: 569
Flags: W
HStem: 0 21G<178 357> 922 140<19 178 357 536> 1343 172<394.872 637.405>
VStem: 178 179<0 922 1062 1306.99>
LayerCount: 2
Fore
SplineSet
493 1343 m 0
 415 1343 357 1294 357 1160 c 2
 357 1062 l 1
 536 1062 l 1
 536 922 l 1
 357 922 l 1
 357 0 l 1
 178 0 l 1
 178 922 l 1
 19 922 l 1
 19 1062 l 1
 178 1062 l 1
 178 1175 l 2
 178 1447 355 1515 487 1515 c 0
 538 1515 589 1506 640 1488 c 1
 640 1316 l 1
 580 1336 539 1343 493 1343 c 0
EndSplineSet
EndChar

StartChar: g
Encoding: 103 103 75
Width: 1139
Flags: W
HStem: -435 167<353.555 693.83> 0 175<379.167 700.734> 917 169<387.508 694.882> 1042 20G<836 1002>
VStem: 66 185<318.64 769.206> 102 175<-194.579 -74> 836 166<341.573 736.859 974 1062>
LayerCount: 2
Fore
SplineSet
1002 144 m 2xda
 1002 -296 859 -435 522 -435 c 0
 277 -435 108 -309 102 -74 c 1
 277 -74 l 1xd6
 276 -220 400 -268 521 -268 c 0
 760 -268 820 -113 819 139 c 1
 740 46 642 0 525 0 c 0
 239 0 66 223 66 537 c 0
 66 854 235 1086 526 1086 c 0xea
 667 1086 770 1049 836 974 c 1
 836 1062 l 1
 1002 1062 l 1
 1002 144 l 2xda
539 917 m 0xea
 349 917 251 769 251 550 c 0
 251 322 333 175 542 175 c 0
 729 175 822 298 822 544 c 0
 822 863 652 917 539 917 c 0xea
EndSplineSet
EndChar

StartChar: h
Encoding: 104 104 76
Width: 1139
Flags: W
HStem: 0 21G<135 315 820 1000> 882 213<434.207 736.96> 1446 20G<135 315>
VStem: 135 180<0 747.97 970 1466> 820 180<0 797.644>
LayerCount: 2
Fore
SplineSet
596 882 m 0
 406 882 315 756 315 532 c 2
 315 0 l 1
 135 0 l 1
 135 1466 l 1
 315 1466 l 1
 315 970 l 1
 381 1057 495 1095 600 1095 c 0
 920 1095 1000 855 1000 673 c 2
 1000 0 l 1
 820 0 l 1
 820 624 l 2
 820 796 745 882 596 882 c 0
EndSplineSet
EndChar

StartChar: i
Encoding: 105 105 77
Width: 455
Flags: W
HStem: 0 21G<136 316> 1042 20G<136 316> 1259 207<136 316>
VStem: 136 180<0 1062 1259 1466>
LayerCount: 2
Fore
SplineSet
136 1259 m 1
 136 1466 l 1
 316 1466 l 1
 316 1259 l 1
 136 1259 l 1
136 0 m 1
 136 1062 l 1
 316 1062 l 1
 316 0 l 1
 136 0 l 1
EndSplineSet
EndChar

StartChar: j
Encoding: 106 106 78
Width: 455
Flags: W
HStem: -428 161<-92.0353 99.0322> 1042 20G<134 314> 1257 209<134 314>
VStem: 134 180<-233.094 1062 1257 1466>
LayerCount: 2
Fore
SplineSet
134 1257 m 1
 134 1466 l 1
 314 1466 l 1
 314 1257 l 1
 134 1257 l 1
314 -58 m 2
 314 -336 204 -428 39 -428 c 0
 -1 -428 -45 -423 -94 -412 c 1
 -94 -259 l 1
 -59 -264 -30 -267 -7 -267 c 0
 90 -267 134 -223 134 -54 c 2
 134 1062 l 1
 314 1062 l 1
 314 -58 l 2
EndSplineSet
EndChar

StartChar: k
Encoding: 107 107 79
Width: 1024
Flags: W
HStem: 0 21G<136 316 781.072 1016> 1042 20G<722.278 975> 1446 20G<136 316>
VStem: 136 180<0 421 630 1466>
DStem2: 316 630 443 543 0.716829 0.697249<0 30.3766 207.853 606.581> 569 668 443 543 0.556135 -0.831092<33.8135 680.3>
LayerCount: 2
Fore
SplineSet
136 0 m 1
 136 1466 l 1
 316 1466 l 1
 316 630 l 1
 742 1062 l 1
 975 1062 l 1
 569 668 l 1
 1016 0 l 1
 794 0 l 1
 443 543 l 1
 316 421 l 1
 316 0 l 1
 136 0 l 1
EndSplineSet
EndChar

StartChar: l
Encoding: 108 108 80
Width: 455
Flags: W
HStem: 0 21G<131 311> 1446 20G<131 311>
VStem: 131 180<0 1466>
LayerCount: 2
Fore
SplineSet
131 0 m 1
 131 1466 l 1
 311 1466 l 1
 311 0 l 1
 131 0 l 1
EndSplineSet
EndChar

StartChar: m
Encoding: 109 109 81
Width: 1706
Flags: W
HStem: 0 21G<135 315 766 946 1395 1574> 930 156<435.167 707.773 1068.08 1334.45> 1042 20G<135 296>
VStem: 135 180<0 806.734> 135 161<913 1062> 766 180<0 811.895> 1395 179<0 866.654>
LayerCount: 2
Fore
SplineSet
766 690 m 2xce
 766 874 691 930 578 930 c 0
 468 930 379 867 344 773 c 0
 325 722 315 648 315 551 c 2
 315 0 l 1
 135 0 l 1xd6
 135 1062 l 1
 296 1062 l 1xae
 296 913 l 1
 327 962 425 1086 618 1086 c 0
 793 1086 881 1004 918 900 c 1
 1002 1024 1111 1086 1246 1086 c 0
 1443 1086 1574 986 1574 729 c 2
 1574 0 l 1
 1395 0 l 1
 1395 669 l 2
 1395 855 1341 930 1206 930 c 0
 1116 930 946 893 946 617 c 2
 946 0 l 1
 766 0 l 1
 766 690 l 2xce
EndSplineSet
EndChar

StartChar: n
Encoding: 110 110 82
Width: 1139
Flags: W
HStem: 0 21G<135 315 820 1000> 882 213<434.207 736.96> 1044 20G<135 315>
VStem: 135 180<0 747.97 970 1064> 820 180<0 797.644>
LayerCount: 2
Fore
SplineSet
596 882 m 0xd8
 406 882 315 756 315 532 c 2
 315 0 l 1
 135 0 l 1
 135 1064 l 1
 315 1064 l 1xb8
 315 970 l 1
 381 1057 495 1095 600 1095 c 0
 920 1095 1000 855 1000 673 c 2
 1000 0 l 1
 820 0 l 1
 820 624 l 2
 820 796 745 882 596 882 c 0xd8
EndSplineSet
EndChar

StartChar: o
Encoding: 111 111 83
Width: 1139
Flags: W
HStem: -11 158<400.253 729.827> 928 158<400.854 726.131>
VStem: 68 185<303.357 761.215> 878 185<305.921 758.767>
LayerCount: 2
Fore
SplineSet
566 -11 m 0
 246 -11 68 190 68 531 c 0
 68 867 244 1086 566 1086 c 0
 874 1086 1063 874 1063 546 c 0
 1063 116 820 -11 566 -11 c 0
566 928 m 0
 358 928 253 773 253 531 c 0
 253 201 441 147 566 147 c 0
 775 147 878 293 878 537 c 0
 878 858 691 928 566 928 c 0
EndSplineSet
EndChar

StartChar: p
Encoding: 112 112 84
Width: 1139
Flags: W
HStem: -10 158<445.346 727.957> 928 158<436.813 722.991>
VStem: 122 180<-390 133 320.9 773.397 957 1076> 871 172<310.816 754.805>
LayerCount: 2
Fore
SplineSet
1043 529 m 0
 1043 218 875 -10 593 -10 c 0
 475 -10 378 38 302 133 c 1
 302 -390 l 1
 122 -390 l 1
 122 1076 l 1
 289 1076 l 1
 289 957 l 1
 318 994 407 1086 584 1086 c 0
 881 1086 1043 852 1043 529 c 0
569 928 m 0
 461 928 300 849 300 534 c 0
 300 327 411 148 577 148 c 0
 695 148 871 221 871 541 c 0
 871 737 784 928 569 928 c 0
EndSplineSet
EndChar

StartChar: q
Encoding: 113 113 85
Width: 1139
Flags: W
HStem: -10 158<402.043 683.993> 928 158<404.064 693.187>
VStem: 87 172<310.605 761.084> 828 180<-390 133 319.582 773.397 957 1076>
LayerCount: 2
Fore
SplineSet
546 1086 m 0
 723 1086 812 994 841 957 c 1
 841 1076 l 1
 1008 1076 l 1
 1008 -390 l 1
 828 -390 l 1
 828 133 l 1
 752 38 655 -10 537 -10 c 0
 255 -10 87 217 87 529 c 0
 87 848 249 1086 546 1086 c 0
553 148 m 0
 716 148 830 324 830 534 c 0
 830 849 669 928 561 928 c 0
 348 928 259 741 259 541 c 0
 259 221 435 148 553 148 c 0
EndSplineSet
EndChar

StartChar: r
Encoding: 114 114 86
Width: 682
Flags: W
HStem: 0 21G<133 313> 900 177<400.412 661.449> 1042 20G<133 295>
VStem: 133 180<0 798.078> 133 162<947 1062>
LayerCount: 2
Fore
SplineSet
518 900 m 0xc8
 395 900 313 802 313 556 c 2
 313 0 l 1
 133 0 l 1xd0
 133 1062 l 1
 295 1062 l 1xa8
 295 947 l 1
 326 1008 416 1077 533 1077 c 0
 598 1077 657 1061 710 1028 c 1
 648 861 l 1
 604 887 561 900 518 900 c 0xc8
EndSplineSet
EndChar

StartChar: s
Encoding: 115 115 87
Width: 1024
Flags: W
HStem: -11 162<335.956 688.539> 925 161<330.739 667.409>
VStem: 63 178<244.532 358> 93 186<698.227 876.482> 729 176<764 864.353> 760 185<216.018 397.24>
LayerCount: 2
Fore
SplineSet
945 325 m 0xd4
 945 123 764 -11 517 -11 c 0
 247 -11 79 119 63 358 c 1
 241 358 l 1
 260 219 352 151 516 151 c 0
 652 151 760 213 760 306 c 0xe4
 760 477 477 446 279 520 c 0
 130 575 93 699 93 780 c 0
 93 987 271 1086 484 1086 c 0
 835 1086 905 867 905 764 c 1
 729 764 l 1xd8
 714 873 645 925 499 925 c 0
 375 925 279 882 279 778 c 0
 279 687 365 673 517 644 c 0
 728 604 945 568 945 325 c 0xd4
EndSplineSet
EndChar

StartChar: t
Encoding: 116 116 88
Width: 569
Flags: W
HStem: -13 166<362.479 531.161> 922 140<18 168 347 497>
VStem: 168 179<164.168 922 1062 1433>
LayerCount: 2
Fore
SplineSet
347 301 m 2
 347 207 353 153 449 153 c 0
 466 153 492 156 528 161 c 1
 554 2 l 1
 506 -8 458 -13 411 -13 c 0
 203 -13 168 100 168 311 c 2
 168 922 l 1
 18 922 l 1
 18 1062 l 1
 168 1062 l 1
 168 1433 l 1
 347 1433 l 1
 347 1062 l 1
 497 1062 l 1
 497 922 l 1
 347 922 l 1
 347 301 l 2
EndSplineSet
EndChar

StartChar: u
Encoding: 117 117 89
Width: 1139
Flags: W
HStem: -10 211<379.859 700.51> 1065 20G<104 284 789 969>
VStem: 104 180<301.551 1085> 789 180<0 64 290.897 1085>
LayerCount: 2
Fore
SplineSet
284 461 m 2
 284 253 422 201 534 201 c 4
 704 201 789 286 789 456 c 2
 789 1085 l 1
 969 1085 l 1
 969 0 l 1
 789 0 l 1
 789 64 l 1
 746 16 662 -10 541 -10 c 0
 255 -10 103 164 104 412 c 1
 104 1085 l 1
 284 1085 l 1
 284 461 l 2
EndSplineSet
EndChar

StartChar: v
Encoding: 118 118 90
Width: 1024
Flags: W
HStem: 0 21G<421.411 606.552> 1042 20G<26 223.667 802.686 1000>
DStem2: 216 1062 26 1062 0.354787 -0.934947<0 849.268> 520 269 599 0 0.353246 0.93553<0 844.317>
LayerCount: 2
Fore
SplineSet
429 0 m 1
 26 1062 l 1
 216 1062 l 1
 520 269 l 1
 810 1062 l 1
 1000 1062 l 1
 599 0 l 1
 429 0 l 1
EndSplineSet
EndChar

StartChar: w
Encoding: 119 119 91
Width: 1479
Flags: W
HStem: 0 21G<324.879 524.41 969.415 1168.65> 1042 20G<6 197.686 642.51 837.809 1282.63 1463>
DStem2: 192 1062 6 1062 0.29263 -0.956226<0 848.17> 424 246 519 0 0.261117 0.965307<0 633.703> 832 1062 740 817 0.27643 -0.961034<210.022 849.718> 1069 246 1163 0 0.271848 0.96234<0 844.804>
LayerCount: 2
Fore
SplineSet
331 0 m 1
 6 1062 l 1
 192 1062 l 1
 424 246 l 1
 648 1062 l 1
 832 1062 l 1
 1069 246 l 1
 1288 1062 l 1
 1463 1062 l 1
 1163 0 l 1
 975 0 l 1
 901 265 l 1
 798 623 744 807 740 817 c 1
 519 0 l 1
 331 0 l 1
EndSplineSet
EndChar

StartChar: x
Encoding: 120 120 92
Width: 1024
Flags: W
HStem: 0 21G<15 245.983 774.492 1009> 1042 20G<44 281.5 751.489 981>
DStem2: 15 0 233 0 0.577377 0.816478<125.868 125.868 846.086 1300.71> 607 562 505 419 0.573773 -0.819014<58.5942 564.139>
LayerCount: 2
Fore
SplineSet
15 0 m 1
 396 552 l 1
 44 1062 l 1
 269 1062 l 1
 499 694 l 1
 766 1062 l 1
 981 1062 l 1
 607 562 l 1
 1009 0 l 1
 788 0 l 1
 505 419 l 1
 233 0 l 1
 15 0 l 1
EndSplineSet
EndChar

StartChar: y
Encoding: 121 121 93
Width: 1024
Flags: W
HStem: -422 168<127 360.428> 1042 20G<33 233.922 819.008 1006>
DStem2: 227 1062 33 1062 0.354204 -0.935168<0 910.733> 525 201 602 -1 0.355264 0.934766<0 911.768>
LayerCount: 2
Fore
SplineSet
127 -409 m 1
 107 -240 l 1
 141 -249 177 -254 214 -254 c 0
 412 -254 431 -111 436 -2 c 1
 33 1062 l 1
 227 1062 l 1
 525 201 l 1
 826 1062 l 1
 1006 1062 l 1
 602 -1 l 1
 583 -181 532 -422 239 -422 c 0
 197 -422 157 -421 127 -409 c 1
EndSplineSet
EndChar

StartChar: z
Encoding: 122 122 94
Width: 1024
Flags: W
HStem: 0 155<262 980> 916 146<60 716>
DStem2: 40 155 262 155 0.669558 0.74276<148.642 1017.86>
LayerCount: 2
Fore
SplineSet
40 0 m 1
 40 155 l 1
 716 916 l 1
 60 916 l 1
 60 1062 l 1
 948 1062 l 1
 948 916 l 1
 262 155 l 1
 980 155 l 1
 980 0 l 1
 40 0 l 1
EndSplineSet
EndChar

StartChar: braceleft
Encoding: 123 123 95
Width: 684
Flags: W
HStem: -431 157<469.541 636> 449 163<57 181.473> 1334 157<469.541 636>
VStem: 264 169<-239.545 366.605 700.295 1302.08>
LayerCount: 2
Fore
SplineSet
57 612 m 5
 251 634 264 757 264 998 c 4
 264 1335 280 1491 580 1491 c 6
 636 1491 l 5
 636 1334 l 5
 605 1334 l 6
 450 1334 430 1330 430 975 c 4
 430 685 384 620 224 530 c 5
 391 454 432 344 433 80 c 5
 442 -181 400 -274 605 -274 c 6
 636 -274 l 5
 636 -431 l 5
 580 -431 l 6
 280 -431 264 -262 264 49 c 4
 264 315 257 423 57 449 c 5
 57 612 l 5
EndSplineSet
EndChar

StartChar: bar
Encoding: 124 124 96
Width: 532
Flags: W
VStem: 188 157<-431 1491>
LayerCount: 2
Fore
SplineSet
188 -431 m 1
 188 1491 l 1
 345 1491 l 1
 345 -431 l 1
 188 -431 l 1
EndSplineSet
EndChar

StartChar: braceright
Encoding: 125 125 97
Width: 684
Flags: W
HStem: -431 157<78 213.459> 449 163<501.527 626> 1334 157<78 213.459>
VStem: 250 169<-239.545 366.605 700.295 1302.08>
LayerCount: 2
Fore
SplineSet
626 612 m 1
 432 634 419 757 419 998 c 0
 419 1335 403 1491 103 1491 c 2
 47 1491 l 1
 47 1334 l 1
 78 1334 l 2
 233 1334 253 1330 253 975 c 0
 253 685 299 620 459 530 c 1
 292 454 251 344 250 80 c 1
 241 -181 283 -274 78 -274 c 2
 47 -274 l 1
 47 -431 l 1
 103 -431 l 2
 403 -431 419 -262 419 49 c 0
 419 315 426 423 626 449 c 1
 626 612 l 1
EndSplineSet
EndChar

StartChar: asciitilde
Encoding: 126 126 98
Width: 1196
Flags: W
HStem: 559 189<688.953 994.271> 693 189<197.32 520.352>
LayerCount: 2
Fore
SplineSet
348 693 m 0x40
 246 693 178 645 87 557 c 1
 87 762 l 1
 158 842 250 882 365 882 c 0x40
 559 882 716 748 852 748 c 0
 955 748 1055 826 1110 885 c 1
 1110 673 l 1
 1025 594 944 559 833 559 c 0x80
 635 559 510 693 348 693 c 0x40
EndSplineSet
EndChar

StartChar: exclamdown
Encoding: 161 161 100
Width: 680
Flags: W
HStem: 0 21G<228 452> 1059 20G<255.481 422.556> 1278 211<238 442>
VStem: 238 204<0 233.927 1278 1489> 256 166<563.382 1079>
LayerCount: 2
Fore
SplineSet
442 1278 m 1xf0
 238 1278 l 1
 238 1489 l 1
 442 1489 l 1
 442 1278 l 1xf0
452 0 m 1
 228 0 l 1
 256 1079 l 1
 422 1079 l 1xe8
 452 0 l 1
EndSplineSet
EndChar

StartChar: cent
Encoding: 162 162 101
Width: 1118
Flags: W
HStem: 1 140<463.918 557 671 817.396> 971 144<458.723 557> 1455 20G<557 671>
VStem: 114 193<320.266 797.956> 557 114<-361 1 146 971 1116 1475>
LayerCount: 2
Fore
SplineSet
975 83 m 1
 807 5 714 3 671 1 c 1
 671 -361 l 1
 557 -361 l 1
 557 2 l 1
 256 38 114 249 114 557 c 0
 114 878 281 1083 557 1115 c 1
 557 1475 l 1
 671 1475 l 1
 671 1116 l 1
 794 1112 903 1074 975 1037 c 1
 975 837 l 1
 965 837 l 1
 820 958 713 971 671 977 c 1
 671 141 l 1
 704 144 821 159 965 281 c 1
 975 281 l 1
 975 83 l 1
557 971 m 1
 494 960 307 907 307 557 c 0
 307 209 495 157 557 146 c 1
 557 971 l 1
EndSplineSet
EndChar

StartChar: sterling
Encoding: 163 163 102
Width: 1118
Flags: W
HStem: 0 207<89 174.079> 0 171<261 1031> 613 138<130 291 483 847> 1264 206<915.215 1001> 1351 167<577.589 914.887>
VStem: 291 192<367.797 613 751 1244.02>
LayerCount: 2
Fore
SplineSet
483 552 m 2x2c
 483 330 322 218 261 182 c 1
 261 171 l 1
 1031 171 l 1
 1031 0 l 1x6c
 89 0 l 1
 89 207 l 1
 253 256 291 398 291 613 c 1
 130 613 l 1
 130 751 l 1
 291 751 l 1
 291 1071 l 2
 291 1340 459 1518 708 1518 c 0xac
 789 1518 838 1516 1001 1470 c 1
 1001 1264 l 1
 991 1264 l 1x34
 903 1325 806 1351 727 1351 c 0
 553 1351 483 1232 483 1052 c 2
 483 751 l 1
 847 751 l 1
 847 613 l 1
 483 613 l 1
 483 552 l 2x2c
EndSplineSet
EndChar

StartChar: currency
Encoding: 164 164 103
Width: 1118
Flags: W
HStem: 326 138<439.532 679.685> 858 138<439.795 680.151>
VStem: 225 143<534.792 785.003> 752 144<536.797 787.234>
DStem2: 172 1157 65 1051 0.707506 -0.706707<0 314.361 937.953 1251.49> 65 273 170 164 0.706708 0.707505<0 313.918 936.496 1249.46>
LayerCount: 2
Fore
SplineSet
896 661 m 0
 896 608 881 545 843 486 c 1
 1057 272 l 1
 951 166 l 1
 737 378 l 1
 674 340 631 326 560 326 c 0
 490 326 426 353 385 379 c 1
 170 164 l 1
 65 273 l 1
 277 486 l 1
 240 546 225 613 225 661 c 0
 225 730 249 788 278 835 c 1
 65 1051 l 1
 172 1157 l 1
 386 944 l 1
 445 982 508 996 560 996 c 0
 630 996 692 971 736 945 c 1
 948 1157 l 1
 1057 1052 l 1
 843 836 l 1
 878 780 896 731 896 661 c 0
560 464 m 0
 660 464 752 547 752 661 c 0
 752 772 663 858 560 858 c 0
 460 858 368 775 368 661 c 0
 368 550 457 464 560 464 c 0
EndSplineSet
EndChar

StartChar: yen
Encoding: 165 165 104
Width: 1118
Flags: W
HStem: 0 21G<465 653> 440 138<125 465 653 993>
VStem: 465 188<0 440 578 657>
DStem2: 266 1489 56 1489 0.442898 -0.896572<0 703.122> 560 850 651 678 0.449415 0.893323<0 704.759>
LayerCount: 2
Fore
SplineSet
1059 1489 m 1
 651 678 l 1
 651 578 l 1
 993 578 l 1
 993 440 l 1
 653 440 l 1
 653 0 l 1
 465 0 l 1
 465 440 l 1
 125 440 l 1
 125 578 l 1
 467 578 l 1
 467 657 l 1
 56 1489 l 1
 266 1489 l 1
 560 850 l 1
 858 1489 l 1
 1059 1489 l 1
EndSplineSet
EndChar

StartChar: brokenbar
Encoding: 166 166 105
Width: 783
Flags: W
VStem: 308 167<-392 406 758 1556>
LayerCount: 2
Fore
SplineSet
475 758 m 1
 308 758 l 1
 308 1556 l 1
 475 1556 l 1
 475 758 l 1
475 -392 m 1
 308 -392 l 1
 308 406 l 1
 475 406 l 1
 475 -392 l 1
EndSplineSet
EndChar

StartChar: section
Encoding: 167 167 106
Width: 1118
Flags: W
HStem: -385 165<278.47 689.964> -327 194<172 280.439> 1268 194<839.849 946> 1355 164<421.235 840.16>
VStem: 119 189<446.034 702.495> 148 192<1053.55 1281.3> 776 193<-147.719 83.4846> 810 188<430.026 688.913>
DStem2: 492 369 460 192 0.955543 -0.294853<-174.549 214.46>
LayerCount: 2
Fore
SplineSet
667 315 m 1x09
 700 335 810 411 810 555 c 0
 810 711 707 745 549 788 c 1
 450 819 l 1
 324 741 308 624 308 579 c 0
 308 444 385 402 492 369 c 2
 667 315 l 1x09
490 -385 m 0x92
 368 -385 263 -360 172 -327 c 1
 172 -133 l 1
 182 -133 l 1x42
 245 -166 370 -220 509 -220 c 0
 618 -220 776 -183 776 -36 c 0
 776 76 711 121 594 154 c 2
 460 192 l 2
 287 242 119 308 119 533 c 0x8a
 119 611 144 752 318 858 c 1
 318 865 l 1
 249 902 148 978 148 1147 c 0
 148 1320 268 1519 628 1519 c 0x94
 755 1519 848 1497 946 1462 c 1
 946 1268 l 1
 936 1268 l 1x24
 765 1354 660 1355 607 1355 c 0
 470 1355 340 1302 340 1176 c 0
 340 1036 430 1000 657 942 c 1
 863 887 998 805 998 601 c 0x15
 998 516 973 381 799 277 c 1
 799 270 l 1
 872 231 969 158 969 -10 c 0
 969 -160 866 -385 490 -385 c 0x92
EndSplineSet
EndChar

StartChar: dieresis
Encoding: 168 168 107
Width: 1118
Flags: W
HStem: 1304 195<253 454 666 867>
VStem: 253 201<1304 1499> 666 201<1304 1499>
LayerCount: 2
Fore
SplineSet
867 1304 m 1
 666 1304 l 1
 666 1499 l 1
 867 1499 l 1
 867 1304 l 1
454 1304 m 1
 253 1304 l 1
 253 1499 l 1
 454 1499 l 1
 454 1304 l 1
EndSplineSet
EndChar

StartChar: copyright
Encoding: 169 169 108
Width: 1902
Flags: W
HStem: -210 110<697.445 1205.56> 180 147<833.888 1160.54> 255 179<1198.62 1274> 889 181<1197.94 1274> 996 147<831.454 1159.17> 1409 110<697.445 1205.56>
VStem: 86 117<390.494 919.32> 531 185<454.683 870.14> 1701 115<390.494 919.32>
LayerCount: 2
Fore
SplineSet
1816 655 m 0x8780
 1816 416 1732 212 1562 44 c 1
 1394 -126 1190 -210 951 -210 c 0
 712 -210 508 -126 340 44 c 1
 170 212 86 416 86 655 c 0
 86 894 170 1097 340 1266 c 1
 508 1435 712 1519 951 1519 c 0
 1190 1519 1394 1435 1562 1266 c 1
 1732 1097 1816 894 1816 655 c 0x8780
1701 655 m 0
 1701 864 1628 1042 1482 1188 c 0
 1335 1336 1159 1409 952 1409 c 0
 745 1409 569 1336 422 1188 c 0
 276 1042 203 864 203 655 c 0
 203 446 276 268 422 121 c 0
 569 -26 745 -100 952 -100 c 0
 1159 -100 1335 -26 1482 121 c 0
 1628 268 1701 446 1701 655 c 0
986 327 m 0xcf80
 1124 327 1238 416 1258 434 c 1
 1274 434 l 1
 1274 255 l 1xa780
 1136 194 1076 180 982 180 c 0
 781 180 531 276 531 660 c 0
 531 973 718 1143 982 1143 c 0xcf80
 1099 1143 1202 1106 1274 1070 c 1
 1274 889 l 1
 1258 889 l 1x9780
 1203 937 1095 996 986 996 c 0
 878 996 716 948 716 660 c 0
 716 375 878 327 986 327 c 0xcf80
EndSplineSet
EndChar

StartChar: ordfeminine
Encoding: 170 170 109
Width: 1010
Flags: W
HStem: 541 155<326.931 602.482> 1045 139<397.349 708> 1304 170<189 346.559> 1365 154<252.956 663.108>
VStem: 114 172<736.89 960.686> 708 166<566 657 768.734 1045 1184 1319.56>
LayerCount: 2
Fore
SplineSet
483 1519 m 0xdc
 778 1519 874 1389 874 1194 c 2
 874 566 l 1
 708 566 l 1
 708 657 l 1
 657 618 l 1
 559 548 472 541 404 541 c 0
 238 541 114 662 114 839 c 0
 114 1115 340 1166 708 1184 c 1
 708 1203 l 2
 708 1333 631 1365 482 1365 c 0xdc
 425 1365 368 1361 204 1304 c 1
 189 1304 l 1
 189 1474 l 1xec
 221 1484 365 1519 483 1519 c 0xdc
461 696 m 0
 509 696 586 702 708 802 c 1
 708 1045 l 1
 500 1030 286 1031 286 849 c 0
 286 770 323 696 461 696 c 0
EndSplineSet
EndChar

StartChar: guillemotleft
Encoding: 171 171 110
Width: 1174
Flags: W
HStem: 1122 20G<590.079 613>
DStem2: 103 697 282 652 0.753491 0.657458<105.289 547.988> 282 652 103 608 0.75276 -0.658296<0 442.702> 555 695 726 652 0.759476 0.650535<101.897 520.247> 726 652 555 610 0.758708 -0.651431<0 418.351>
LayerCount: 2
Fore
SplineSet
1043 191 m 1
 555 610 l 1
 555 695 l 1
 1043 1113 l 1
 1043 925 l 1
 726 652 l 1
 1043 379 l 1
 1043 191 l 1
613 162 m 1
 103 608 l 1
 103 697 l 1
 613 1142 l 1
 613 946 l 1
 282 652 l 1
 613 358 l 1
 613 162 l 1
EndSplineSet
EndChar

StartChar: logicalnot
Encoding: 172 172 111
Width: 1490
Flags: W
HStem: 602 160<157 1152>
VStem: 1152 171<57 602>
LayerCount: 2
Fore
SplineSet
1323 57 m 1
 1152 57 l 1
 1152 602 l 1
 157 602 l 1
 157 762 l 1
 1323 762 l 1
 1323 57 l 1
EndSplineSet
EndChar

StartChar: registered
Encoding: 174 174 113
Width: 1902
Flags: W
HStem: -210 110<697.445 1205.56> 570 126<815 938> 1005 125<815 1088.79> 1409 110<697.445 1205.56>
VStem: 86 117<390.494 919.32> 650 165<215 570 696 1005> 1120 182<743.168 969.525> 1701 115<390.494 919.32>
DStem2: 1102 615 938 570 0.65421 -0.756313<0 380.376>
LayerCount: 2
Fore
SplineSet
1816 655 m 0
 1816 416 1732 212 1562 44 c 1
 1394 -126 1190 -210 951 -210 c 0
 712 -210 508 -126 340 44 c 1
 170 212 86 416 86 655 c 0
 86 894 170 1097 340 1266 c 1
 508 1435 712 1519 951 1519 c 0
 1190 1519 1394 1435 1562 1266 c 1
 1732 1097 1816 894 1816 655 c 0
1701 655 m 0
 1701 864 1628 1042 1482 1188 c 0
 1335 1336 1159 1409 952 1409 c 0
 745 1409 569 1336 422 1188 c 0
 276 1042 203 864 203 655 c 0
 203 446 276 268 422 121 c 0
 569 -26 745 -100 952 -100 c 0
 1159 -100 1335 -26 1482 121 c 0
 1628 268 1701 446 1701 655 c 0
1302 879 m 0
 1302 773 1253 676 1102 615 c 1
 1448 215 l 1
 1221 215 l 1
 938 570 l 1
 815 570 l 1
 815 215 l 1
 650 215 l 1
 650 1130 l 1
 929 1130 l 2
 1006 1130 1302 1146 1302 879 c 0
913 696 m 2
 1074 696 1120 765 1120 868 c 0
 1120 991 1024 1005 930 1005 c 2
 815 1005 l 1
 815 696 l 1
 913 696 l 2
EndSplineSet
EndChar

StartChar: macron
Encoding: 175 175 114
Width: 1118
Flags: W
HStem: 1659 130<-16 1134>
LayerCount: 2
Fore
SplineSet
1134 1659 m 1
 -16 1659 l 1
 -16 1789 l 1
 1134 1789 l 1
 1134 1659 l 1
EndSplineSet
EndChar

StartChar: degree
Encoding: 176 176 115
Width: 964
Flags: W
HStem: 755 152<349.969 615.091> 1363 152<347.406 615.305>
VStem: 101 157<999.256 1270.4> 706 157<998.49 1272.1>
LayerCount: 2
Fore
SplineSet
482 1515 m 4
 695 1515 863 1354 863 1135 c 4
 863 917 695 755 482 755 c 4
 270 755 101 914 101 1135 c 4
 101 1353 269 1515 482 1515 c 4
482 907 m 4
 616 907 706 1013 706 1135 c 4
 706 1269 607 1363 482 1363 c 4
 351 1363 258 1262 258 1135 c 4
 258 999 362 907 482 907 c 4
EndSplineSet
EndChar

StartChar: plusminus
Encoding: 177 177 116
Width: 1490
Flags: W
HStem: 159 158<162 662 828 1328> 739 158<162 662 828 1328>
VStem: 662 166<317 739 897 1402>
LayerCount: 2
Fore
SplineSet
1328 159 m 1
 162 159 l 1
 162 317 l 1
 662 317 l 1
 662 739 l 1
 162 739 l 1
 162 897 l 1
 662 897 l 1
 662 1402 l 1
 828 1402 l 1
 828 897 l 1
 1328 897 l 1
 1328 739 l 1
 828 739 l 1
 828 317 l 1
 1328 317 l 1
 1328 159 l 1
EndSplineSet
EndChar

StartChar: uni00B2
Encoding: 178 178 117
Width: 1010
Flags: W
HStem: 566 140<387 819> 1394 124<401.49 629.082>
VStem: 207 146<1210 1344.01> 671 148<1123.1 1351.31>
LayerCount: 2
Back
SplineSet
481 1519 m 0xb0
 738 1519 804 1354 804 1239 c 0
 804 1064 684 945 496 802 c 1
 373 710 l 1
 866 710 l 1
 866 566 l 1
 185 566 l 1
 185 718 l 1
 332 832 l 2
 439 915 619 1055 619 1227 c 0
 619 1342 529 1371 457 1371 c 0xb0
 352 1371 247 1311 206 1279 c 1
 191 1279 l 1
 191 1458 l 1xd0
 268 1491 377 1519 481 1519 c 0xb0
EndSplineSet
Fore
SplineSet
516 1394 m 0
 408 1394 354 1324 353 1210 c 1
 207 1210 l 1
 207 1397 327 1518 518 1518 c 0
 686 1518 819 1416 819 1249 c 0
 819 1059 669 958 544 851 c 0
 486 801 428 764 387 706 c 1
 819 706 l 1
 819 566 l 1
 185 566 l 1
 185 702 283 814 423 931 c 0
 560 1046 671 1124 671 1252 c 0
 671 1334 604 1394 516 1394 c 0
EndSplineSet
EndChar

StartChar: uni00B3
Encoding: 179 179 118
Width: 1010
Flags: W
HStem: 559 136<373.977 609.434> 1008 118<405.413 573.86> 1383 135<380.208 594.328>
VStem: 184 145<739.984 864 1230 1330.59> 620 148<1170.29 1358.03> 661 152<746.051 970.128>
LayerCount: 2
Back
SplineSet
640 1047 m 1x2c
 741 1026 837 959 837 828 c 0
 837 714 768 542 474 542 c 0xaa
 394 542 290 553 184 600 c 1
 184 775 l 1
 201 775 l 1x62
 250 730 358 681 471 681 c 0
 552 681 665 710 665 826 c 0xa2
 665 937 591 968 474 968 c 2
 334 968 l 1
 334 1107 l 1
 459 1107 l 2
 564 1107 641 1152 641 1249 c 0
 641 1301 617 1380 472 1380 c 0xac
 371 1380 258 1322 216 1283 c 1
 199 1283 l 1
 199 1458 l 1x34
 280 1492 381 1519 492 1519 c 0
 737 1519 814 1378 814 1281 c 0
 814 1145 720 1082 640 1055 c 1
 640 1047 l 1x2c
EndSplineSet
Fore
SplineSet
488 1383 m 0xf8
 393 1383 352 1329 338 1230 c 1
 195 1230 l 1
 195 1395 317 1518 485 1518 c 0
 635 1518 768 1417 768 1265 c 0xf8
 768 1187 724 1119 667 1079 c 1
 761 1043 813 972 813 861 c 0
 813 685 671 559 490 559 c 0
 312 559 184 683 184 864 c 1
 329 864 l 1
 329 760 388 695 490 695 c 0
 588 695 661 761 661 858 c 0xf4
 661 953 602 1008 505 1008 c 0
 473 1008 434 1000 404 991 c 1
 404 1129 l 1
 418 1128 433 1126 447 1126 c 0
 545 1126 620 1185 620 1268 c 0
 620 1339 569 1383 488 1383 c 0xf8
EndSplineSet
EndChar

StartChar: acute
Encoding: 180 180 119
Width: 1118
Flags: W
HStem: 1194 374
VStem: 449 422
LayerCount: 2
Fore
SplineSet
871 1568 m 1
 598 1194 l 1
 449 1194 l 1
 628 1568 l 1
 871 1568 l 1
EndSplineSet
EndChar

StartChar: mu
Encoding: 181 181 120
Width: 1163
Flags: W
HStem: -17 181<419.54 742.443> 0 21G<855 1027>
VStem: 136 188<-412 115 233.712 1117> 839 188<233.712 1117> 855 172<0 116>
LayerCount: 2
Fore
SplineSet
578 164 m 0xa8
 690 164 769 199 839 275 c 1
 839 1117 l 1
 1027 1117 l 1xb0
 1027 0 l 1
 855 0 l 1x68
 855 116 l 1
 849 116 l 1
 739 0 661 -17 578 -17 c 0
 476 -17 418 11 324 115 c 1
 324 -412 l 1
 136 -412 l 1
 136 1117 l 1
 324 1117 l 1
 324 275 l 1
 388 199 474 164 578 164 c 0xa8
EndSplineSet
EndChar

StartChar: paragraph
Encoding: 182 182 121
Width: 1118
Flags: W
HStem: 1359 130<655 842>
VStem: 57 598<843.042 1261.05> 515 140<-363 593> 842 140<-363 1359>
LayerCount: 2
Fore
SplineSet
57 1050 m 4xd0
 57 1340 250 1489 560 1489 c 6
 982 1489 l 5
 982 -363 l 5
 842 -363 l 5
 842 1359 l 5
 655 1359 l 5
 655 -363 l 5
 515 -363 l 5
 515 593 l 5xb0
 240 599 57 775 57 1050 c 4xd0
EndSplineSet
EndChar

StartChar: periodcentered
Encoding: 183 183 122
Width: 724
Flags: W
HStem: 832 285<243 482>
VStem: 243 239<832 1117>
LayerCount: 2
Fore
SplineSet
482 832 m 1
 243 832 l 1
 243 1117 l 1
 482 1117 l 1
 482 832 l 1
EndSplineSet
EndChar

StartChar: cedilla
Encoding: 184 184 123
Width: 1118
Flags: W
HStem: -423 150<296.151 575.357> -399 160<289 437.658>
VStem: 614 159<-236.499 20>
LayerCount: 2
Fore
SplineSet
614 -107 m 0xa0
 614 -56 613 -69 610 20 c 1
 767 20 l 1
 770 -12 773 -61 773 -89 c 0
 773 -355 591 -423 466 -423 c 0xa0
 431 -423 357 -419 289 -399 c 1
 289 -239 l 1
 298 -239 l 1x60
 343 -259 390 -273 440 -273 c 0
 561 -273 614 -227 614 -107 c 0xa0
EndSplineSet
EndChar

StartChar: uni0E01
Encoding: 3585 3585 124
Width: 1240
Flags: W
HStem: 0 21G<188 348 922 1082> 1001 148<438.498 783.005>
VStem: 188 160<0 555.306> 922 160<0 857.379>
LayerCount: 2
Fore
SplineSet
1082 671 m 2
 1082 0 l 1
 922 0 l 1
 922 655 l 2
 922 882 804 1001 624 1001 c 0
 486 1001 377 944 296 823 c 1
 380 802 443 748 486 661 c 1
 394 596 348 496 348 361 c 2
 348 0 l 1
 188 0 l 1
 188 361 l 2
 188 492 231 595 316 669 c 1
 268 738 202 778 118 790 c 1
 215 1026 384 1149 624 1149 c 0
 932 1149 1082 968 1082 671 c 2
EndSplineSet
EndChar

StartChar: uni0E02
Encoding: 3586 3586 125
Width: 1400
Flags: W
HStem: 0 148<707 1057> 545 113<234.036 382.876> 823 102<323 382.919> 1001 148<347.793 601.675>
VStem: 96 130<666.026 815.003> 392 104<666.45 816.431> 547 160<148 697.748> 681 153<751.236 919.142> 1057 160<148 1139>
LayerCount: 2
Fore
SplineSet
307 658 m 0xfc80
 362 658 392 689 392 741 c 0
 392 790 362 823 313 823 c 0
 259 823 226 800 226 741 c 0
 226 692 252 658 307 658 c 0xfc80
96 797 m 0
 96 908 176 1149 460 1149 c 0
 619 1149 834 1076 834 771 c 1xfd80
 751 718 707 654 707 575 c 2
 707 148 l 1
 1057 148 l 1
 1057 1139 l 1
 1217 1139 l 1
 1217 0 l 1
 547 0 l 1
 547 575 l 2xfe80
 547 658 597 730 681 783 c 1xfd80
 681 873 636 1001 456 1001 c 0
 389 1001 345 973 323 925 c 1
 430 925 496 864 496 765 c 0
 496 616 432 545 298 545 c 0
 165 545 96 636 96 797 c 0
EndSplineSet
EndChar

StartChar: uni0E03
Encoding: 3587 3587 126
Width: 1450
Flags: W
HStem: 0 148<784 1134> 507 116<248.463 388.457> 790 104<301.886 389.869> 1130 9G<274.5 360 636.578 722.5 1134 1294>
VStem: 106 133<631.597 782.679> 398 104<630.734 783.303> 624 160<148 704.386> 756 156<783.375 931.969> 1134 160<148 1139>
LayerCount: 2
Fore
SplineSet
322 623 m 0xfc80
 370 623 398 666 398 712 c 0
 398 754 370 790 322 790 c 0
 265 790 239 758 239 706 c 0
 239 656 268 623 322 623 c 0xfc80
502 727 m 0
 502 581 432 507 303 507 c 0
 184 507 106 586 106 726 c 0
 106 930 189 1079 360 1150 c 1
 360 1149 413 1113 519 1041 c 1
 663 1150 l 1
 782 1130 912 966 912 807 c 0xfd80
 912 799 912 791 911 783 c 1
 826 721 784 656 784 587 c 2
 784 148 l 1
 1134 148 l 1
 1134 1139 l 1
 1294 1139 l 1
 1294 0 l 1
 624 0 l 1
 624 587 l 2xfe80
 624 670 667 738 756 798 c 1xfd80
 756 873 725 934 663 979 c 1
 663 978 615 946 519 881 c 1
 360 979 l 1
 329 958 310 927 301 886 c 1
 316 892 331 894 347 894 c 0
 440 894 502 836 502 727 c 0
EndSplineSet
EndChar

StartChar: uni0E04
Encoding: 3588 3588 127
Width: 1370
Flags: W
HStem: 0 21G<245 473.5 1035 1195> 342 118<664.518 813.2> 625 121<662.944 814.241> 1001 148<486.929 876.134>
VStem: 163 161<366.933 839.124> 245 210<0 182.152> 822 98<470.909 617.527> 1035 160<0 840.066>
LayerCount: 2
Fore
SplineSet
720 746 m 0xfb
 880 746 920 644 920 553 c 0
 920 405 823 342 734 342 c 0
 673 342 614 372 589 424 c 1
 536 319 492 177 455 0 c 1
 245 0 l 1
 245 108 l 2xf7
 245 314 163 447 163 673 c 0
 163 970 335 1149 676 1149 c 0
 1018 1149 1195 974 1195 651 c 2
 1195 0 l 1
 1035 0 l 1
 1035 650 l 2
 1035 862 918 1001 681 1001 c 0
 442 1001 324 863 324 646 c 0
 324 529 345 399 380 256 c 1
 443 700 651 746 720 746 c 0xfb
737 460 m 0
 794 460 822 500 822 543 c 0
 822 588 794 625 743 625 c 0
 689 625 656 596 656 543 c 0
 656 494 686 460 737 460 c 0
EndSplineSet
EndChar

StartChar: uni0E05
Encoding: 3589 3589 128
Width: 1370
Flags: W
HStem: 0 21G<235 463.5 1025 1185> 342 118<654.703 803.692> 625 121<655.351 802.497> 1129 20G<386.5 530.926 814.727 955.5>
VStem: 153 161<359.384 849.379> 235 210<0 182.485> 812 98<468.291 616.883> 1025 160<0 851.733>
LayerCount: 2
Fore
SplineSet
235 108 m 2xf7
 235 255 153 484 153 683 c 0
 153 938 271 1094 502 1149 c 1
 677 1028 l 1
 842 1149 l 1
 1069 1091 1185 928 1185 661 c 2
 1185 0 l 1
 1025 0 l 1
 1025 660 l 2
 1025 826 961 933 833 981 c 1
 682 868 l 1
 519 981 l 1
 382 932 314 824 314 656 c 0xfb
 314 533 335 399 370 256 c 1
 434 703 644 746 712 746 c 0
 838 746 910 674 910 553 c 0
 910 407 814 342 724 342 c 0
 663 342 604 371 579 424 c 1
 526 319 482 177 445 0 c 1
 235 0 l 1
 235 108 l 2xf7
727 460 m 0
 778 460 812 491 812 543 c 0
 812 590 782 625 733 625 c 0
 679 625 646 586 646 543 c 0
 646 494 678 460 727 460 c 0
EndSplineSet
EndChar

StartChar: uni0E06
Encoding: 3590 3590 129
Width: 1520
Flags: W
HStem: -10 119<550.807 687.134> 328 118<568.661 635> 508 112<254.069 399.199> 789 99<313.19 400.952> 1129 10G<294.5 400.444 647.333 756.5 1205 1365>
VStem: 113 131<628.014 777.076> 408 110<629.687 780.237> 434 108<110.749 309.276> 635 160<109.438 243 446 710.951> 760 162<773.627 940.62> 1205 160<166 1139>
DStem2: 795 409 795 243 0.860257 -0.50986<84.6367 476.602>
LayerCount: 2
Fore
SplineSet
324 620 m 0xfe20
 380 620 408 656 408 712 c 0
 408 748 382 789 328 789 c 0
 276 789 244 756 244 708 c 0
 244 663 268 620 324 620 c 0xfe20
795 146 m 2xfca0
 795 42 740 -10 632 -10 c 0
 516 -10 434 85 434 218 c 0
 434 316 492 446 635 446 c 1
 635 587 l 2xfda0
 635 668 677 743 760 814 c 1
 760 887 731 942 674 979 c 1
 530 881 l 1
 371 979 l 1
 342 961 322 930 312 886 c 1
 322 887 332 888 342 888 c 0
 435 888 518 824 518 712 c 0
 518 596 464 508 325 508 c 0
 190 508 113 604 113 765 c 0
 113 945 218 1084 371 1149 c 1
 530 1041 l 1
 674 1149 l 1
 839 1074 922 952 922 783 c 1xfe60
 837 728 795 663 795 587 c 2
 795 409 l 1
 1205 166 l 1
 1205 1139 l 1
 1365 1139 l 1
 1365 0 l 1
 1205 0 l 1
 795 243 l 1
 795 146 l 2xfca0
635 328 m 1
 571 328 542 253 542 202 c 0
 542 139 571 109 596 109 c 0
 619 109 635 128 635 166 c 2
 635 328 l 1
EndSplineSet
EndChar

StartChar: uni0E07
Encoding: 3591 3591 130
Width: 1000
Flags: W
HStem: -10 149<437.095 665.513> 741 113<550.042 692.534> 1021 129<547.514 693.711>
VStem: 439 100<862.826 1012.07> 695 160<169.46 770 859.428 1012.46>
DStem2: 326 640 145 719 0.180434 -0.983587<0 486.999>
LayerCount: 2
Fore
SplineSet
855 272 m 2
 855 85 754 -10 553 -10 c 0
 374 -10 265 84 227 272 c 1
 145 719 l 1
 326 640 l 1
 388 272 l 1
 410 187 464 139 553 139 c 0
 648 139 695 188 695 272 c 2
 695 770 l 1
 679 751 648 741 605 741 c 0
 501 741 439 814 439 935 c 0
 439 1059 520 1150 651 1150 c 0
 780 1150 855 1050 855 881 c 2
 855 272 l 2
620 854 m 0
 672 854 703 894 703 944 c 0
 703 991 668 1021 623 1021 c 0
 573 1021 539 990 539 940 c 0
 539 895 572 854 620 854 c 0
EndSplineSet
EndChar

StartChar: uni0E08
Encoding: 3592 3592 131
Width: 1200
Flags: W
HStem: -10 148<653.365 843.321> 345 110<327.984 468.509> 623 130<327.564 474.708> 1001 148<360.521 741.653>
VStem: 214 105<461.338 613.736> 469 160<161.889 373 458.82 616.734> 868 160<166.659 874.924>
LayerCount: 2
Fore
SplineSet
629 283 m 2
 629 189 669 138 748 138 c 0
 828 138 868 187 868 279 c 2
 868 715 l 2
 868 886 753 1001 573 1001 c 0
 424 1001 295 944 186 843 c 1
 96 912 l 1
 232 1067 391 1149 573 1149 c 0
 860 1149 1028 1003 1028 740 c 2
 1028 279 l 2
 1028 87 935 -10 748 -10 c 0
 562 -10 469 88 469 283 c 2
 469 373 l 1
 457 357 432 345 393 345 c 0
 296 345 214 418 214 537 c 0
 214 672 296 753 426 753 c 0
 561 753 629 671 629 512 c 2
 629 283 l 2
391 455 m 0
 451 455 483 486 483 546 c 0
 483 588 452 623 403 623 c 0
 353 623 319 592 319 542 c 0
 319 497 348 455 391 455 c 0
EndSplineSet
EndChar

StartChar: uni0E09
Encoding: 3593 3593 132
Width: 1395
Flags: W
HStem: -10 113<1097.03 1187.71> 328 118<1104 1171.57> 362 111<259.167 398.372> 641 130<256.803 404.616> 1001 148<434.727 817.565>
VStem: 146 103<480.57 633.792> 399 160<176 391 476.82 635.662> 944 160<107.64 227 438.744 875.406> 1197 108<105.901 304.253>
DStem2: 559 176 559 0 0.855526 0.51776<0 356.639>
AnchorPoint: "AboveBase" 1083 1227 basechar 0
LayerCount: 2
Fore
SplineSet
1103 -10 m 0xdf80
 1008 -10 945 58 945 227 c 1
 559 0 l 1
 399 0 l 1
 399 391 l 1
 381 369 360 362 324 362 c 0xbf80
 208 362 146 446 146 571 c 0
 146 704 234 771 356 771 c 0
 491 771 559 676 559 502 c 2
 559 176 l 1
 944 409 l 1
 944 715 l 2
 944 889 838 1001 634 1001 c 0
 501 1001 377 945 262 843 c 1
 172 912 l 1
 309 1069 463 1149 634 1149 c 0
 938 1149 1104 1003 1104 740 c 2
 1104 446 l 1
 1236 431 1305 351 1305 205 c 0
 1305 66 1235 -10 1103 -10 c 0xdf80
1095 328 m 1xdf80
 1095 156 l 2
 1095 122 1114 103 1143 103 c 0
 1176 103 1197 141 1197 202 c 0
 1197 278 1163 317 1095 328 c 1xdf80
321 473 m 0xbf80
 381 473 413 504 413 564 c 0
 413 611 376 641 333 641 c 0
 283 641 249 614 249 560 c 0
 249 515 280 473 321 473 c 0xbf80
EndSplineSet
EndChar

StartChar: uni0E0A
Encoding: 3594 3594 133
Width: 1390
Flags: W
HStem: 0 148<742 1048> 545 113<271.036 420.494> 823 102<360 419.919> 1001 148<386.14 623.802>
VStem: 133 130<666.026 815.259> 429 104<665.179 815.509> 582 160<148 694.44> 1048 160<148 677.745> 1137 166<1051.1 1188>
LayerCount: 2
Fore
SplineSet
133 797 m 0xff
 133 912 206 1149 497 1149 c 0
 648 1149 769 1072 841 921 c 1
 1038 972 1137 1052 1137 1163 c 2
 1137 1188 l 1
 1303 1188 l 1
 1303 1161 l 2xfe80
 1303 1020 1198 905 1015 858 c 1
 1127 811 1208 692 1208 589 c 2
 1208 0 l 1
 582 0 l 1
 582 575 l 2
 582 655 625 726 711 789 c 1
 688 918 606 1001 512 1001 c 0
 445 1001 382 968 360 925 c 1
 467 925 533 870 533 765 c 0
 533 622 472 545 335 545 c 0
 202 545 133 636 133 797 c 0xff
742 572 m 2
 742 148 l 1
 1048 148 l 1
 1048 578 l 2xff
 1048 644 973 738 870 768 c 1
 786 715 742 650 742 572 c 2
344 658 m 0
 399 658 429 689 429 741 c 0
 429 790 399 823 350 823 c 0
 296 823 263 800 263 741 c 0
 263 692 289 658 344 658 c 0
EndSplineSet
EndChar

StartChar: uni0E0B
Encoding: 3595 3595 134
Width: 1390
Flags: W
HStem: 0 148<747 1053> 507 116<207.904 356.457> 790 104<269.714 358.907> 1130 20G<245.5 331 605.945 683>
VStem: 70 129<633.363 776.258> 366 104<630.734 782.375> 587 160<148 694.13> 1053 160<148 684.692> 1141 166<1041.87 1188>
LayerCount: 2
Fore
SplineSet
290 623 m 0xfe
 338 623 366 666 366 712 c 0
 366 754 338 790 290 790 c 0
 233 790 199 752 199 704 c 0
 199 656 236 623 290 623 c 0xfe
470 727 m 0
 470 581 400 507 271 507 c 0
 165 507 70 600 70 726 c 0
 70 930 160 1079 331 1150 c 1
 331 1149 384 1113 490 1041 c 1
 632 1150 l 1
 734 1116 805 1039 845 921 c 1
 1042 957 1141 1040 1141 1163 c 2
 1141 1188 l 1
 1307 1188 l 1
 1307 1164 l 2xfe80
 1307 1024 1201 908 1018 861 c 1
 1130 814 1213 696 1213 592 c 2
 1213 0 l 1xff
 587 0 l 1
 587 575 l 2
 587 646 631 713 718 776 c 1
 718 868 700 928 632 979 c 1
 490 881 l 1
 328 979 l 1
 297 958 278 927 269 886 c 1
 284 892 299 894 315 894 c 0
 403 894 470 831 470 727 c 0
1053 581 m 2xff
 1053 660 976 741 873 771 c 1
 789 718 747 653 747 575 c 2
 747 148 l 1
 1053 148 l 1
 1053 581 l 2xff
EndSplineSet
EndChar

StartChar: uni0E0C
Encoding: 3596 3596 135
Width: 1750
Flags: W
HStem: -11 116<344.394 486.755 839.304 974.777> 273 124<351.386 490.198> 328 118<849.084 925> 1001 148<437.342 795.961>
VStem: 191 160<369 560.709> 191 142<113.69 264.002> 497 107<115.493 265.717> 724 108<110.882 312.531> 925 160<112.309 243 439.977 868.192> 1495 160<176 1139>
DStem2: 1085 409 1085 243 0.860257 -0.50986<84.6367 471.503>
LayerCount: 2
Fore
SplineSet
925 657 m 2xbbc0
 925 878 831 1001 628 1001 c 0
 482 1001 373 940 300 825 c 1
 379 808 442 754 489 663 c 1
 397 592 351 505 351 403 c 2
 351 369 l 1xbbc0
 367 387 392 397 427 397 c 0
 553 397 604 321 604 213 c 0
 604 44 521 -11 394 -11 c 0
 259 -11 191 86 191 258 c 2xd7c0
 191 403 l 2
 191 508 234 598 320 671 c 1
 293 730 227 770 122 792 c 1
 227 1030 396 1149 628 1149 c 0
 927 1149 1085 986 1085 673 c 2
 1085 409 l 1
 1495 176 l 1
 1495 1139 l 1
 1655 1139 l 1
 1655 0 l 1
 1495 0 l 1
 1085 243 l 1
 1085 146 l 2
 1085 52 1026 -10 926 -10 c 0
 797 -10 724 65 724 205 c 0
 724 357 797 435 925 446 c 1
 925 657 l 2xbbc0
925 328 m 1
 862 328 832 279 832 208 c 0
 832 145 847 109 882 109 c 0
 914 109 925 130 925 172 c 2
 925 328 l 1
405 105 m 0
 468 105 497 136 497 196 c 0
 497 236 468 273 417 273 c 0
 367 273 333 236 333 192 c 0xd7c0
 333 147 364 105 405 105 c 0
EndSplineSet
EndChar

StartChar: uni0E0D
Encoding: 3597 3597 136
Width: 1745
Flags: W
HStem: -466 118<1170.15 1375.99> -143 82<1003.74 1136.81> -11 116<311.96 453.982> 0 148<1053 1463> 273 124<319.386 458.247> 1001 148<405.342 760.823>
VStem: 159 160<369 560.709> 159 142<113.69 265.117> 465 107<115.687 265.832> 893 160<148 856.737> 900 98<-280.84 -147.868> 1144 88<-282.638 -149.038> 1463 160<148 1139> 1499 116<-207.363 -65>
LayerCount: 2
Fore
SplineSet
893 657 m 2xded8
 893 878 784 1001 596 1001 c 0
 450 1001 341 940 268 825 c 1
 347 808 410 754 457 663 c 1
 365 592 319 505 319 403 c 2
 319 369 l 1xded8
 335 387 360 397 395 397 c 0
 521 397 572 320 572 196 c 0
 572 60 489 -11 362 -11 c 0
 227 -11 159 86 159 258 c 2xed90
 159 403 l 2
 159 508 202 598 288 671 c 1
 261 730 195 770 90 792 c 1
 195 1030 364 1149 596 1149 c 0
 896 1149 1053 986 1053 673 c 2
 1053 148 l 1
 1463 148 l 1
 1463 1139 l 1
 1623 1139 l 1
 1623 0 l 1
 893 0 l 1
 893 657 l 2xded8
373 105 m 0xed90
 433 105 465 142 465 196 c 0
 465 243 432 273 385 273 c 0
 335 273 301 242 301 192 c 0
 301 147 328 105 373 105 c 0xed90
1071 -61 m 0
 1166 -61 1232 -126 1232 -214 c 0
 1232 -278 1215 -316 1167 -345 c 1
 1186 -347 1204 -348 1221 -348 c 0
 1378 -348 1470 -253 1499 -65 c 1
 1615 -65 l 1
 1606 -322 1462 -466 1206 -466 c 0
 1023 -466 900 -358 900 -248 c 0xccb4
 900 -130 957 -61 1071 -61 c 0
998 -215 m 0
 998 -257 1022 -287 1072 -287 c 0
 1122 -287 1144 -257 1144 -215 c 0
 1144 -170 1110 -143 1073 -143 c 0
 1026 -143 998 -166 998 -215 c 0
EndSplineSet
Substitution2: "Thai Descender Removal Single Substitution" uni0E0D.descless
EndChar

StartChar: uni0E0E
Encoding: 3598 3598 137
Width: 1375
Flags: W
HStem: -413 125<478.407 659.34> -112 104<518.821 731.972> -10 122<191.718 334.158> 280 119<190.637 330.035> 1002 148<586.245 929.143>
VStem: 76 105<121.056 269.934> 339 136<-282.124 -157.965> 345 145<124.898 274.016> 1064 160<-209 857.336>
AnchorPoint: "BelowBase" 1224 -453 basechar 0
LayerCount: 2
Fore
SplineSet
1064 -209 m 1xde80
 1064 658 l 2
 1064 875 956 1002 767 1002 c 0
 636 1002 527 943 439 826 c 1
 524 801 587 747 628 664 c 1
 536 591 490 505 490 404 c 2
 490 259 l 2
 490 84 420 -10 285 -10 c 0xbd80
 154 -10 76 59 76 198 c 0
 76 312 144 399 246 399 c 0
 283 399 311 389 330 370 c 1
 330 404 l 2
 330 516 374 603 459 672 c 1
 422 731 356 771 261 793 c 1
 365 1031 534 1150 767 1150 c 0
 1052 1150 1224 986 1224 674 c 2
 1224 -410 l 1
 1064 -410 l 1
 1001 -319 926 -248 839 -196 c 1
 769 -339 666 -413 530 -413 c 0
 404 -413 339 -360 339 -257 c 0
 339 -104 520 -8 647 -8 c 0
 692 -8 735 -18 774 -34 c 1
 867 140 l 1
 973 105 l 1
 882 -76 l 1
 945 -103 1006 -148 1064 -209 c 1xde80
547 -288 m 0
 616 -288 709 -224 733 -147 c 1
 701 -123 668 -112 634 -112 c 0
 568 -112 475 -168 475 -232 c 0xde80
 475 -272 514 -288 547 -288 c 0
253 112 m 0xbd80
 313 112 345 144 345 203 c 0
 345 246 319 280 265 280 c 0
 216 280 181 246 181 199 c 0
 181 154 216 112 253 112 c 0xbd80
EndSplineSet
EndChar

StartChar: uni0E0F
Encoding: 3599 3599 138
Width: 1375
Flags: W
HStem: -413 125<329.323 518.294> -121 112<372.682 587.243> -10 122<191.86 336.215> 280 120<189.791 330.316> 1002 148<586.419 930.131>
VStem: 79 104<118.99 271.25> 197 132<-285.292 -165.086> 330 160<370 567.615> 347 143<124.457 273.583> 1064 160<-209 856.932>
DStem2: 629 -34 737 -76 0.449187 0.893438<1.48863 197.233>
AnchorPoint: "BelowBase" 1224 -453 basechar 0
LayerCount: 2
Fore
SplineSet
1064 -209 m 1xdf40
 1064 658 l 2
 1064 863 963 1002 767 1002 c 0
 633 1002 524 941 439 826 c 1
 536 795 599 741 628 664 c 1
 536 601 490 514 490 404 c 2xdf40
 490 259 l 2
 490 83 422 -10 287 -10 c 0xbec0
 152 -10 79 68 79 221 c 0
 79 308 148 400 231 400 c 0
 277 400 310 393 330 370 c 1
 330 404 l 2
 330 518 374 607 459 672 c 1
 410 743 344 783 261 793 c 1
 370 1030 538 1150 767 1150 c 0
 1065 1150 1224 985 1224 674 c 2
 1224 -410 l 1
 1064 -410 l 1
 928 -252 l 1
 812 -362 l 1
 776 -287 735 -234 689 -203 c 1
 648 -328 520 -413 385 -413 c 0
 256 -413 197 -357 197 -257 c 0
 197 -118 348 -9 515 -9 c 0
 560 -9 598 -18 629 -34 c 1
 722 140 l 1
 828 105 l 1
 737 -76 l 1
 769 -97 794 -124 812 -156 c 1
 928 -38 l 1
 1064 -209 l 1xdf40
397 -288 m 0
 488 -288 574 -211 588 -147 c 1
 561 -130 531 -121 498 -121 c 0
 408 -121 329 -178 329 -248 c 0
 329 -284 371 -288 397 -288 c 0
255 112 m 0xbec0
 316 112 347 143 347 203 c 0
 347 248 320 280 267 280 c 0
 217 280 183 252 183 199 c 0
 183 154 208 112 255 112 c 0xbec0
EndSplineSet
EndChar

StartChar: uni0E10
Encoding: 3600 3600 139
Width: 1130
Flags: W
HStem: -532 71<157.686 334.6> -413 129<598.151 743.034> -347 75<177.469 384.354> -276 62<676.818 771.702> -102 68<677.177 780.639> -10 148<541.679 732.135> 290 113<211.744 357.112> 571 126<211.171 360.377> 917 148<776.668 978> 1001 148<391.181 771.364>
VStem: 64 92<-458.66 -366.237> 102 101<409.825 563.511> 357 160<161.889 317 408.083 567.049> 598 74<-211.245 -107.168> 757 160<166.258 603.384> 772 153<-530 -438.033 -329 -262 -213.983 -104.183>
LayerCount: 2
Fore
SplineSet
324 872 m 1x8f5e
 694 797 917 737 917 574 c 2
 917 279 l 2
 917 86 823 -10 637 -10 c 0
 450 -10 357 88 357 283 c 2
 357 317 l 1
 346 303 325 290 293 290 c 0
 174 290 102 353 102 481 c 0
 102 620 172 697 305 697 c 0
 442 697 517 601 517 428 c 2
 517 283 l 2
 517 188 557 138 637 138 c 0
 717 138 757 188 757 279 c 2
 757 529 l 2
 757 622 612 685 80 762 c 1
 163 1020 320 1149 549 1149 c 0x8f5e
 759 1149 826 1065 961 1065 c 0
 981 1065 1000 1067 1017 1072 c 1
 978 924 l 1
 964 922 949 917 934 917 c 0x8f9e
 794 917 754 1001 550 1001 c 0
 486 1001 379 989 324 872 c 1x8f5e
275 403 m 0
 335 403 367 434 367 494 c 0
 367 544 338 571 287 571 c 0
 237 571 203 544 203 490 c 0
 203 445 226 403 275 403 c 0
772 -329 m 1xcf2d
 772 -262 l 1
 762 -271 744 -276 718 -276 c 0
 646 -276 598 -226 598 -153 c 0
 598 -78 650 -34 743 -34 c 0
 864 -34 925 -97 925 -223 c 2
 925 -530 l 1
 775 -530 l 1
 754 -455 716 -413 674 -413 c 0xdf2d
 627 -413 589 -453 560 -529 c 1
 535 -463 504 -422 466 -406 c 1
 402 -490 320 -532 220 -532 c 0
 134 -532 64 -488 64 -425 c 0
 64 -328 162 -272 269 -272 c 0xaf2d
 312 -272 362 -280 418 -294 c 1
 470 -208 l 1
 558 -230 l 1
 502 -324 l 1
 529 -335 547 -349 558 -368 c 1
 603 -312 641 -284 674 -284 c 0
 715 -284 748 -299 772 -329 c 1xcf2d
731 -102 m 0
 698 -102 672 -124 672 -158 c 0
 672 -191 690 -214 729 -214 c 0
 764 -214 785 -191 785 -157 c 0
 785 -132 767 -102 731 -102 c 0
156 -437 m 0
 156 -448 194 -461 221 -461 c 0
 294 -461 371 -418 386 -362 c 1
 345 -352 309 -347 278 -347 c 0xaf2c
 198 -347 156 -388 156 -437 c 0
EndSplineSet
Substitution2: "Thai Descender Removal Single Substitution" uni0E10.descless
EndChar

StartChar: uni0E11
Encoding: 3601 3601 140
Width: 1700
Flags: W
HStem: 0 21G<636 848.083 1374 1534> 508 112<254.069 399.199> 789 99<313.19 400.952> 975 174<1263.33 1369.92>
VStem: 113 131<629.921 777.076> 408 110<629.687 780.237> 636 160<263 705.392> 1374 160<0 974.055>
DStem2: 796 263 839 0 0.4135 0.910504<0 865.657>
LayerCount: 2
Fore
SplineSet
324 620 m 0
 380 620 408 656 408 712 c 0
 408 748 382 789 328 789 c 0
 276 789 244 756 244 708 c 0
 244 664 268 620 324 620 c 0
530 1041 m 1
 674 1149 l 1
 823 1076 907 954 923 783 c 1
 839 727 796 656 796 587 c 2
 796 263 l 1
 1132 1003 l 1
 1173 1100 1241 1149 1338 1149 c 0
 1452 1149 1534 1067 1534 923 c 2
 1534 0 l 1
 1374 0 l 1
 1374 900 l 2
 1374 947 1356 975 1323 975 c 0
 1296 975 1272 954 1250 905 c 2
 839 0 l 1
 636 0 l 1
 636 587 l 2
 636 668 675 736 758 796 c 1
 755 872 727 933 674 979 c 1
 530 881 l 1
 371 979 l 1
 342 961 322 930 312 886 c 1
 322 887 332 888 342 888 c 0
 435 888 518 824 518 712 c 0
 518 596 464 508 325 508 c 0
 190 508 113 600 113 765 c 0
 113 945 218 1084 371 1149 c 1
 530 1041 l 1
EndSplineSet
EndChar

StartChar: uni0E12
Encoding: 3602 3602 141
Width: 1850
Flags: W
HStem: -10 113<905.571 1045.56> 357 97<466.646 541.469> 622 123<463.362 611.219> 1129 10G<359.5 507.276 786.172 928.5 1530 1690>
VStem: 121 162<400.455 858.633> 359 97<462.801 614.773> 620 119<466.106 614.779> 792 108<105.003 316.276> 993 160<103.827 243 433.196 884.486> 1530 160<160 1139>
DStem2: 1153 409 1153 243 0.834426 -0.55112<91.4859 451.807>
LayerCount: 2
Fore
SplineSet
500 357 m 0
 446 357 359 398 359 536 c 0
 359 668 444 745 553 745 c 0
 672 745 739 676 739 541 c 0
 739 348 622 167 389 0 c 1
 204 0 l 1
 204 108 l 1
 201 332 121 490 121 702 c 0
 121 915 240 1076 479 1149 c 1
 643 1033 l 1
 816 1149 l 1
 1041 1099 1153 942 1153 677 c 2
 1153 409 l 1
 1530 160 l 1
 1530 1139 l 1
 1690 1139 l 1
 1690 0 l 1
 1528 0 l 1
 1153 243 l 1
 1153 146 l 2
 1153 49 1099 -3 994 -10 c 1
 860 -9 792 62 792 205 c 0
 792 324 860 413 993 446 c 1
 993 734 l 1
 992 859 933 941 816 979 c 1
 643 863 l 1
 479 979 l 1
 355 933 283 831 283 697 c 0
 283 617 305 463 356 290 c 1
 373 197 l 1
 451 231 507 287 542 365 c 1
 529 360 514 357 500 357 c 0
993 328 m 1
 928 328 900 284 900 202 c 0
 900 145 911 103 954 103 c 0
 978 103 993 116 993 166 c 2
 993 328 l 1
528 454 m 0
 588 454 620 485 620 545 c 0
 620 588 588 622 540 622 c 0
 490 622 456 596 456 541 c 0
 456 496 492 454 528 454 c 0
EndSplineSet
EndChar

StartChar: uni0E13
Encoding: 3603 3603 142
Width: 1900
Flags: W
HStem: -11 114<343.71 490.232 1622.09 1705.97> 271 124<355.773 489.203> 328 118<1620 1693.86> 1001 148<441.544 799.792>
VStem: 195 160<369 562.508> 195 140<111.023 262.374> 499 105<114.002 262.147> 928 160<183 865.717> 1460 160<112.078 243 446 1139> 1714 108<111.031 309.86>
DStem2: 1088 183 1083 0 0.840526 0.541771<0 345.182>
AnchorPoint: "AboveBase" 1599 1227 basechar 0
LayerCount: 2
Fore
SplineSet
928 657 m 2xbbc0
 928 869 836 1001 631 1001 c 0
 484 1001 374 940 303 825 c 1
 374 810 437 756 492 663 c 1
 401 594 355 508 355 403 c 2
 355 369 l 1xbbc0
 376 386 401 395 430 395 c 0
 532 395 604 324 604 204 c 0
 604 36 533 -11 406 -11 c 0
 265 -11 195 80 195 258 c 2xd7c0
 195 403 l 2
 195 518 238 607 324 671 c 1
 269 738 203 779 126 792 c 1
 237 1030 404 1149 631 1149 c 0
 932 1149 1088 984 1088 673 c 2
 1088 183 l 1
 1460 409 l 1
 1460 1139 l 1
 1620 1139 l 1
 1620 446 l 1
 1755 441 1822 361 1822 205 c 0
 1822 64 1762 -9 1639 -9 c 0
 1520 -9 1460 63 1460 206 c 2
 1460 243 l 1
 1083 0 l 1
 928 0 l 1
 928 657 l 2xbbc0
1620 328 m 1
 1620 173 l 2
 1620 131 1628 109 1660 109 c 0
 1696 109 1714 147 1714 202 c 0
 1714 276 1688 321 1620 328 c 1
407 103 m 0
 468 103 499 134 499 194 c 0
 499 228 468 271 419 271 c 0
 369 271 335 236 335 190 c 0xd7c0
 335 145 357 103 407 103 c 0
EndSplineSet
EndChar

StartChar: uni0E14
Encoding: 3604 3604 143
Width: 1330
Flags: W
HStem: 0 21G<222 524 1011 1171> 362 102<480.443 558.766> 632 113<477.613 630.172> 1001 148<462.099 860.349>
VStem: 140 162<414.604 846.474> 377 94<471.169 624.602> 635 122<472.893 626.34> 1011 160<0 856.294>
LayerCount: 2
Fore
SplineSet
222 108 m 2
 222 242 140 550 140 669 c 0
 140 964 304 1149 660 1149 c 0
 1000 1149 1171 980 1171 652 c 2
 1171 0 l 1
 1011 0 l 1
 1011 675 l 2
 1011 870 896 1001 664 1001 c 0
 422 1001 302 866 302 668 c 0
 302 534 339 485 391 197 c 1
 456 218 513 274 560 365 c 1
 560 365 545 362 536 362 c 16
 488 362 377 420 377 536 c 0
 377 668 442 745 571 745 c 0
 696 745 757 676 757 542 c 0
 757 332 641 153 407 0 c 1
 222 0 l 1
 222 108 l 2
543 464 m 0
 608 464 635 492 635 555 c 0
 635 602 616 632 555 632 c 0
 505 632 471 605 471 551 c 0
 471 508 496 464 543 464 c 0
EndSplineSet
EndChar

StartChar: uni0E15
Encoding: 3605 3605 144
Width: 1330
Flags: W
HStem: 0 21G<232 533.5 1021 1181> 357 97<491.768 568.815> 622 123<492.174 642.93> 1129 20G<387.5 535.276 814.172 956.5>
VStem: 149 163<395.703 863.617> 387 97<460.129 614.411> 648 119<465.252 616.492> 1021 160<0 884.486>
LayerCount: 2
Fore
SplineSet
232 108 m 2
 232 288 149 499 149 702 c 0
 149 928 268 1076 507 1149 c 1
 671 1033 l 1
 844 1149 l 1
 1069 1099 1181 942 1181 677 c 2
 1181 0 l 1
 1021 0 l 1
 1021 734 l 2
 1021 860 961 941 844 979 c 1
 671 863 l 1
 507 979 l 1
 376 931 312 840 312 676 c 0
 312 592 344 424 384 290 c 8
 395 255 401 197 401 197 c 1
 479 231 535 287 570 365 c 1
 557 360 543 357 529 357 c 0
 448 357 387 444 387 536 c 0
 387 656 456 745 581 745 c 0
 712 745 767 664 767 541 c 0
 767 348 650 167 417 0 c 1
 232 0 l 1
 232 108 l 2
556 454 m 0
 624 454 648 485 648 545 c 0
 648 600 624 622 568 622 c 0
 518 622 484 592 484 541 c 0
 484 496 504 454 556 454 c 0
EndSplineSet
EndChar

StartChar: uni0E16
Encoding: 3606 3606 145
Width: 1240
Flags: W
HStem: -11 116<344.399 490.232> 273 124<353.386 491.936> 1001 148<439.342 794.551>
VStem: 193 160<369 560.709> 193 142<113.69 265.303> 499 107<115.131 264.528> 927 160<0 856.737>
LayerCount: 2
Fore
SplineSet
927 0 m 1xf6
 927 657 l 2
 927 878 822 1001 630 1001 c 0
 484 1001 375 940 302 825 c 1
 381 808 444 754 491 663 c 1
 399 592 353 505 353 403 c 2
 353 369 l 1xf6
 369 387 394 397 429 397 c 0
 555 397 606 321 606 201 c 0
 606 69 528 -11 396 -11 c 0
 270 -11 193 86 193 258 c 2xee
 193 403 l 2
 193 508 236 598 322 671 c 1
 295 730 229 770 124 792 c 1
 229 1030 398 1149 630 1149 c 0
 924 1149 1087 986 1087 673 c 2
 1087 0 l 1
 927 0 l 1xf6
407 105 m 0
 474 105 499 136 499 196 c 0
 499 243 462 273 419 273 c 0
 369 273 335 243 335 192 c 0xee
 335 147 360 105 407 105 c 0
EndSplineSet
EndChar

StartChar: uni0E17
Encoding: 3607 3607 146
Width: 1350
Flags: W
HStem: 0 21G<317 527.105 1054 1214> 743 116<182.21 316.377> 975 174<943.328 1048.87> 1026 124<181.263 331.945>
VStem: 63 110<866.261 1018.04> 317 160<263 770> 337 140<867.789 1018.72> 1054 160<0 974.055>
DStem2: 477 263 518 0 0.414333 0.910125<0 865.411>
LayerCount: 2
Fore
SplineSet
317 770 m 1xed
 306 756 285 743 253 743 c 0
 128 743 63 817 63 953 c 0
 63 1064 147 1150 274 1150 c 0
 392 1150 477 1051 477 881 c 2xdb
 477 263 l 1
 812 1003 l 1
 853 1100 921 1149 1018 1149 c 0
 1144 1149 1214 1067 1214 923 c 2
 1214 0 l 1
 1054 0 l 1
 1054 900 l 2
 1054 947 1040 975 1003 975 c 0
 976 975 952 954 930 905 c 2
 518 0 l 1
 317 0 l 1
 317 770 l 1xed
248 859 m 0
 304 859 337 889 337 949 c 0
 337 1000 312 1026 257 1026 c 0
 207 1026 173 1000 173 945 c 0
 173 896 197 859 248 859 c 0
EndSplineSet
EndChar

StartChar: uni0E18
Encoding: 3608 3608 147
Width: 1250
Flags: W
HStem: 0 148<409 863> 909 148<847.457 1041> 1000 148<460.22 793.737>
VStem: 249 160<148 650> 863 161<148 587.202>
DStem2: 387 871 143 761 0.972579 -0.232573<0 526.075>
LayerCount: 2
Fore
SplineSet
863 480 m 2xb8
 863 533 839 593 793 604 c 1
 614 657 398 710 143 761 c 1
 213 1020 364 1148 612 1148 c 0xb8
 800 1148 916 1057 981 1057 c 0
 1014 1057 1051 1062 1080 1071 c 1
 1041 923 l 1
 1019 918 992 909 964 909 c 0xd8
 860 909 740 1000 625 1000 c 0
 508 1000 431 962 387 871 c 1
 572 832 848 753 848 753 c 2
 972 721 1024 640 1024 518 c 2
 1024 0 l 1
 249 0 l 1
 249 650 l 1
 409 650 l 1
 409 148 l 1
 863 148 l 1
 863 480 l 2xb8
EndSplineSet
EndChar

StartChar: uni0E19
Encoding: 3609 3609 148
Width: 1400
Flags: W
HStem: -10 113<1088.89 1228.91> 328 147<1144 1212.73> 741 115<220.823 363.585> 1024 125<219.251 368.741>
VStem: 109 103<863.061 1016.22> 364 160<174 769 860.429 1018.61> 984 160<103.251 243 469.14 1139> 1237 113<106.244 306.104>
DStem2: 524 174 519 0 0.886279 0.463152<0 439.646>
AnchorPoint: "AboveBase" 1123 1227 basechar 0
LayerCount: 2
Fore
SplineSet
364 769 m 1
 351 753 326 741 288 741 c 0
 188 741 109 816 109 937 c 0
 109 1080 184 1149 321 1149 c 0
 452 1149 524 1052 524 880 c 2
 524 174 l 1
 984 402 l 1
 984 1139 l 1
 1144 1139 l 1
 1144 475 l 1
 1281 466 1350 376 1350 205 c 0
 1350 56 1278 -10 1143 -10 c 0
 1033 -10 984 84 984 243 c 1
 519 0 l 1
 364 0 l 1
 364 769 l 1
1144 328 m 1
 1144 165 l 2
 1144 127 1152 103 1183 103 c 0
 1218 103 1237 139 1237 202 c 0
 1237 284 1181 328 1144 328 c 1
284 856 m 0
 344 856 376 887 376 947 c 0
 376 992 348 1024 296 1024 c 0
 246 1024 212 1000 212 943 c 0
 212 898 236 856 284 856 c 0
EndSplineSet
EndChar

StartChar: uni0E1A
Encoding: 3610 3610 149
Width: 1300
Flags: W
HStem: 0 148<488 993> 743 112<189.419 327.029> 1023 127<188.624 337.939>
VStem: 75 106<862.342 1013.88> 328 160<148 770> 345 143<864.021 1012.63> 993 160<148 1139>
LayerCount: 2
Fore
SplineSet
488 148 m 1xfa
 993 148 l 1
 993 1139 l 1
 1153 1139 l 1
 1153 0 l 1
 328 0 l 1
 328 770 l 1xfa
 309 749 274 743 223 743 c 0
 129 743 75 849 75 957 c 0
 75 1071 169 1150 285 1150 c 0
 417 1150 488 1064 488 881 c 2xf6
 488 148 l 1xfa
253 855 m 0
 313 855 345 886 345 946 c 0xf6
 345 993 315 1023 265 1023 c 0
 215 1023 181 993 181 942 c 0
 181 897 207 855 253 855 c 0
EndSplineSet
EndChar

StartChar: uni0E1B
Encoding: 3611 3611 150
Width: 1300
Flags: W
HStem: 0 148<514 1019> 743 112<215.419 353.029> 1023 127<214.624 363.939> 1460 20G<1019 1179>
VStem: 101 106<862.342 1013.88> 354 160<148 770> 371 143<864.021 1012.63> 1019 160<148 1480>
AnchorPoint: "AboveBase" 920 1227 basechar 0
LayerCount: 2
Fore
SplineSet
514 148 m 1xfd
 1019 148 l 1
 1019 1480 l 1
 1179 1480 l 1
 1179 0 l 1
 354 0 l 1
 354 770 l 1xfd
 335 749 300 743 249 743 c 0
 155 743 101 849 101 957 c 0
 101 1071 195 1150 311 1150 c 0
 443 1150 514 1064 514 881 c 2xfb
 514 148 l 1xfd
279 855 m 0
 339 855 371 886 371 946 c 0xfb
 371 993 341 1023 291 1023 c 0
 241 1023 207 993 207 942 c 0
 207 897 233 855 279 855 c 0
EndSplineSet
EndChar

StartChar: uni0E1C
Encoding: 3612 3612 151
Width: 1200
Flags: W
HStem: 0 21G<134 308.926 866.059 1040> 741 109<294.71 428.335> 1018 132<285.086 430.197>
VStem: 134 160<214 770> 134 140<857.266 1005.66> 438 110<860.292 1011.33> 880 160<211 1139>
LayerCount: 2
Fore
SplineSet
134 881 m 2xee
 134 1048 212 1150 337 1150 c 0
 476 1150 548 1064 548 930 c 0
 548 817 460 741 378 741 c 0
 341 741 313 751 294 770 c 1
 294 214 l 1
 570 627 l 1
 618 627 l 1
 880 211 l 1
 880 1139 l 1
 1040 1139 l 1
 1040 0 l 1
 880 0 l 1
 597 406 l 1
 294 0 l 1xf6
 134 0 l 1
 134 881 l 2xee
346 850 m 0
 406 850 438 881 438 941 c 0
 438 984 412 1018 358 1018 c 0
 316 1018 274 984 274 937 c 0xee
 274 892 308 850 346 850 c 0
EndSplineSet
EndChar

StartChar: uni0E1D
Encoding: 3613 3613 152
Width: 1200
Flags: W
HStem: 0 21G<153 327.926 885.059 1059> 741 109<313.71 447.335> 1018 132<304.086 449.197> 1460 20G<899 1059>
VStem: 153 160<214 770> 153 140<857.266 1005.66> 457 110<860.292 1011.33> 899 160<211 1480>
AnchorPoint: "AboveBase" 799 1227 basechar 0
LayerCount: 2
Fore
SplineSet
313 214 m 1xfb
 589 627 l 1
 637 627 l 1
 899 211 l 1
 899 1480 l 1
 1059 1480 l 1
 1059 0 l 1
 899 0 l 1
 616 406 l 1
 313 0 l 1xfb
 153 0 l 1
 153 881 l 2xf7
 153 1048 231 1150 356 1150 c 0
 495 1150 567 1064 567 930 c 0
 567 817 479 741 397 741 c 0
 360 741 332 751 313 770 c 1
 313 214 l 1xfb
365 850 m 0
 425 850 457 881 457 941 c 0
 457 984 431 1018 377 1018 c 0
 335 1018 293 984 293 937 c 0xf7
 293 892 327 850 365 850 c 0
EndSplineSet
EndChar

StartChar: uni0E1E
Encoding: 3614 3614 153
Width: 1350
Flags: W
HStem: 0 21G<300 496.296 1009.31 1206> 740 117<164.781 299.382> 1025 124<165.509 310.482> 1063 20G<714.634 775.731>
VStem: 46 109<864.53 1016.06> 300 160<263 769> 319 141<866.021 1014.54> 1046 160<260 1139>
DStem2: 460 263 490 0 0.3033 0.952895<0 607.674> 769 1083 745 810 0.31899 -0.947758<251.082 868.365>
LayerCount: 2
Fore
SplineSet
460 263 m 1xed
 721 1083 l 1
 769 1083 l 1
 1046 260 l 1
 1046 1139 l 1
 1206 1139 l 1
 1206 0 l 1
 1016 0 l 1
 745 810 l 1
 490 0 l 1
 300 0 l 1
 300 769 l 1xdd
 281 750 253 740 216 740 c 0
 114 740 46 814 46 943 c 0
 46 1074 123 1149 257 1149 c 0
 387 1149 460 1056 460 880 c 2xeb
 460 263 l 1xed
227 857 m 0
 287 857 319 888 319 948 c 0
 319 996 282 1025 239 1025 c 0xeb
 189 1025 155 990 155 944 c 0
 155 899 180 857 227 857 c 0
EndSplineSet
EndChar

StartChar: uni0E1F
Encoding: 3615 3615 154
Width: 1450
Flags: W
HStem: 0 21G<381 577.296 1090.31 1287> 740 117<245.781 380.382> 1025 124<246.509 391.482> 1063 20G<795.634 856.731> 1460 20G<1127 1287>
VStem: 127 109<864.53 1016.06> 381 160<263 769> 400 141<866.021 1014.54> 1127 160<260 1480>
DStem2: 541 263 571 0 0.3033 0.952895<0 607.674> 850 1083 826 810 0.31899 -0.947758<251.082 868.365>
AnchorPoint: "AboveBase" 1031 1227 basechar 0
LayerCount: 2
Fore
SplineSet
541 263 m 1xee80
 802 1083 l 1
 850 1083 l 1
 1127 260 l 1
 1127 1480 l 1
 1287 1480 l 1
 1287 0 l 1
 1097 0 l 1
 826 810 l 1
 571 0 l 1
 381 0 l 1
 381 769 l 1xde80
 362 750 334 740 297 740 c 0
 195 740 127 814 127 943 c 0
 127 1074 204 1149 338 1149 c 0
 468 1149 541 1056 541 880 c 2xed80
 541 263 l 1xee80
308 857 m 0
 368 857 400 888 400 948 c 0
 400 996 363 1025 320 1025 c 0xed80
 270 1025 236 990 236 944 c 0
 236 899 261 857 308 857 c 0
EndSplineSet
EndChar

StartChar: uni0E20
Encoding: 3616 3616 155
Width: 1350
Flags: W
HStem: -10 122<186.218 329.726> 280 119<182.912 324.548> 1002 148<580.245 925.88>
VStem: 70 105<120.646 271.136> 324 160<370 560.555> 339 145<124.898 274.016> 1058 160<0 857.336>
LayerCount: 2
Fore
SplineSet
1058 658 m 2xfa
 1058 875 951 1002 761 1002 c 0
 630 1002 521 943 433 826 c 1
 518 801 581 747 622 664 c 1
 530 591 484 505 484 404 c 2xfa
 484 259 l 2xf6
 484 84 401 -10 281 -10 c 0
 150 -10 70 72 70 198 c 0
 70 318 141 399 240 399 c 0
 277 399 305 389 324 370 c 1
 324 404 l 2
 324 513 368 603 453 672 c 1
 416 731 350 771 255 793 c 1
 359 1031 528 1150 761 1150 c 0
 1059 1150 1218 986 1218 674 c 2
 1218 0 l 1
 1058 0 l 1
 1058 658 l 2xfa
247 112 m 0
 309 112 339 143 339 203 c 0xf6
 339 246 313 280 259 280 c 0
 207 280 175 246 175 199 c 0
 175 154 207 112 247 112 c 0
EndSplineSet
EndChar

StartChar: uni0E21
Encoding: 3617 3617 156
Width: 1350
Flags: W
HStem: -10 123<284.232 417.242> 328 118<293.882 371> 739 116<234.173 370.467> 1023 127<232.438 381.856>
VStem: 118 106<863.703 1013.88> 170 108<115.05 315.402> 371 160<114.001 243 446 770> 388 143<864.021 1017.3> 991 160<159 1139>
DStem2: 531 409 531 243 0.878624 -0.477513<79.2672 523.546>
LayerCount: 2
Fore
SplineSet
371 446 m 1xf680
 371 770 l 1xf680
 357 751 333 739 300 739 c 0
 192 739 118 820 118 957 c 0
 118 1071 192 1150 319 1150 c 0
 462 1150 531 1061 531 881 c 2
 531 409 l 1xf980
 991 159 l 1
 991 1139 l 1
 1151 1139 l 1
 1151 0 l 1
 990 0 l 1
 531 243 l 1
 531 146 l 2
 531 43 464 -10 372 -10 c 0
 242 -10 170 62 170 205 c 0
 170 364 240 446 371 446 c 1xf680
371 328 m 1
 307 328 278 285 278 202 c 0
 278 149 294 113 332 113 c 0
 363 113 371 133 371 174 c 2
 371 328 l 1
296 855 m 0
 354 855 388 886 388 946 c 0
 388 993 366 1023 308 1023 c 0
 258 1023 224 993 224 942 c 0xf980
 224 897 258 855 296 855 c 0
EndSplineSet
EndChar

StartChar: uni0E22
Encoding: 3618 3618 157
Width: 1200
Flags: W
HStem: 0 148<359 867> 505 113<403.717 638> 743 112<362.2 509.507> 1023 126<361.459 510.626>
VStem: 176 178<663.255 1014.72> 199 160<148 459.906> 518 109<864.843 1015.36> 867 160<148 1139>
LayerCount: 2
Fore
SplineSet
638 505 m 1xfb
 436 505 359 473 359 347 c 2
 359 148 l 1
 867 148 l 1
 867 1139 l 1
 1027 1139 l 1
 1027 0 l 1
 199 0 l 1
 199 349 l 2xf7
 199 444 249 515 350 562 c 1
 238 584 176 703 176 845 c 0
 176 1011 234 1149 418 1149 c 0
 546 1149 627 1077 627 926 c 0
 627 809 560 743 455 743 c 0
 404 743 370 753 353 770 c 1
 353 704 385 660 440 637 c 0
 473 623 539 618 638 618 c 1
 638 505 l 1xfb
426 855 m 0
 488 855 518 886 518 946 c 0
 518 993 488 1023 438 1023 c 0
 388 1023 354 993 354 942 c 0xfb
 354 897 380 855 426 855 c 0
EndSplineSet
EndChar

StartChar: uni0E23
Encoding: 3619 3619 158
Width: 1100
Flags: W
HStem: -10 119<611.581 753.625> 277 106<605.453 722.01> 915 148<777.718 1002> 1001 148<415.971 756.487>
VStem: 490 109<119.389 269.814> 723 160<363 624.719> 763 120<123.894 270.172>
LayerCount: 2
Fore
SplineSet
348 872 m 1xdc
 686 805 883 739 883 574 c 2xdc
 883 304 l 2xda
 883 77 838 -10 683 -10 c 0
 557 -10 490 57 490 189 c 0
 490 297 540 383 641 383 c 0
 676 383 703 379 723 363 c 1
 723 529 l 2
 723 572 695 634 629 656 c 0
 520 692 345 727 104 762 c 1
 173 1020 330 1149 573 1149 c 0xdc
 747 1149 830 1063 962 1063 c 0
 988 1063 1014 1066 1041 1072 c 1
 1002 924 l 1
 985 917 965 915 941 915 c 0xec
 775 915 732 1001 561 1001 c 0
 468 1001 390 959 348 872 c 1xdc
671 109 m 0
 731 109 763 140 763 200 c 0xca
 763 237 737 277 683 277 c 0
 630 277 599 249 599 196 c 0
 599 151 636 109 671 109 c 0
EndSplineSet
EndChar

StartChar: uni0E24
Encoding: 3620 3620 159
Width: 1240
Flags: W
HStem: -11 116<342.399 488.232> 273 124<351.386 489.936> 1001 148<437.342 792.551>
VStem: 191 160<369 560.709> 191 142<113.69 265.303> 497 107<115.131 264.528> 925 160<-380 856.737>
LayerCount: 2
Fore
SplineSet
1085 673 m 2xf6
 1085 -380 l 1
 925 -380 l 1
 925 657 l 2
 925 878 820 1001 628 1001 c 0
 482 1001 373 940 300 825 c 1
 379 808 442 754 489 663 c 1
 397 592 351 505 351 403 c 2
 351 369 l 1xf6
 367 387 392 397 427 397 c 0
 553 397 604 321 604 201 c 0
 604 69 526 -11 394 -11 c 0
 268 -11 191 86 191 258 c 2xee
 191 403 l 2
 191 508 234 598 320 671 c 1
 293 730 227 770 122 792 c 1
 227 1030 396 1149 628 1149 c 0
 922 1149 1085 986 1085 673 c 2xf6
405 105 m 0
 472 105 497 136 497 196 c 0
 497 243 460 273 417 273 c 0
 367 273 333 243 333 192 c 0xee
 333 147 358 105 405 105 c 0
EndSplineSet
EndChar

StartChar: uni0E25
Encoding: 3621 3621 160
Width: 1255
Flags: W
HStem: -11 115<381.137 527.69> 272 127<381.632 529.57> 604 140<460.507 779.172> 1001 148<403.082 786.016>
VStem: 221 160<106.927 267.9 369 528.584> 536 99<113.013 263.909> 924 160<0 450.547 609 868.395>
LayerCount: 2
Fore
SplineSet
610 744 m 0
 785 744 897 656 924 609 c 1
 924 714 l 2
 924 895 801 1001 596 1001 c 0
 468 1001 339 943 210 834 c 1
 156 944 l 1
 291 1077 439 1149 598 1149 c 0
 909 1149 1084 994 1084 713 c 2
 1084 0 l 1
 924 0 l 1
 924 263 l 2
 924 397 861 604 608 604 c 0
 460 604 381 513 381 407 c 2
 381 369 l 1
 399 389 429 399 471 399 c 0
 585 399 635 327 635 193 c 0
 635 60 539 -11 433 -11 c 0
 348 -11 221 30 221 258 c 2
 221 388 l 2
 221 630 405 744 610 744 c 0
444 104 m 0
 513 104 536 135 536 195 c 0
 536 243 507 272 456 272 c 0
 406 272 372 243 372 191 c 0
 372 146 399 104 444 104 c 0
EndSplineSet
EndChar

StartChar: uni0E26
Encoding: 3622 3622 161
Width: 1350
Flags: W
HStem: -10 122<201.218 344.726> 280 119<197.912 339.548> 1002 148<595.245 940.88>
VStem: 85 105<120.646 271.136> 339 160<370 560.555> 354 145<124.898 274.016> 1073 160<-380 857.336>
LayerCount: 2
Fore
SplineSet
1233 674 m 2xfa
 1233 -380 l 1
 1073 -380 l 1
 1073 658 l 2
 1073 875 966 1002 776 1002 c 0
 645 1002 536 943 448 826 c 1
 533 801 596 747 637 664 c 1
 545 591 499 505 499 404 c 2xfa
 499 259 l 2xf6
 499 84 416 -10 296 -10 c 0
 165 -10 85 72 85 198 c 0
 85 318 156 399 255 399 c 0
 292 399 320 389 339 370 c 1
 339 404 l 2
 339 513 383 603 468 672 c 1
 431 731 365 771 270 793 c 1
 374 1031 543 1150 776 1150 c 0
 1074 1150 1233 986 1233 674 c 2xfa
262 112 m 0
 324 112 354 143 354 203 c 0xf6
 354 246 328 280 274 280 c 0
 222 280 190 246 190 199 c 0
 190 154 222 112 262 112 c 0
EndSplineSet
EndChar

StartChar: uni0E27
Encoding: 3623 3623 162
Width: 1150
Flags: W
HStem: -10 123<696.644 838.993> 281 117<692.754 833.45> 1001 148<331.963 732.865>
VStem: 579 107<119.555 274.109> 834 160<369 900.053> 850 144<122.348 275.719>
LayerCount: 2
Fore
SplineSet
546 1149 m 0xf8
 826 1149 994 1012 994 742 c 2xf8
 994 258 l 2xf4
 994 79 924 -10 790 -10 c 0
 663 -10 579 78 579 179 c 0
 579 300 630 398 749 398 c 0
 786 398 815 388 834 369 c 1
 834 738 l 2
 834 949 698 1001 546 1001 c 0
 402 1001 275 958 170 866 c 1
 96 927 l 1
 217 1070 378 1149 546 1149 c 0xf8
758 113 m 0
 818 113 850 144 850 204 c 0xf4
 850 252 824 281 770 281 c 0
 714 281 686 252 686 200 c 0
 686 155 714 113 758 113 c 0
EndSplineSet
EndChar

StartChar: uni0E28
Encoding: 3624 3624 163
Width: 1300
Flags: W
HStem: 0 21G<181 409.5 971 1131> 344 116<599.094 750.004> 625 121<600.482 751.112> 1001 148<432.654 800.088>
VStem: 99 161<365.082 830.169> 181 210<0 182.809> 758 98<468.215 616.667> 971 160<0 832.777>
LayerCount: 2
Fore
SplineSet
181 108 m 2xf7
 181 318 99 435 99 673 c 0
 99 973 296 1149 612 1149 c 0
 749 1149 858 1120 941 1067 c 1
 987 1096 1027 1148 1062 1224 c 1
 1280 1224 l 1
 1243 1108 1171 1013 1064 939 c 1
 1108 864 1131 768 1131 651 c 2
 1131 0 l 1
 971 0 l 1
 971 650 l 2
 971 862 824 1001 617 1001 c 0
 400 1001 260 863 260 646 c 0xfb
 260 522 281 399 316 256 c 1
 380 703 590 746 658 746 c 0
 784 746 856 672 856 553 c 0
 856 432 784 344 664 344 c 0
 584 344 552 368 525 424 c 1
 472 319 428 177 391 0 c 1
 181 0 l 1
 181 108 l 2xf7
673 460 m 0
 728 460 758 491 758 543 c 0
 758 592 728 625 679 625 c 0
 625 625 592 592 592 543 c 0
 592 494 618 460 673 460 c 0
EndSplineSet
EndChar

StartChar: uni0E29
Encoding: 3625 3625 164
Width: 1350
Flags: W
HStem: 0 148<455 960> 423 112<856.776 958.817> 698 67<740.779 845.332> 741 113<157.975 293.991> 1022 127<159.586 306.425>
VStem: 40 108<861.934 1009.29> 295 160<148 769> 312 143<863.021 1014.98> 657 79<591.153 695.297> 850 71<591.34 694.64> 960 160<148 435 654 1138> 1161 107<655.421 773>
AnchorPoint: "AboveBase" 1099 1227 basechar 0
LayerCount: 2
Fore
SplineSet
1120 654 m 1xeef0
 1147 681 1161 721 1161 773 c 1
 1268 773 l 1
 1268 655 1219 562 1120 493 c 1
 1120 0 l 1
 295 0 l 1
 295 769 l 1xeef0
 274 743 261 741 213 741 c 0
 99 741 40 837 40 946 c 0
 40 1089 127 1149 252 1149 c 0
 388 1149 455 1057 455 880 c 2xddf0
 455 148 l 1
 960 148 l 1
 960 435 l 1
 926 422 927 423 891 423 c 0
 711 423 657 549 657 621 c 0
 657 705 721 765 794 765 c 0
 873 765 921 723 921 639 c 0
 921 603 899 563 854 548 c 1
 872 539 890 535 911 535 c 0
 926 535 943 538 960 543 c 1
 960 1138 l 1
 1120 1138 l 1
 1120 654 l 1xeef0
850 641 m 0
 850 674 834 698 793 698 c 0
 760 698 736 678 736 644 c 0
 736 618 756 588 792 588 c 0
 834 588 850 608 850 641 c 0
220 854 m 0xddf0
 280 854 312 885 312 945 c 0
 312 999 285 1022 232 1022 c 0
 189 1022 148 987 148 941 c 0
 148 896 177 854 220 854 c 0xddf0
EndSplineSet
EndChar

StartChar: uni0E2A
Encoding: 3626 3626 165
Width: 1250
Flags: W
HStem: -11 115<347.051 491.321> 272 127<346.632 494.822> 604 140<423.187 741.65> 1001 148<362.918 758.551>
VStem: 186 160<112.729 266.89 369 531.147> 501 99<113.467 262.904> 889 160<0 449.001 609 878.643>
LayerCount: 2
Fore
SplineSet
575 744 m 0
 753 744 862 656 889 609 c 1
 889 714 l 2
 889 895 771 1001 561 1001 c 0
 423 1001 304 943 175 834 c 1
 121 944 l 1
 256 1077 405 1149 563 1149 c 0
 721 1149 841 1107 922 1037 c 1
 983 1081 1024 1138 1046 1209 c 1
 1212 1209 l 1
 1193 1048 1057 952 1001 936 c 1
 1032 875 1049 786 1049 713 c 2
 1049 0 l 1
 889 0 l 1
 889 263 l 2
 889 472 763 604 573 604 c 0
 425 604 346 513 346 407 c 2
 346 369 l 1
 364 389 394 399 436 399 c 0
 543 399 600 324 600 193 c 0
 600 58 501 -11 398 -11 c 0
 315 -11 186 29 186 258 c 2
 186 388 l 2
 186 616 359 744 575 744 c 0
409 104 m 0
 471 104 501 135 501 195 c 0
 501 246 465 272 421 272 c 0
 371 272 337 234 337 191 c 0
 337 146 369 104 409 104 c 0
EndSplineSet
EndChar

StartChar: uni0E2B
Encoding: 3627 3627 166
Width: 1350
Flags: W
HStem: 0 21G<332 577.5 1038 1198> 748 115<210.27 331.051> 1019 125<203.412 359.697 901.561 1048.36>
VStem: 100 100<871.057 1022.25> 332 160<190 767> 364 128<871.144 1022.86> 775 118<856.857 1009.09> 1038 160<0 677.967> 1057 128<860.87 1011.19>
LayerCount: 2
Fore
SplineSet
492 190 m 1xfa
 535 315 594 430 670 538 c 0
 745 644 810 721 865 767 c 1
 803 798 775 859 775 950 c 0
 775 1068 846 1144 972 1144 c 0
 1106 1144 1185 1068 1185 956 c 0xfa80
 1185 865 1158 801 1107 764 c 1
 1156 733 1198 660 1198 610 c 2
 1198 0 l 1
 1038 0 l 1
 1038 594 l 2
 1038 637 1017 669 976 690 c 1
 917 646 843 556 754 419 c 0
 665 282 599 143 556 0 c 1
 332 0 l 1
 332 767 l 1xfb
 313 754 288 748 255 748 c 0
 174 748 100 822 100 956 c 0
 100 1062 180 1149 296 1149 c 0
 426 1149 492 1075 492 924 c 2xf6
 492 190 l 1xfa
272 863 m 0
 336 863 364 894 364 954 c 0xf6
 364 1008 330 1031 284 1031 c 0
 234 1031 200 996 200 950 c 0
 200 905 234 863 272 863 c 0
965 851 m 0
 1025 851 1057 882 1057 942 c 0xf280
 1057 978 1031 1019 977 1019 c 0
 924 1019 893 984 893 938 c 0
 893 893 918 851 965 851 c 0
EndSplineSet
EndChar

StartChar: uni0E2C
Encoding: 3628 3628 167
Width: 1400
Flags: W
HStem: 0 21G<317 513.296 1026.31 1223> 740 117<179.779 316.382> 1025 124<178.515 331.32> 1063 20G<731.634 792.731> 1167 108<995.539 1061.87 1223 1316.02> 1412 107<993.668 1124.34> 1447 20G<1359 1459>
VStem: 63 109<863.729 1017.74> 317 160<263 769> 336 141<866.021 1020.35> 895 95<1280.8 1408.46> 1063 160<260 1159> 1129 94<1281.5 1405.91> 1359 100<1329.42 1467>
DStem2: 477 263 507 0 0.3033 0.952895<0 607.674> 786 1083 762 810 0.31899 -0.947758<251.082 868.365>
AnchorPoint: "AboveBase" 875 1227 basechar 0
LayerCount: 2
Fore
SplineSet
1063 1167 m 1xd9b4
 956 1167 895 1230 895 1348 c 0
 895 1468 954 1519 1062 1519 c 0
 1164 1519 1223 1460 1223 1349 c 2
 1223 1281 l 1xdd2c
 1264 1281 1297 1296 1324 1328 c 1
 1351 1358 1359 1405 1359 1467 c 1
 1459 1467 l 1
 1459 1360 1445 1282 1398 1234 c 0
 1350 1186 1293 1159 1223 1159 c 1xcb34
 1223 0 l 1
 1033 0 l 1
 762 810 l 1
 507 0 l 1
 317 0 l 1
 317 769 l 1xcbac
 298 750 270 740 233 740 c 0
 132 740 63 810 63 943 c 0
 63 1076 140 1149 274 1149 c 0
 404 1149 477 1056 477 880 c 2xeb64
 477 263 l 1
 738 1083 l 1
 786 1083 l 1
 1063 260 l 1
 1063 1167 l 1xd9b4
244 857 m 0
 304 857 336 888 336 948 c 0
 336 996 316 1025 256 1025 c 0xe964
 206 1025 172 1004 172 944 c 0
 172 899 196 857 244 857 c 0
1060 1275 m 0
 1100 1275 1129 1304 1129 1345 c 0
 1129 1388 1100 1412 1062 1412 c 0xcd2c
 1015 1412 990 1388 990 1343 c 0
 990 1301 1019 1275 1060 1275 c 0
EndSplineSet
EndChar

StartChar: uni0E2D
Encoding: 3629 3629 168
Width: 1230
Flags: W
HStem: 0 148<383 890> 340 120<383.63 524.641> 628 120<380.015 524.79> 1001 148<364.494 757.532>
VStem: 223 160<148 366 461.456 618.102> 534 104<470.752 618.568> 890 160<148 873.387>
LayerCount: 2
Fore
SplineSet
1050 749 m 2
 1050 0 l 1
 223 0 l 1
 223 434 l 2
 223 641 295 748 436 748 c 0
 568 748 638 660 638 525 c 0
 638 404 568 340 458 340 c 0
 432 340 407 349 383 366 c 1
 383 148 l 1
 890 148 l 1
 890 738 l 2
 890 897 752 1001 570 1001 c 0
 429 1001 315 957 226 866 c 1
 152 927 l 1
 265 1075 403 1149 566 1149 c 0
 896 1149 1050 1012 1050 749 c 2
442 460 m 0
 504 460 534 491 534 551 c 0
 534 588 504 628 454 628 c 0
 404 628 370 588 370 547 c 0
 370 502 392 460 442 460 c 0
EndSplineSet
EndChar

StartChar: uni0E2E
Encoding: 3630 3630 169
Width: 1250
Flags: W
HStem: 0 148<388 897> 343 117<388.946 526.903> 628 120<378.759 529.644> 764 120<376.595 785.298> 1029 120<382.969 777.832>
VStem: 202 152<917.325 991.535> 228 160<148 373> 537 106<468.568 620.27> 897 160<148 839.377>
LayerCount: 2
Fore
SplineSet
1057 0 m 1xfd80
 228 0 l 1
 228 434 l 2
 228 639 300 748 441 748 c 0
 572 748 643 676 643 525 c 0
 643 407 572 343 465 343 c 0
 432 343 406 356 388 373 c 1
 388 148 l 1xfb80
 897 148 l 1
 897 715 l 2
 897 776 888 819 870 842 c 1
 801 791 706 764 588 764 c 0
 348 764 202 848 202 958 c 0
 202 1056 372 1149 585 1149 c 0
 711 1149 815 1121 898 1064 c 1
 926 1100 943 1131 950 1158 c 1
 1072 1116 l 1
 1049 1061 1024 1014 995 975 c 1
 1035 925 1057 846 1057 739 c 2
 1057 0 l 1xfd80
826 952 m 1
 762 1004 684 1029 596 1029 c 0
 476 1029 354 987 354 958 c 0xfd80
 354 917 476 884 583 884 c 0
 673 884 755 906 826 952 c 1
445 460 m 0
 508 460 537 491 537 551 c 0
 537 596 511 628 457 628 c 0
 396 628 373 604 373 547 c 0
 373 502 404 460 445 460 c 0
EndSplineSet
EndChar

StartChar: uni0E2F
Encoding: 3631 3631 170
Width: 1150
Flags: W
HStem: 0 21G<865 1025> 684 148<462 662.722> 1034 104<250.605 400.294>
VStem: 126 117<874.32 1025.57> 407 124<874.868 1026.32> 865 160<0 830 1006.37 1149>
LayerCount: 2
Fore
SplineSet
462 832 m 1
 666 832 865 962 865 1149 c 1
 1025 1149 l 1
 1025 0 l 1
 865 0 l 1
 865 830 l 1
 770 742 630 684 460 684 c 0
 288 684 126 776 126 950 c 0
 126 1056 208 1138 330 1138 c 0
 457 1138 531 1064 531 955 c 0
 531 894 509 853 462 832 c 1
315 866 m 0
 376 866 407 897 407 957 c 0
 407 1000 376 1034 327 1034 c 0
 277 1034 243 1008 243 953 c 0
 243 908 280 866 315 866 c 0
EndSplineSet
EndChar

StartChar: uni0E30
Encoding: 3632 3632 171
Width: 1100
Flags: W
HStem: 62 123<439.588 680.91> 393 92<274.416 407.304> 548 123<439.588 684.717> 879 92<274.695 407.114>
VStem: 173 97<254.933 388.8 739.777 873.141> 412 93<253.32 387.961 739.32 873.852> 798 116<305.129 479 791.129 965>
LayerCount: 2
Fore
SplineSet
484 62 m 0
 354 62 173 116 173 330 c 0
 173 420 236 485 343 485 c 0
 452 485 505 420 505 318 c 0
 505 269 479 230 438 199 c 1
 467 190 496 185 525 185 c 0
 679 185 798 280 798 479 c 1
 914 479 l 1
 914 145 675 62 484 62 c 0
332 248 m 0
 388 248 412 275 412 327 c 0
 412 356 388 393 343 393 c 0
 300 393 270 372 270 323 c 0
 270 284 308 248 332 248 c 0
484 548 m 0
 354 548 173 602 173 816 c 0
 173 900 236 971 343 971 c 0
 444 971 505 908 505 804 c 0
 505 755 479 716 438 685 c 1
 467 676 496 671 525 671 c 0
 679 671 798 766 798 965 c 1
 914 965 l 1
 914 631 672 548 484 548 c 0
332 734 m 0
 388 734 412 761 412 813 c 0
 412 844 380 879 343 879 c 0
 300 879 270 852 270 809 c 0
 270 770 292 734 332 734 c 0
EndSplineSet
EndChar

StartChar: uni0E31
Encoding: 3633 3633 172
Width: 0
Flags: W
HStem: 1214 123<-489.412 -244.482> 1545 92<-654.843 -519.777>
VStem: -756 97<1405.78 1540.09> -517 93<1405.64 1541.16> -131 116<1456.33 1631>
AnchorPoint: "AboveMark" -262 1740 basemark 0
AnchorPoint: "AboveBase" -180 1227 mark 0
LayerCount: 2
Fore
SplineSet
-445 1214 m 0
 -575 1214 -756 1268 -756 1482 c 0
 -756 1576 -693 1637 -586 1637 c 0
 -480 1637 -424 1576 -424 1470 c 0
 -424 1421 -450 1382 -491 1351 c 1
 -462 1342 -433 1337 -404 1337 c 0
 -250 1337 -131 1432 -131 1631 c 1
 -15 1631 l 1
 -15 1363 -175 1214 -445 1214 c 0
-597 1400 m 0
 -544 1400 -517 1427 -517 1479 c 0
 -517 1520 -544 1545 -586 1545 c 0
 -629 1545 -659 1528 -659 1475 c 0
 -659 1436 -640 1400 -597 1400 c 0
EndSplineSet
EndChar

StartChar: uni0E32
Encoding: 3634 3634 173
Width: 1150
Flags: W
HStem: 0 21G<796 956> 1001 148<381.196 698.154>
VStem: 796 160<0 895.284>
LayerCount: 2
Fore
SplineSet
546 1149 m 0
 794 1149 956 987 956 753 c 2
 956 0 l 1
 796 0 l 1
 796 729 l 2
 796 900 707 1001 546 1001 c 0
 416 1001 314 935 258 816 c 1
 138 837 l 1
 208 1043 344 1149 546 1149 c 0
EndSplineSet
EndChar

StartChar: uni0E34
Encoding: 3636 3636 175
Width: 0
Flags: W
HStem: 1322 91<-898 -706.771> 1528 116<-821.068 -475.617>
AnchorPoint: "AboveMark" -272 1740 basemark 0
AnchorPoint: "AboveBase" -180 1227 mark 0
LayerCount: 2
Fore
SplineSet
-1124 1322 m 1
 -1059 1490 -892 1644 -658 1644 c 0
 -500 1644 -412 1595 -327 1515 c 0
 -248 1441 -199 1345 -180 1227 c 1
 -507 1298 -1036 1322 -1124 1322 c 1
-365 1359 m 1
 -423 1462 -500 1528 -642 1528 c 0
 -755 1528 -841 1490 -898 1413 c 1
 -763 1413 -408 1370 -365 1359 c 1
EndSplineSet
EndChar

StartChar: uni0E35
Encoding: 3637 3637 176
Width: 0
Flags: W
HStem: 1511 131<-819.48 -461.98>
VStem: -337 150<1525 1735>
AnchorPoint: "AboveMark" -262 1740 basemark 0
AnchorPoint: "AboveBase" -180 1227 mark 0
LayerCount: 2
Fore
SplineSet
-180 1228 m 1
 -398 1275 -882 1323 -1124 1323 c 1
 -1081 1465 -874 1642 -658 1642 c 0
 -524 1642 -421 1603 -337 1525 c 1
 -337 1735 l 1
 -187 1735 l 1
 -187 1260 l 1
 -184 1249 -182 1238 -180 1228 c 1
-379 1370 m 1
 -417 1457 -508 1511 -616 1511 c 0
 -739 1511 -824 1483 -873 1424 c 1
 -725 1424 -475 1393 -379 1370 c 1
EndSplineSet
EndChar

StartChar: uni0E36
Encoding: 3638 3638 177
Width: 0
Flags: W
HStem: 1321 108<-200.187 -129.681> 1514 128<-821.881 -463.982> 1568 113<-264.929 -130.218>
VStem: -124 110<1435.86 1561.49>
AnchorPoint: "AboveMark" -198 1740 basemark 0
AnchorPoint: "AboveBase" -180 1227 mark 0
LayerCount: 2
Fore
SplineSet
-180 1228 m 1xb0
 -398 1275 -882 1323 -1124 1323 c 1
 -1085 1492 -930 1642 -658 1642 c 0xd0
 -564 1642 -439 1611 -367 1548 c 1
 -352 1633 -296 1681 -198 1681 c 0
 -88 1681 -14 1604 -14 1502 c 0
 -14 1396 -79 1321 -202 1321 c 1
 -196 1304 -189 1273 -180 1228 c 1xb0
-198 1568 m 0xb0
 -243 1568 -270 1540 -270 1500 c 0
 -270 1455 -245 1429 -198 1429 c 0
 -160 1429 -124 1455 -124 1500 c 0
 -124 1524 -144 1568 -198 1568 c 0xb0
-374 1358 m 1
 -410 1460 -504 1514 -648 1514 c 0xd0
 -760 1514 -840 1480 -877 1412 c 1
 -720 1412 -459 1379 -374 1358 c 1
EndSplineSet
EndChar

StartChar: uni0E37
Encoding: 3639 3639 178
Width: 0
Flags: W
HStem: 1322 91<-860 -686.625> 1505 128<-807.811 -567.071>
VStem: -566 150<1624 1722> -337 150<1519 1721>
AnchorPoint: "AboveMark" -376 1740 basemark 0
AnchorPoint: "AboveBase" -180 1227 mark 0
LayerCount: 2
Fore
SplineSet
-1105 1322 m 1
 -1065 1443 -919 1633 -641 1633 c 0
 -614 1633 -589 1629 -566 1624 c 1
 -566 1722 l 1
 -416 1722 l 1
 -416 1570 l 1
 -400 1570 -376 1553 -337 1519 c 1
 -337 1721 l 1
 -187 1721 l 1
 -187 1284 l 1
 -185 1227 l 1
 -436 1282 -965 1322 -1105 1322 c 1
-399 1369 m 1
 -428 1429 -499 1505 -649 1505 c 0
 -747 1505 -815 1472 -860 1413 c 1
 -751 1413 -479 1390 -399 1369 c 1
EndSplineSet
EndChar

StartChar: uni0E38
Encoding: 3640 3640 179
Width: 0
Flags: W
HStem: -375 67<-387.807 -289.427> -163 78<-390.924 -286.691>
VStem: -473 77<-304.189 -167.862> -289 131<-534 -360 -307.982 -165.192>
AnchorPoint: "BelowBase" -158 -85 mark 0
LayerCount: 2
Fore
SplineSet
-289 -534 m 1
 -289 -360 l 1
 -299 -369 -310 -375 -322 -375 c 0
 -428 -375 -473 -331 -473 -244 c 0
 -473 -142 -422 -85 -320 -85 c 0
 -216 -85 -158 -158 -158 -299 c 2
 -158 -534 l 1
 -289 -534 l 1
-331 -163 m 0
 -374 -163 -396 -186 -396 -236 c 0
 -396 -285 -374 -308 -331 -308 c 0
 -296 -308 -281 -284 -281 -237 c 0
 -281 -190 -300 -163 -331 -163 c 0
EndSplineSet
Substitution2: "Thai Sara U Nikhahit Reordering" uni0E4D
Substitution2: "Thai Sara U Thanthakhat Reordering" uni0E4C.low
Substitution2: "Thai Sara U Mai Chattawa Reordering" uni0E4B.low
Substitution2: "Thai Sara U Mai Tri Reordering" uni0E4A.low
Substitution2: "Thai Sara U Mai Tho Reordering" uni0E49.low
Substitution2: "Thai Sara U Mai Ek Reordering" uni0E48.low
EndChar

StartChar: uni0E39
Encoding: 3641 3641 180
Width: 0
Flags: W
HStem: -534 99<-437 -292> -376 69<-667.964 -568.56> -163 78<-667.654 -565.006>
VStem: -752 77<-304.361 -169.635> -568 131<-435 -360 -306.766 -165.886> -292 134<-435 -96>
AnchorPoint: "BelowBase" -158 -85 mark 0
LayerCount: 2
Fore
SplineSet
-599 -85 m 0
 -474 -85 -437 -169 -437 -299 c 2
 -437 -435 l 1
 -292 -435 l 1
 -292 -96 l 1
 -158 -96 l 1
 -158 -534 l 1
 -568 -534 l 1
 -568 -360 l 1
 -584 -376 -606 -376 -635 -376 c 0
 -699 -376 -752 -317 -752 -244 c 0
 -752 -152 -689 -85 -599 -85 c 0
-610 -163 m 0
 -648 -163 -675 -196 -675 -236 c 0
 -675 -279 -657 -307 -619 -307 c 0
 -575 -307 -560 -271 -560 -232 c 0
 -560 -188 -579 -163 -610 -163 c 0
EndSplineSet
Substitution2: "Thai Sara UU Nikhahit Reordering" uni0E4D
Substitution2: "Thai Sara UU Thanthakhat Reordering" uni0E4C.low
Substitution2: "Thai Sara UU Mai Chattawa Reordering" uni0E4B.low
Substitution2: "Thai Sara UU Mai Tri Reordering" uni0E4A.low
Substitution2: "Thai Sara UU Mai Tho Reordering" uni0E49.low
Substitution2: "Thai Sara UU Mai Ek Reordering" uni0E48.low
EndChar

StartChar: uni0E3A
Encoding: 3642 3642 181
Width: 0
Flags: W
HStem: -330 270<-341.907 -149.569>
VStem: -380 269<-291.794 -98.2063>
AnchorPoint: "BelowBase" -158 -65 mark 0
LayerCount: 2
Fore
SplineSet
-246 -60 m 0
 -171 -60 -111 -127 -111 -195 c 0
 -111 -269 -175 -330 -246 -330 c 0
 -317 -330 -380 -267 -380 -195 c 0
 -380 -123 -321 -60 -246 -60 c 0
EndSplineSet
Substitution2: "Thai Phinthu Nikhahit Reordering" uni0E4D
Substitution2: "Thai Phinthu Thanthakhat Reordering" uni0E4C.low
Substitution2: "Thai Phinthu Mai Chattawa Reordering" uni0E4B.low
Substitution2: "Thai Phinthu Mai Tri Reordering" uni0E4A.low
Substitution2: "Thai Phinthu Mai Tho Reordering" uni0E49.low
Substitution2: "Thai Phinthu Mai Ek Reordering" uni0E48.low
Substitution2: "Thai Phinthu Maitaikhu Reordering" uni0E47
EndChar

StartChar: uni0E3F
Encoding: 3647 3647 182
Width: 1250
Flags: W
HStem: 0 170<348 541 653 820.121> 719 166<348 541 653 800.494> 1321 168<348 541 653 813.084>
VStem: 152 196<170 719 885 1321> 541 112<-133 0 174 717 887 1319 1489 1595> 885 207<986.82 1254.98> 954 207<293.241 616.49>
LayerCount: 2
Fore
SplineSet
653 1489 m 1xfa
 975 1485 1092 1351 1092 1144 c 1xfc
 1090 1000 984 876 883 827 c 1
 1095 767 1161 603 1161 457 c 0
 1161 181 946 10 653 2 c 1
 653 -133 l 1
 541 -133 l 1
 541 0 l 1
 152 0 l 1
 152 1489 l 1
 541 1489 l 1
 541 1595 l 1
 653 1595 l 1
 653 1489 l 1xfa
541 885 m 1
 541 1321 l 1
 348 1321 l 1
 348 885 l 1
 541 885 l 1
653 887 m 1
 784 893 885 945 885 1124 c 0
 885 1293 763 1310 653 1319 c 1
 653 887 l 1
541 170 m 1
 541 719 l 1
 348 719 l 1
 348 170 l 1
 541 170 l 1
653 174 m 1
 775 180 954 229 954 449 c 0xfa
 954 657 843 706 653 717 c 1
 653 174 l 1
EndSplineSet
EndChar

StartChar: uni0E40
Encoding: 3648 3648 183
Width: 700
Flags: W
HStem: -11 108<329.615 474.863> 304 93<330.492 472.023> 1129 20G<167 327>
VStem: 167 160<100.873 300.516 369 1149> 485 95<106.489 293.154>
LayerCount: 2
Fore
SplineSet
167 1149 m 1
 327 1149 l 1
 327 369 l 1
 344 388 369 397 403 397 c 0
 519 397 580 324 580 175 c 0
 580 66 507 -11 379 -11 c 0
 238 -11 167 82 167 258 c 2
 167 1149 l 1
395 97 m 0
 459 97 485 128 485 194 c 0
 485 270 453 304 395 304 c 0
 343 304 321 264 321 196 c 0
 321 131 346 97 395 97 c 0
EndSplineSet
EndChar

StartChar: uni0E41
Encoding: 3649 3649 184
Width: 1320
Flags: W
HStem: -11 108<353.615 499.407 968.615 1113.65> 304 93<355.339 495.76 970.339 1109.54> 1129 20G<191 351 806 966>
VStem: 191 160<100.873 300.222 369 1149> 509 95<105.363 291.97> 806 160<100.873 300.222 369 1149> 1124 95<107.769 290.375>
LayerCount: 2
Fore
SplineSet
191 1149 m 1
 351 1149 l 1
 351 369 l 1
 368 388 393 397 427 397 c 0
 532 397 604 324 604 196 c 0
 604 60 533 -11 403 -11 c 0
 262 -11 191 82 191 258 c 2
 191 1149 l 1
419 97 m 0
 484 97 509 128 509 194 c 0
 509 268 476 304 419 304 c 0
 367 304 345 260 345 196 c 0
 345 131 370 97 419 97 c 0
806 1149 m 1
 966 1149 l 1
 966 369 l 1
 983 388 1008 397 1042 397 c 0
 1156 397 1219 316 1219 175 c 0
 1219 68 1148 -11 1018 -11 c 0
 877 -11 806 82 806 258 c 2
 806 1149 l 1
1034 97 m 0
 1092 97 1124 128 1124 194 c 0
 1124 260 1092 304 1034 304 c 0
 982 304 960 260 960 196 c 0
 960 131 985 97 1034 97 c 0
EndSplineSet
EndChar

StartChar: uni0E42
Encoding: 3650 3650 185
Width: 1100
Flags: W
HStem: -11 108<725.05 866.418> 304 93<725.888 868.071> 1595 148<653.275 1003.46> 1696 148<303.322 599.719>
VStem: 561 160<104.553 299.86 369 1312.7> 879 96<107.949 293.464>
LayerCount: 2
Fore
SplineSet
230 1560 m 1xdc
 697 1498 721 1308 721 1132 c 2
 721 369 l 1
 738 386 764 397 798 397 c 0
 930 397 975 294 975 175 c 0
 975 54 908 -11 773 -11 c 0
 642 -11 561 78 561 258 c 2
 561 1130 l 2
 561 1313 529 1322 396 1392 c 1
 327 1421 202 1442 21 1455 c 1
 48 1614 165 1844 431 1844 c 0xdc
 573 1844 681 1743 872 1743 c 0
 950 1743 1011 1763 1056 1804 c 1
 1034 1656 l 1
 975 1622 910 1595 839 1595 c 0xec
 664 1595 562 1696 415 1696 c 0
 338 1696 277 1649 230 1560 c 1xdc
789 97 m 0
 846 97 879 134 879 201 c 0
 879 264 852 304 789 304 c 0
 741 304 715 264 715 196 c 0
 715 132 740 97 789 97 c 0
EndSplineSet
EndChar

StartChar: uni0E43
Encoding: 3651 3651 186
Width: 1000
Flags: W
HStem: -11 108<699.349 840.238> 304 93<697.715 840.611> 1266 112<221.008 442.826> 1683 156<518 666.809>
VStem: 66 131<1402.52 1609.06> 534 160<103.22 300.589 369 1120.85> 760 139<1317.51 1600.04> 852 95<106.96 293.929>
LayerCount: 2
Fore
SplineSet
899 1505 m 0xfe
 899 1124 694 1270 694 911 c 2
 694 369 l 1
 705 383 730 397 770 397 c 0
 890 397 947 325 947 175 c 0xfd
 947 51 880 -11 746 -11 c 0
 600 -11 534 75 534 258 c 2
 534 913 l 2
 534 1262 760 1217 760 1479 c 0
 760 1646 579 1683 518 1683 c 1
 599 1592 610 1475 536 1367 c 0
 488 1296 412 1266 325 1266 c 0
 160 1266 66 1335 66 1496 c 0
 66 1735 310 1839 486 1839 c 0
 625 1839 730 1795 797 1720 c 0
 867 1641 899 1568 899 1505 c 0xfe
762 97 m 0
 820 97 852 131 852 194 c 0
 852 265 830 304 762 304 c 0
 711 304 688 265 688 196 c 0
 688 132 717 97 762 97 c 0
320 1629 m 0
 241 1629 197 1595 197 1505 c 0
 197 1424 243 1378 328 1378 c 0
 420 1378 470 1424 470 1509 c 0
 470 1585 420 1629 320 1629 c 0
EndSplineSet
EndChar

StartChar: uni0E44
Encoding: 3652 3652 187
Width: 1030
Flags: W
HStem: -11 108<675.364 815.471> 304 93<675.162 816.1> 1326 114<108.311 237.424> 1694 145<420.711 503.022>
VStem: 511 160<100.873 300.516 369 1692.31> 829 95<108.336 291.771>
LayerCount: 2
Fore
SplineSet
671 1608 m 2
 671 369 l 1
 694 391 721 397 747 397 c 0
 864 397 924 320 924 175 c 0
 924 56 854 -11 723 -11 c 0
 573 -11 511 82 511 258 c 2
 511 1594 l 2
 511 1661 495 1694 464 1694 c 1
 431 1698 396 1608 373 1488 c 0
 356 1400 271 1326 168 1326 c 0
 100 1326 48 1351 11 1400 c 0
 -25 1448 -74 1577 -135 1788 c 1
 14 1788 l 1
 72 1573 l 2
 96 1484 130 1440 174 1440 c 0
 281 1440 270 1680 341 1771 c 0
 372 1810 411 1839 486 1839 c 0
 610 1839 671 1762 671 1608 c 2
739 97 m 0
 796 97 829 134 829 201 c 0
 829 264 796 304 739 304 c 0
 688 304 665 264 665 196 c 0
 665 132 690 97 739 97 c 0
EndSplineSet
EndChar

StartChar: uni0E45
Encoding: 3653 3653 188
Width: 1000
Flags: W
HStem: 1001 148<322.582 623.246>
VStem: 65 173<834.845 910.219> 723 160<-380 896.168>
LayerCount: 2
Fore
SplineSet
449 1149 m 0
 673 1149 883 1070 883 753 c 2
 883 -380 l 1
 723 -380 l 1
 723 729 l 2
 723 907 636 1001 460 1001 c 0
 342 1001 268 934 238 811 c 1
 65 837 l 1
 77 895 142 1149 449 1149 c 0
EndSplineSet
EndChar

StartChar: uni0E46
Encoding: 3654 3654 189
Width: 1100
Flags: W
HStem: 512 95<281.894 425.941> 808 92<337.528 430.522>
VStem: 139 130<615.25 799.354> 440 98<617.155 798.511> 788 160<-374 942.334>
LayerCount: 2
Fore
SplineSet
352 607 m 0
 412 607 440 652 440 718 c 0
 440 778 404 808 354 808 c 0
 300 808 269 775 269 713 c 0
 269 652 291 607 352 607 c 0
699 1155 m 1
 886 1124 948 893 948 789 c 2
 948 -374 l 1
 788 -374 l 1
 788 817 l 2
 788 884 749 956 699 985 c 1
 555 887 l 1
 396 985 l 1
 369 966 349 935 337 892 c 1
 357 901 379 900 405 900 c 0
 484 900 538 835 538 732 c 0
 538 588 468 512 340 512 c 0
 194 512 139 612 139 756 c 0
 139 995 287 1106 396 1155 c 1
 396 1154 449 1118 555 1047 c 1
 699 1155 l 1
EndSplineSet
EndChar

StartChar: uni0E47
Encoding: 3655 3655 190
Width: 0
Flags: W
HStem: 1284 176<-559.75 -386.665> 1284 146<-879.533 -829.816> 1372 152<-787.105 -665.421> 1417 43<-499.424 -455> 1583 53<-501.411 -397.34> 1660 118<-834.702 -450.232>
VStem: -1035 148<1431.34 1607.9> -575 62<1468.79 1574.43> -397 142<1829.61 1894> -385 93<1463.88 1579.89>
AnchorPoint: "AboveBase" -290 1227 mark 0
LayerCount: 2
Fore
SplineSet
-453 1583 m 0x8f40
 -486 1583 -513 1558 -513 1517 c 0
 -513 1482 -484 1460 -445 1460 c 0
 -408 1460 -385 1483 -385 1519 c 0
 -385 1558 -412 1583 -453 1583 c 0x8f40
-455 1417 m 1x1f80
 -554 1417 -575 1483 -575 1522 c 0
 -575 1590 -516 1636 -452 1636 c 0
 -384 1636 -328 1610 -312 1566 c 0
 -302 1538 -292 1509 -292 1476 c 0
 -292 1370 -360 1284 -468 1284 c 0x8f40
 -653 1284 -677 1372 -754 1372 c 0x2f40
 -796 1372 -785 1298 -795 1284 c 1
 -963 1284 -1035 1398 -1035 1510 c 0
 -1035 1617 -980 1778 -641 1778 c 0
 -551 1778 -435 1786 -397 1894 c 1
 -255 1894 l 1
 -255 1804 -366 1700 -459 1675 c 0
 -491 1666 -547 1660 -628 1660 c 0
 -824 1660 -887 1600 -887 1505 c 0
 -887 1471 -868 1430 -839 1430 c 1x4f80
 -835 1470 -822 1524 -754 1524 c 0x2f80
 -699 1524 -645 1452 -580 1426 c 1
 -547 1414 -487 1398 -455 1417 c 1x1f80
EndSplineSet
Substitution2: "Thai Phinthu Maitaikhu Reordering" uni0E3A
Substitution2: "Thai Mark High Variant" uni0E47.high
EndChar

StartChar: uni0E48
Encoding: 3656 3656 191
Width: 0
Flags: W
HStem: 1826 280<-333 -191>
VStem: -333 142<1826 2106>
AnchorPoint: "AboveMark" -262 1740 mark 0
LayerCount: 2
Fore
SplineSet
-333 2106 m 1
 -191 2106 l 1
 -191 1826 l 1
 -333 1826 l 1
 -333 2106 l 1
EndSplineSet
Substitution2: "Thai Phinthu Mai Ek Reordering" uni0E3A
Substitution2: "Thai Sara UU Mai Ek Reordering" uni0E39
Substitution2: "Thai Sara U Mai Ek Reordering" uni0E38
Substitution2: "Thai Tone Low Variant" uni0E48.low
MultipleSubs2: "Thai Tone Nikhahit Attachment" uni0E4D uni0E48
EndChar

StartChar: uni0E49
Encoding: 3657 3657 192
Width: 0
Flags: W
HStem: 1703 80<-591 -528.774> 1882 63<-587.691 -489.463> 2102 68<-589.417 -462.922>
VStem: -679 73<1960.04 2085.5> -448 99<1955.13 2092.06>
AnchorPoint: "AboveMark" -286 1740 mark 0
LayerCount: 2
Fore
SplineSet
-397 1848 m 1
 -167 1934 -95 2096 -75 2156 c 1
 67 2156 l 1
 -3 1869 -330 1703 -591 1703 c 1
 -591 1783 l 1
 -541 1798 -504 1831 -489 1893 c 1
 -506 1886 -524 1882 -543 1882 c 0
 -618 1882 -679 1939 -679 2020 c 0
 -679 2110 -614 2170 -539 2170 c 0
 -418 2170 -349 2102 -349 2009 c 0
 -349 1950 -367 1888 -397 1848 c 1
-525 1945 m 0
 -488 1945 -448 1982 -448 2024 c 0
 -448 2070 -490 2102 -525 2102 c 0
 -564 2102 -606 2066 -606 2024 c 0
 -606 1982 -570 1945 -525 1945 c 0
EndSplineSet
Substitution2: "Thai Phinthu Mai Tho Reordering" uni0E3A
Substitution2: "Thai Sara UU Mai Tho Reordering" uni0E39
Substitution2: "Thai Sara U Mai Tho Reordering" uni0E38
Substitution2: "Thai Tone Low Variant" uni0E49.low
MultipleSubs2: "Thai Tone Nikhahit Attachment" uni0E4D uni0E49
EndChar

StartChar: uni0E4A
Encoding: 3658 3658 193
Width: 0
Flags: W
HStem: 1668 68<-689.84 -585.665> 1856 58<-688.441 -588.19>
VStem: -872 127<1838.15 1981.24> -579 54<1746.32 1845> -273 121<1810.35 1975.58>
DStem2: -155 1839 -4 1832 0.357493 0.933916<5.2387 360.029>
AnchorPoint: "AboveMark" -458 1740 mark 0
LayerCount: 2
Fore
SplineSet
-579 1799 m 0
 -579 1828 -606 1856 -638 1856 c 0
 -677 1856 -696 1832 -696 1792 c 0
 -696 1760 -674 1736 -640 1736 c 0
 -606 1736 -579 1761 -579 1799 c 0
-365 2154 m 1
 -239 2112 -152 1979 -152 1880 c 0
 -152 1867 -153 1854 -155 1839 c 1
 -10 2169 l 1
 125 2169 l 1
 -4 1832 l 1
 -58 1685 -267 1672 -325 1672 c 1
 -290 1725 -273 1781 -273 1840 c 0
 -273 1920 -311 1987 -365 2020 c 1
 -507 1902 l 1
 -548 1937 -606 1993 -647 2020 c 1
 -700 1999 -745 1940 -745 1873 c 0
 -745 1861 -744 1849 -741 1837 c 1
 -741 1837 -727 1914 -635 1914 c 0
 -566 1914 -525 1860 -525 1803 c 0
 -525 1712 -586 1668 -676 1668 c 0
 -802 1668 -872 1754 -872 1886 c 0
 -872 2047 -715 2129 -647 2154 c 1
 -507 2036 l 1
 -365 2154 l 1
EndSplineSet
Substitution2: "Thai Phinthu Mai Tri Reordering" uni0E3A
Substitution2: "Thai Sara UU Mai Tri Reordering" uni0E39
Substitution2: "Thai Sara U Mai Tri Reordering" uni0E38
Substitution2: "Thai Tone Low Variant" uni0E4A.low
MultipleSubs2: "Thai Tone Nikhahit Attachment" uni0E4D uni0E4A
EndChar

StartChar: uni0E4B
Encoding: 3659 3659 194
Width: 0
Flags: W
HStem: 1812 142<-590 -448 -306 -164>
VStem: -448 142<1670 1812 1954 2096>
AnchorPoint: "AboveMark" -377 1640 mark 0
LayerCount: 2
Fore
SplineSet
-164 1812 m 1
 -306 1812 l 1
 -306 1670 l 1
 -448 1670 l 1
 -448 1812 l 1
 -590 1812 l 1
 -590 1954 l 1
 -448 1954 l 1
 -448 2096 l 1
 -306 2096 l 1
 -306 1954 l 1
 -164 1954 l 1
 -164 1812 l 1
EndSplineSet
Substitution2: "Thai Phinthu Mai Chattawa Reordering" uni0E3A
Substitution2: "Thai Sara UU Mai Chattawa Reordering" uni0E39
Substitution2: "Thai Sara U Mai Chattawa Reordering" uni0E38
Substitution2: "Thai Tone Low Variant" uni0E4B.low
MultipleSubs2: "Thai Tone Nikhahit Attachment" uni0E4D uni0E4B
EndChar

StartChar: uni0E4C
Encoding: 3660 3660 195
Width: 0
Flags: W
HStem: 1621 84<-487.287 -328.65>
VStem: -617 113<1722.88 1871.03> -314 105<1717.78 1872.98>
AnchorPoint: "AboveMark" -389 1740 mark 0
LayerCount: 2
Fore
SplineSet
-617 1805 m 0
 -617 2114 -242 1974 -127 2169 c 1
 28 2169 l 1
 16 2111 -114 1981 -321 1942 c 1
 -248 1928 -209 1864 -209 1789 c 0
 -209 1716 -272 1621 -389 1621 c 0
 -524 1621 -617 1700 -617 1805 c 0
-409 1885 m 0
 -463 1885 -504 1852 -504 1792 c 0
 -504 1743 -452 1705 -404 1705 c 0
 -360 1705 -314 1740 -314 1795 c 0
 -314 1856 -356 1885 -409 1885 c 0
EndSplineSet
Substitution2: "Thai Phinthu Thanthakhat Reordering" uni0E3A
Substitution2: "Thai Sara UU Thanthakhat Reordering" uni0E39
Substitution2: "Thai Sara U Thanthakhat Reordering" uni0E38
Substitution2: "Thai Tone Low Variant" uni0E4C.low
MultipleSubs2: "Thai Tone Nikhahit Attachment" uni0E4D uni0E4C
EndChar

StartChar: uni0E4D
Encoding: 3661 3661 196
Width: 0
Flags: W
HStem: 1212 138<-371.464 -218.803> 1521 147<-371.835 -217.455>
VStem: -527 147<1358.81 1512.36> -207 141<1361.48 1512.12>
AnchorPoint: "AboveMark" -262 1740 basemark 0
AnchorPoint: "AboveBase" -140 1227 mark 0
LayerCount: 2
Fore
SplineSet
-299 1668 m 0
 -156 1668 -66 1576 -66 1441 c 0
 -66 1304 -148 1212 -299 1212 c 0
 -436 1212 -527 1294 -527 1441 c 0
 -527 1576 -439 1668 -299 1668 c 0
-295 1521 m 0
 -347 1521 -380 1488 -380 1436 c 0
 -380 1381 -349 1350 -295 1350 c 0
 -244 1350 -207 1384 -207 1436 c 0
 -207 1490 -244 1521 -295 1521 c 0
EndSplineSet
Substitution2: "Thai Phinthu Nikhahit Reordering" uni0E3A
Substitution2: "Thai Sara UU Nikhahit Reordering" uni0E39
Substitution2: "Thai Sara U Nikhahit Reordering" uni0E38
Substitution2: "Thai Mark High Variant" uni0E4D.high
EndChar

StartChar: uni0E4E
Encoding: 3662 3662 197
Width: 0
Flags: W
HStem: 1444 110<-405.336 -135> 1686 112<-389.236 -168> 1925 111<-394.393 -104.926>
VStem: -543 123<1580.09 1669.06> -520 123<1813.42 1914.89>
AnchorPoint: "AboveBase" -140 1227 mark 0
LayerCount: 2
Fore
SplineSet
-520 1872 m 0xe8
 -520 1946 -463 2036 -279 2036 c 0
 -223 2036 -164 2028 -102 2013 c 1
 -102 1901 l 1
 -165 1917 -221 1925 -270 1925 c 0
 -355 1925 -397 1905 -397 1866 c 0xe8
 -397 1821 -344 1798 -238 1798 c 2
 -168 1798 l 1
 -168 1686 l 1
 -233 1686 l 2
 -358 1686 -420 1666 -420 1626 c 0
 -420 1583 -331 1554 -213 1554 c 2
 -135 1554 l 1
 -135 1444 l 1
 -219 1444 l 2
 -319 1444 -398 1461 -456 1495 c 0
 -514 1529 -543 1569 -543 1616 c 0xf0
 -543 1679 -490 1729 -434 1743 c 1
 -491 1772 -520 1815 -520 1872 c 0xe8
EndSplineSet
EndChar

StartChar: uni0E4F
Encoding: 3663 3663 198
Width: 1250
Flags: W
HStem: -21 121<430.859 803.398> 258 103<505.792 727.295> 658 105<505.578 727.08> 917 123<428.611 804.051>
VStem: 97 109<324.966 695.572> 363 101<403.335 616.828> 770 100<403.335 617.043> 1029 108<324.374 691.413>
LayerCount: 2
Fore
SplineSet
1029 508 m 0
 1029 739 842 917 617 917 c 0
 504 917 407 877 327 797 c 0
 246 717 206 621 206 508 c 0
 206 272 397 100 617 100 c 0
 839 100 1029 273 1029 508 c 0
464 509 m 0
 464 420 529 361 617 361 c 0
 705 361 770 420 770 509 c 0
 770 598 705 658 617 658 c 0
 529 658 464 598 464 509 c 0
1137 509 m 0
 1137 204 898 -21 616 -21 c 0
 473 -21 351 31 250 134 c 0
 148 238 97 363 97 509 c 0
 97 656 148 781 250 884 c 1
 351 988 473 1040 616 1040 c 0
 760 1040 883 988 985 884 c 0
 1086 781 1137 656 1137 509 c 0
870 511 m 0
 870 367 768 258 616 258 c 0
 464 258 363 367 363 511 c 0
 363 655 463 763 616 763 c 0
 767 763 870 656 870 511 c 0
EndSplineSet
EndChar

StartChar: uni0E50
Encoding: 3664 3664 199
Width: 1250
Flags: W
HStem: -10 173<461.995 785.712> 751 173<464.972 793.265>
VStem: 150 172<299.806 605.256> 939 173<308.196 607.493>
LayerCount: 2
Fore
SplineSet
322 457 m 0
 322 281 462 163 625 163 c 0
 802 163 939 297 939 457 c 0
 939 611 813 751 625 751 c 0
 450 751 322 614 322 457 c 0
622 -10 m 0
 363 -10 150 182 150 458 c 0
 150 705 348 924 622 924 c 0
 897 924 1112 720 1112 458 c 0
 1112 207 900 -10 622 -10 c 0
EndSplineSet
EndChar

StartChar: uni0E51
Encoding: 3665 3665 200
Width: 1300
Flags: W
HStem: -10 155<369.138 762.862> 203 159<444.84 664.396> 409 76<589.379 666.056> 603 84<589.332 706.369> 765 159<482.348 807.671>
VStem: 212 178<418.79 671.74> 489 96<487.417 599.976> 709 144<434.902 599.102> 934 173<303.848 641.231>
LayerCount: 2
Back
SplineSet
612 924 m 0
 1008 924 1107 653.098 1107 453 c 0
 1107 164.5 904.208 -10.8607 583 -10 c 4
 420 -10 277 34 185 115 c 1
 271 254 l 1
 351 186 444 146 581 145 c 0
 764 151 924 258 934 450 c 0
 935 659 827 761 623 765 c 0
 496 765 392 678 390 541 c 0
 393 425 468 362 573 362 c 0
 620 362 663 378 667 421 c 1
 656 413 640 409 620 409 c 0
 534 409 489 462 489 550 c 0
 489 630 558 687 653 687 c 0
 786 687 853 588 853 462 c 0
 853 312 732 203 572 203 c 0
 384 203 212 330 212 552 c 0
 212 774 394 924 612 924 c 0
585 545 m 0
 585 511 611 485 647 485 c 0
 678 485 709 509 709 548 c 0
 709 582 684 603 645 603 c 0
 611 603 585 576 585 545 c 0
EndSplineSet
Fore
SplineSet
612 924 m 0
 1008 924 1107 653 1107 453 c 0
 1107 164 904 -10 583 -10 c 0
 420 -10 277 34 185 115 c 1
 271 254 l 1
 351 186 444 145 581 145 c 0
 756 145 934 267 934 450 c 0
 934 659 826 765 623 765 c 0
 496 765 390 674 390 541 c 0
 390 426 468 362 573 362 c 0
 618 362 667 380 667 421 c 1
 656 413 640 409 620 409 c 0
 534 409 489 462 489 550 c 0
 489 630 558 687 653 687 c 0
 786 687 853 588 853 462 c 0
 853 312 732 203 572 203 c 0
 384 203 212 330 212 552 c 0
 212 774 394 924 612 924 c 0
585 545 m 0
 585 511 611 485 647 485 c 0
 678 485 709 509 709 548 c 0
 709 582 684 603 645 603 c 0
 611 603 585 576 585 545 c 0
EndSplineSet
EndChar

StartChar: uni0E52
Encoding: 3666 3666 201
Width: 1350
Flags: W
HStem: 0 174<476.324 1041> 343 110<594.796 712.755> 571 108<653 711.966>
VStem: 456 135<456.674 617> 715 111<455.717 566.681> 1041 173<174 678.472>
LayerCount: 2
Fore
SplineSet
591 513 m 0
 591 480 617 453 653 453 c 0
 690 453 715 477 715 516 c 0
 715 543 690 571 651 571 c 0
 617 571 591 555 591 513 c 0
534 0 m 18
 444 0 392 36 327 92 c 0
 142 251 308 589 75 1134 c 1
 269 1134 l 1
 329 979 370 788 393 560 c 1
 417 362 408 309 445 252 c 0
 475 206 528 174 582 174 c 2
 1041 174 l 1
 1041 506 l 2
 1041 649 976 716 936 744 c 1
 936 743 901 720 832 674 c 1
 718 744 l 1
 693 733 672 711 653 679 c 1
 680 679 l 18
 738 679 826 615 826 511 c 0
 826 426 762 343 659 343 c 0
 528 343 456 447 456 570 c 0
 456 664 480 724 526 790 c 0
 555 832 655 906 718 924 c 1
 718 923 756 892 832 831 c 1
 936 924 l 1
 999 912 1137 816 1187 679 c 0
 1205 631 1214 573 1214 506 c 2
 1214 0 l 1
 534 0 l 18
EndSplineSet
EndChar

StartChar: uni0E53
Encoding: 3667 3667 202
Width: 1400
Flags: W
HStem: -11 103<316.525 434.785> 210 122<314.916 432.436> 753 171<309.534 518.747 878.344 1073.16>
VStem: 89 175<316.887 706.912> 436 115<94.5329 206.036> 644 130<216 558.571> 1129 170<156.262 693.606>
LayerCount: 2
Fore
SplineSet
378 92 m 0
 424 92 436 118 436 152 c 0
 436 184 408 210 370 210 c 0
 340 210 314 184 314 160 c 0
 314 114 335 92 378 92 c 0
89 561 m 0
 89 768 192 924 403 924 c 0
 552 924 652 862 705 768 c 1
 756 856 839 924 967 924 c 0
 1184 924 1299 779 1299 489 c 0
 1299 312 1275 195 1229 0 c 1
 1053 0 l 1
 1104 252 1129 360 1129 511 c 0
 1129 656 1078 753 983 753 c 0
 888 753 824 664 807 570 c 0
 788 465 774 333 774 216 c 1
 644 216 l 1
 644 336 616 472 597 573 c 0
 581 657 512 753 412 753 c 0
 323 753 264 680 264 597 c 0
 264 491 270 397 301 314 c 1
 326 326 354 332 383 332 c 0
 480 332 551 256 551 163 c 0
 551 69 497 -11 394 -11 c 0
 288 -11 238 15 198 94 c 0
 144 200 89 424 89 561 c 0
EndSplineSet
EndChar

StartChar: uni0E54
Encoding: 3668 3668 203
Width: 1550
Flags: W
HStem: -6 164<442.272 817.71> 313 115<1038 1102.83> 580 112<969.758 1102.79> 762 162<442.124 1108.33>
VStem: 127 176<297.83 625.791> 813 148<436.24 572.911> 1112 115<437.099 572.355> 1278 184<1106.43 1262>
LayerCount: 2
Fore
SplineSet
1038 313 m 1
 1128 223 1251 259 1382 145 c 1
 1253 -2 l 1
 1195 49 1145 76 1030 76 c 0
 929 76 676 -6 580 -6 c 0
 330 -6 127 215 127 469 c 0
 127 772 358 924 672 924 c 2
 918 924 l 2
 1130 924 1250 1037 1278 1262 c 1
 1462 1262 l 1
 1432 931 1241 762 913 762 c 2
 653 762 l 2
 420 762 303 652 303 461 c 0
 303 293 427 158 590 158 c 0
 651 158 769 182 942 231 c 1
 883 272 813 369 813 459 c 0
 813 604 904 692 1036 692 c 0
 1140 692 1227 605 1227 504 c 0
 1227 400 1142 313 1038 313 c 1
1036 428 m 0
 1076 428 1112 461 1112 502 c 0
 1112 544 1078 580 1036 580 c 0
 995 580 961 548 961 502 c 0
 961 462 996 428 1036 428 c 0
EndSplineSet
EndChar

StartChar: uni0E55
Encoding: 3669 3669 204
Width: 1550
Flags: W
HStem: -6 164<445.756 822.147> 313 115<1038 1102.83> 580 112<969.758 1102.2> 762 160<448.045 618 724.176 859.133 969 1103.21> 1073 113<728.094 855.926>
VStem: 127 176<306.305 626.759> 602 115<929.355 1062.99> 813 148<436.24 571.883> 868 115<931.959 1062.32> 1112 115<437.099 571.399> 1278 184<1105.72 1262>
LayerCount: 2
Fore
SplineSet
1038 313 m 1xff60
 1129 222 1249 259 1380 145 c 1
 1253 -2 l 1
 1195 49 1140 76 1030 76 c 0
 929 76 682 -6 580 -6 c 0
 338 -6 127 215 127 469 c 0
 127 748 344 922 618 922 c 1
 607 948 602 973 602 997 c 0
 602 1100 692 1186 793 1186 c 0
 900 1186 983 1092 983 997 c 0xfee0
 983 970 978 947 969 926 c 1
 1150 945 1253 1057 1278 1262 c 1
 1462 1262 l 1
 1432 931 1241 762 913 762 c 2
 653 762 l 2
 420 762 303 652 303 461 c 0
 303 293 436 158 590 158 c 0
 651 158 769 182 942 231 c 1
 883 272 813 369 813 459 c 0
 813 588 904 692 1036 692 c 0
 1140 692 1227 604 1227 504 c 0
 1227 400 1142 313 1038 313 c 1xff60
793 922 m 0
 820 922 868 956 868 995 c 0
 868 1036 820 1073 793 1073 c 0
 751 1073 717 1028 717 995 c 0
 717 956 754 922 793 922 c 0
1036 428 m 0
 1076 428 1112 461 1112 502 c 0
 1112 540 1076 580 1036 580 c 0
 995 580 961 548 961 502 c 0xff60
 961 462 996 428 1036 428 c 0
EndSplineSet
EndChar

StartChar: uni0E56
Encoding: 3670 3670 205
Width: 1300
Flags: W
HStem: -16 155<586.351 885.575> 215 115<555 620.81> 481 113<486.627 620.399> 760 168<412.909 851.107>
VStem: 328 149<246.212 471.411> 629 112<337.606 472.518> 1020 176<273.108 603.385>
LayerCount: 2
Fore
SplineSet
1020 436 m 0
 1020 630 879 760 653 760 c 0
 540 760 439 741 348 702 c 1
 247 945 135 1131 12 1262 c 1
 260 1262 l 1
 337 1141 391 1015 422 885 c 1
 498 914 575 928 653 928 c 0
 975 928 1196 731 1196 436 c 0
 1196 161 990 -16 719 -16 c 0
 488 -16 328 155 328 338 c 0
 328 489 424 594 551 594 c 0
 653 594 741 513 741 406 c 0
 741 334 686 215 555 215 c 1
 575 176 658 139 719 139 c 0
 894 139 1020 258 1020 436 c 0
553 330 m 0
 592 330 629 364 629 403 c 0
 629 445 594 481 553 481 c 0
 512 481 477 445 477 403 c 0
 477 364 514 330 553 330 c 0
EndSplineSet
EndChar

StartChar: uni0E57
Encoding: 3671 3671 206
Width: 1540
Flags: W
HStem: -16 112<326.534 460.595> 0 178<1042 1188.4> 248 114<323.258 460.893> 760 164<346.715 473.756 730.584 859.128>
VStem: 127 176<153.722 717.701> 469 115<102.999 240.275> 514 174<467 718.709> 899 178<182.183 725.001> 1229 188<220.368 1130>
LayerCount: 2
Fore
SplineSet
393 -16 m 0xbd80
 287 -16 127 59 127 436 c 0
 127 761 220 924 406 924 c 0
 498 924 563 875 602 776 c 1
 643 875 708 924 799 924 c 0
 984 924 1077 761 1077 436 c 0
 1077 349 1065 263 1042 178 c 1
 1057 178 l 2
 1172 178 1229 231 1229 338 c 2
 1229 1130 l 1
 1417 1130 l 1
 1417 334 l 2
 1417 111 1297 0 1057 0 c 2
 791 0 l 1
 791 10 l 1
 835 81 899 276 899 436 c 0
 899 625 879 760 799 760 c 0
 725 760 688 662 688 467 c 1
 514 467 l 1x7b80
 514 662 478 760 406 760 c 0
 337 760 303 652 303 436 c 0
 303 389 305 359 309 348 c 1
 329 357 358 362 395 362 c 0
 509 362 584 271 584 172 c 0
 584 69 501 -16 393 -16 c 0xbd80
393 96 m 0xbd80
 435 96 469 129 469 174 c 0
 469 214 436 248 393 248 c 0
 352 248 317 217 317 174 c 0
 317 132 348 96 393 96 c 0xbd80
EndSplineSet
EndChar

StartChar: uni0E58
Encoding: 3672 3672 207
Width: 1580
Flags: W
HStem: 0 170<417.527 532> 283 166<647.061 801.798> 309 115<1134.64 1274> 575 113<1134.14 1272.55>
VStem: 127 176<297.8 635.578> 532 168<170 279.624> 1014 114<431.037 568.693> 1280 178<187.547 564.751 1077.3 1262>
LayerCount: 2
Fore
SplineSet
575 0 m 2xdf
 319 0 127 193 127 469 c 0
 127 642 202 891 613 917 c 0
 925 937 1275 875 1278 1262 c 1
 1462 1262 l 1
 1423 841 1149 789 979 776 c 0
 653 751 303 832 303 461 c 0
 303 292 423 170 532 170 c 1
 532 312 586 449 713 449 c 0xdf
 818 449 894 369 963 287 c 1
 1041 203 1048 168 1155 154 c 0
 1212 146 1288 207 1288 324 c 1
 1269 314 1240 309 1202 309 c 0xbf
 1092 309 1014 398 1014 500 c 0
 1014 602 1099 688 1204 688 c 0
 1356 688 1458 562 1458 381 c 0
 1458 68 1277 -12 1155 -12 c 0
 937 -12 809 283 743 283 c 0
 714 283 700 236 700 141 c 2
 700 0 l 1
 575 0 l 2xdf
1204 424 m 0xbf
 1245 424 1280 455 1280 498 c 0
 1280 541 1253 575 1204 575 c 0
 1162 575 1128 547 1128 498 c 0
 1128 458 1160 424 1204 424 c 0xbf
EndSplineSet
EndChar

StartChar: uni0E59
Encoding: 3673 3673 208
Width: 1500
Flags: W
HStem: -16 112<326.875 460.595> 0 21G<817.527 999> 248 114<324.277 460.66> 555 166<1053.38 1153.2> 760 164<372.169 536.843 819.299 918.991>
VStem: 127 176<153.722 673.642> 469 115<103.232 239.803> 1214 185<804.865 1130>
DStem2: 768 604 621 546 0.357217 -0.934021<-48.1998 584.51>
LayerCount: 2
Fore
SplineSet
874 924 m 0xbf
 1001 924 1046 721 1104 721 c 0
 1163 721 1200 857 1214 1130 c 1
 1399 1130 l 1
 1387 899 1353 555 1120 555 c 0
 959 555 928 760 874 760 c 0
 840 760 805 708 768 604 c 1
 999 0 l 1
 825 0 l 1x7f
 621 546 l 1
 541 754 500 760 467 760 c 0
 401 760 303 710 303 436 c 0
 303 395 305 366 309 348 c 1
 329 357 358 362 395 362 c 0
 509 362 584 271 584 172 c 0
 584 69 501 -16 393 -16 c 0
 287 -16 127 59 127 436 c 0
 127 711 219 924 467 924 c 0
 570 924 649 875 702 776 c 1
 745 875 802 924 874 924 c 0xbf
393 96 m 0xbf
 435 96 469 132 469 174 c 0
 469 213 433 248 393 248 c 0
 353 248 317 213 317 174 c 0
 317 132 352 96 393 96 c 0xbf
EndSplineSet
EndChar

StartChar: uni0E5A
Encoding: 3674 3674 209
Width: 1400
Flags: W
HStem: 0 21G<865 1025 1093 1253> 655 148<462 662.722> 1005 104<250.605 400.294>
VStem: 126 117<845.32 996.57> 407 124<845.868 997.321> 865 160<0 801 977.369 1120> 1093 160<0 1120>
LayerCount: 2
Fore
SplineSet
462 803 m 1
 666 803 865 933 865 1120 c 1
 1025 1120 l 1
 1025 0 l 1
 865 0 l 1
 865 801 l 1
 770 713 630 655 460 655 c 0
 288 655 126 747 126 921 c 0
 126 1027 208 1109 330 1109 c 0
 457 1109 531 1035 531 926 c 0
 531 865 509 824 462 803 c 1
315 837 m 0
 376 837 407 868 407 928 c 0
 407 971 376 1005 327 1005 c 0
 277 1005 243 979 243 924 c 0
 243 879 280 837 315 837 c 0
1253 0 m 1
 1093 0 l 1
 1093 1120 l 1
 1253 1120 l 1
 1253 0 l 1
EndSplineSet
EndChar

StartChar: uni0E5B
Encoding: 3675 3675 210
Width: 2370
Flags: W
HStem: -10 158<450.887 806.082> 88 269<1268.77 1327.13 1575.24 1659.86> 218 108<1885.87 2358> 272 158<541.116 743.352> 340 8<1616 1776> 375 240<1114.95 1221.56> 462 88<540.291 630.189> 658 75<526.958 629.593> 812 174<428.104 725.85>
VStem: 133 154<310.006 666.158> 380 144<471.862 648.018> 632 84<551.313 655.531> 796 165<484.643 744.442>
LayerCount: 2
Fore
SplineSet
796 626 m 0x13f8
 796 752 691 812 572 812 c 0
 458 812 287 730 287 483 c 0
 287 238 487 148 608 148 c 0x93f8
 736 148 867 203 925 282 c 0
 1063 471 1051 615 1151 615 c 0
 1288 615 1244 357 1292 357 c 0x45f8
 1334 357 1349 494 1355 518 c 0
 1366 568 1395 615 1457 615 c 0
 1578 615 1544 348 1616 348 c 0
 1670 348 1662 507 1760 507 c 0
 1838 507 1848 326 1979 326 c 2
 2358 326 l 1
 2358 218 l 1
 1973 218 l 2
 1841 218 1794 340 1776 340 c 0x2df8
 1733 340 1705 94 1600 94 c 0
 1538 94 1512 224 1488 297 c 8
 1480 321 1461 351 1450 351 c 0
 1407 351 1391 88 1292 88 c 0
 1205 88 1193 173 1158 315 c 0
 1154 330 1151 375 1145 375 c 0x45f8
 1115 375 1115 274 1004 138 c 0
 918 33 792 -10 604 -10 c 0
 360 -10 133 198 133 483 c 0
 133 882 436 986 578 986 c 0
 884 986 961 771 961 611 c 0
 961 522 915 426 875 388 c 0
 829 344 747 272 612 272 c 0x91f8
 539 272 480 296 434 348 c 0x09f8
 403 383 380 418 380 500 c 0
 380 627 470 733 561 733 c 0
 657 733 716 672 716 600 c 0
 716 504 636 462 584 462 c 8
 566 462 540 471 540 471 c 1
 552 438 604 430 640 430 c 0
 765 430 796 561 796 626 c 0x13f8
632 605 m 0
 632 635 612 658 578 658 c 0
 548 658 524 636 524 602 c 0
 524 572 547 550 580 550 c 0
 611 550 632 572 632 605 c 0
EndSplineSet
EndChar

StartChar: zerowidthjoiner
Encoding: 8205 8205 212
Width: 0
Flags: W
LayerCount: 2
Back
SplineSet
36 -275 m 1
 -36 -275 l 1
 -36 1114 l 1
 -170 978 l 1
 -219 1027 l 1
 -48 1196 l 1
 -219 1364 l 1
 -170 1413 l 1
 0 1242 l 1
 170 1413 l 1
 219 1364 l 1
 48 1196 l 1
 219 1027 l 1
 170 978 l 1
 36 1114 l 1
 36 -275 l 1
EndSplineSet
EndChar

StartChar: afii299
Encoding: 8206 8206 213
Width: 0
Flags: W
LayerCount: 2
Back
SplineSet
430 1198 m 1
 213 984 l 1
 164 1033 l 1
 301 1163 l 1
 35 1163 l 1
 35 -275 l 1
 -36 -275 l 1
 -36 1234 l 1
 301 1234 l 1
 164 1364 l 1
 213 1413 l 1
 430 1198 l 1
EndSplineSet
EndChar

StartChar: afii300
Encoding: 8207 8207 214
Width: 0
Flags: W
LayerCount: 2
Back
SplineSet
35 -275 m 1
 -36 -275 l 1
 -36 1163 l 1
 -302 1163 l 1
 -165 1033 l 1
 -214 984 l 1
 -431 1198 l 1
 -214 1413 l 1
 -165 1364 l 1
 -302 1234 l 1
 35 1234 l 1
 35 -275 l 1
EndSplineSet
EndChar

StartChar: uni2010
Encoding: 8208 8208 215
Width: 973
Flags: W
HStem: 580 165<190 815>
VStem: 190 625<580 745>
LayerCount: 2
Fore
SplineSet
190 745 m 1
 815 745 l 1
 815 580 l 1
 190 580 l 1
 190 745 l 1
EndSplineSet
EndChar

StartChar: endash
Encoding: 8211 8211 216
Width: 1125
Flags: W
HStem: 572 160<-4 1122>
LayerCount: 2
Fore
SplineSet
1122 572 m 1
 -4 572 l 1
 -4 732 l 1
 1122 732 l 1
 1122 572 l 1
EndSplineSet
EndChar

StartChar: emdash
Encoding: 8212 8212 217
Width: 1886
Flags: W
HStem: 572 160<-4 1866>
LayerCount: 2
Fore
SplineSet
1866 572 m 1
 -4 572 l 1
 -4 732 l 1
 1866 732 l 1
 1866 572 l 1
EndSplineSet
EndChar

StartChar: horizontalbar
Encoding: 8213 8213 218
Width: 1862
Flags: W
HStem: 572 160<110 1752>
LayerCount: 2
Fore
SplineSet
1752 572 m 1
 110 572 l 1
 110 732 l 1
 1752 732 l 1
 1752 572 l 1
EndSplineSet
EndChar

StartChar: underscoredbl
Encoding: 8215 8215 219
Width: 1118
Flags: W
HStem: -423 130<-16 1134> -212 130<-16 1134>
LayerCount: 2
Fore
SplineSet
1134 -212 m 1
 -16 -212 l 1
 -16 -82 l 1
 1134 -82 l 1
 1134 -212 l 1
1134 -423 m 1
 -16 -423 l 1
 -16 -293 l 1
 1134 -293 l 1
 1134 -423 l 1
EndSplineSet
EndChar

StartChar: quoteleft
Encoding: 8216 8216 220
Width: 450
Flags: W
HStem: 997 559
VStem: -64 399
LayerCount: 2
Fore
SplineSet
335 997 m 1
 197 997 l 1
 -64 1556 l 1
 178 1556 l 1
 335 997 l 1
EndSplineSet
EndChar

StartChar: quoteright
Encoding: 8217 8217 221
Width: 580
Flags: W
HStem: 997 559
VStem: 97 399
LayerCount: 2
Fore
SplineSet
496 1556 m 1
 235 997 l 1
 97 997 l 1
 254 1556 l 1
 496 1556 l 1
EndSplineSet
EndChar

StartChar: quotesinglbase
Encoding: 8218 8218 222
Width: 432
Flags: W
HStem: -276 559
VStem: -13 399
LayerCount: 2
Fore
SplineSet
386 283 m 1
 125 -276 l 1
 -13 -276 l 1
 144 283 l 1
 386 283 l 1
EndSplineSet
EndChar

StartChar: quotereversed
Encoding: 8219 8219 223
Width: 432
Flags: W
HStem: 997 559
VStem: -64 399
LayerCount: 2
Fore
SplineSet
335 1556 m 1
 178 997 l 1
 -64 997 l 1
 197 1556 l 1
 335 1556 l 1
EndSplineSet
EndChar

StartChar: quotedblleft
Encoding: 8220 8220 224
Width: 850
Flags: W
HStem: 997 559
LayerCount: 2
Fore
SplineSet
725 997 m 1
 591 997 l 1
 330 1556 l 1
 568 1556 l 1
 725 997 l 1
331 997 m 1
 197 997 l 1
 -64 1556 l 1
 174 1556 l 1
 331 997 l 1
EndSplineSet
EndChar

StartChar: quotedblright
Encoding: 8221 8221 225
Width: 1000
Flags: W
HStem: 997 559
LayerCount: 2
Fore
SplineSet
896 1556 m 1
 635 997 l 1
 501 997 l 1
 658 1556 l 1
 896 1556 l 1
502 1556 m 1
 241 997 l 1
 107 997 l 1
 264 1556 l 1
 502 1556 l 1
EndSplineSet
EndChar

StartChar: quotedblbase
Encoding: 8222 8222 226
Width: 814
Flags: W
HStem: -276 559
LayerCount: 2
Fore
SplineSet
781 283 m 1
 520 -276 l 1
 386 -276 l 1
 543 283 l 1
 781 283 l 1
387 283 m 1
 126 -276 l 1
 -8 -276 l 1
 149 283 l 1
 387 283 l 1
EndSplineSet
EndChar

StartChar: dagger
Encoding: 8224 8224 227
Width: 1118
Flags: W
HStem: 1034 129<135 498 620 983>
VStem: 493 132<135 1039 1158 1556>
LayerCount: 2
Fore
SplineSet
983 1034 m 1
 620 1039 l 1
 625 135 l 1
 493 135 l 1
 498 1039 l 1
 135 1034 l 1
 135 1163 l 1
 498 1158 l 1
 493 1556 l 1
 625 1556 l 1
 620 1158 l 1
 983 1163 l 1
 983 1034 l 1
EndSplineSet
EndChar

StartChar: daggerdbl
Encoding: 8225 8225 228
Width: 1118
Flags: W
HStem: 507 129<135 498 620 983> 1049 119<135 498 620 983>
VStem: 498 122<124 512 631 1049 1168 1556>
LayerCount: 2
Fore
SplineSet
983 507 m 1
 620 512 l 1
 625 124 l 1
 493 124 l 1
 498 512 l 1
 135 507 l 1
 135 636 l 1
 498 631 l 1
 498 1049 l 1
 135 1044 l 1
 135 1173 l 1
 498 1168 l 1
 493 1556 l 1
 625 1556 l 1
 620 1168 l 1
 983 1173 l 1
 983 1044 l 1
 620 1049 l 1
 620 631 l 1
 983 636 l 1
 983 507 l 1
EndSplineSet
EndChar

StartChar: bullet
Encoding: 8226 8226 229
Width: 950
Flags: W
HStem: 311 702<297.627 636.15>
VStem: 114 703<493.298 829.373>
LayerCount: 2
Fore
SplineSet
465 1013 m 0
 668 1013 817 851 817 662 c 0
 817 472 667 311 465 311 c 0
 271 311 114 465 114 662 c 0
 114 856 268 1013 465 1013 c 0
EndSplineSet
EndChar

StartChar: ellipsis
Encoding: 8230 8230 230
Width: 1650
Flags: W
HStem: 0 223<177 381 735 939 1293 1497>
VStem: 177 204<0 223> 735 204<0 223> 1293 204<0 223>
CounterMasks: 1 70
LayerCount: 2
Fore
SplineSet
1497 0 m 1
 1293 0 l 1
 1293 223 l 1
 1497 223 l 1
 1497 0 l 1
939 0 m 1
 735 0 l 1
 735 223 l 1
 939 223 l 1
 939 0 l 1
381 0 m 1
 177 0 l 1
 177 223 l 1
 381 223 l 1
 381 0 l 1
EndSplineSet
EndChar

StartChar: perthousand
Encoding: 8240 8240 231
Width: 2848
Flags: W
HStem: -29 133<1430.39 1657.4 2274.39 2501.4> 0 21G<528 703.477> 634 133<340.39 567.399> 721 133<1431.96 1657.4 2275.96 2501.4> 1384 133<341.958 567.399>
VStem: 102 178<831.82 1317.16> 629 178<832.805 1318.63> 1192 178<168.82 654.157> 1719 178<170.026 655.631> 2036 178<168.82 654.157> 2563 178<170.026 655.631>
DStem2: 528 0 693 0 0.464029 0.88582<76.5648 1680.93>
LayerCount: 2
Fore
SplineSet
455 1517 m 0x2fe0
 666 1517 807 1396 807 1076 c 0
 807 755 666 634 455 634 c 0
 243 634 102 757 102 1075 c 0
 102 1394 243 1517 455 1517 c 0x2fe0
1473 1489 m 1
 693 0 l 1
 528 0 l 1x4fe0
 1308 1489 l 1
 1473 1489 l 1
1545 854 m 0x9fe0
 1756 854 1897 733 1897 413 c 0
 1897 93 1756 -29 1545 -29 c 0
 1333 -29 1192 94 1192 412 c 0
 1192 731 1333 854 1545 854 c 0x9fe0
455 767 m 0x2fe0
 559 767 629 820 629 1076 c 0
 629 1332 559 1384 455 1384 c 0
 350 1384 280 1328 280 1075 c 0
 280 814 350 767 455 767 c 0x2fe0
1545 104 m 0x9fe0
 1649 104 1719 157 1719 413 c 0
 1719 669 1649 721 1545 721 c 0
 1440 721 1370 665 1370 412 c 0
 1370 151 1440 104 1545 104 c 0x9fe0
2389 854 m 0
 2600 854 2741 733 2741 413 c 0
 2741 93 2600 -29 2389 -29 c 0
 2177 -29 2036 94 2036 412 c 0
 2036 731 2177 854 2389 854 c 0
2389 104 m 0
 2493 104 2563 157 2563 413 c 0
 2563 669 2493 721 2389 721 c 0
 2284 721 2214 665 2214 412 c 0
 2214 151 2284 104 2389 104 c 0
EndSplineSet
EndChar

StartChar: minute
Encoding: 8242 8242 232
Width: 602
Flags: W
HStem: 870 619
VStem: 137 434
LayerCount: 2
Fore
SplineSet
571 1489 m 1
 273 870 l 1
 137 870 l 1
 331 1489 l 1
 571 1489 l 1
EndSplineSet
EndChar

StartChar: second
Encoding: 8243 8243 233
Width: 972
Flags: W
HStem: 870 619
LayerCount: 2
Fore
SplineSet
567 1489 m 1
 269 870 l 1
 137 870 l 1
 331 1489 l 1
 567 1489 l 1
961 1489 m 1
 663 870 l 1
 531 870 l 1
 725 1489 l 1
 961 1489 l 1
EndSplineSet
EndChar

StartChar: guilsinglleft
Encoding: 8249 8249 234
Width: 784
Flags: W
VStem: 123 510
DStem2: 123 697 302 652 0.760834 0.648947<106.987 541.177> 302 652 123 608 0.760098 -0.649809<0 434.189>
LayerCount: 2
Fore
SplineSet
633 172 m 1
 123 608 l 1
 123 697 l 1
 633 1132 l 1
 633 933 l 1
 302 652 l 1
 633 371 l 1
 633 172 l 1
EndSplineSet
EndChar

StartChar: guilsinglright
Encoding: 8250 8250 235
Width: 784
Flags: W
VStem: 151 510
DStem2: 151 1132 151 933 0.760834 -0.648947<129.14 563.33> 151 371 151 172 0.760098 0.649809<0 434.189>
LayerCount: 2
Fore
SplineSet
661 608 m 1
 151 172 l 1
 151 371 l 1
 482 652 l 1
 151 933 l 1
 151 1132 l 1
 661 697 l 1
 661 608 l 1
EndSplineSet
EndChar

StartChar: uni203E
Encoding: 8254 8254 237
Width: 1118
Flags: W
HStem: 1658 131<-48 1118>
LayerCount: 2
Fore
SplineSet
1118 1658 m 1
 -48 1658 l 1
 -48 1789 l 1
 1118 1789 l 1
 1118 1658 l 1
EndSplineSet
EndChar

StartChar: fraction
Encoding: 8260 8260 238
Width: 886
Flags: W
HStem: 0 21G<-29 146.477>
DStem2: -29 0 136 0 0.464029 0.88582<76.5648 1680.93>
LayerCount: 2
Fore
SplineSet
916 1489 m 1
 136 0 l 1
 -29 0 l 1
 751 1489 l 1
 916 1489 l 1
EndSplineSet
EndChar

StartChar: uni207F
Encoding: 8319 8319 239
Width: 1010
Flags: W
HStem: 1368 151<416.563 673.178>
VStem: 125 171<566 1288.47 1388 1488> 718 172<566 1322.99>
LayerCount: 2
Fore
SplineSet
586 1519 m 0
 695 1519 890 1478 890 1163 c 2
 890 566 l 1
 718 566 l 1
 718 1088 l 2
 718 1274 707 1368 541 1368 c 0
 492 1368 423 1357 296 1254 c 1
 296 566 l 1
 125 566 l 1
 125 1488 l 1
 296 1488 l 1
 296 1388 l 1
 443 1514 528 1519 586 1519 c 0
EndSplineSet
EndChar

StartChar: dottedcircle
Encoding: 9676 9676 240
Width: 1255
Flags: W
HStem: 7 121<553.139 669.709> 68 121<847.139 963.929> 98 121<288.139 405.099> 234 121<1013.14 1129.93> 249 121<145.139 261.709> 445 121<24.1394 141.099 1090.45 1202.81> 679 121<39.1394 155.709 1074.14 1191.1> 868 121<145.139 261.929> 891 121<967.139 1083.71> 1011 121<334.139 451.099> 1034 121<779.139 895.929> 1079 121<560.139 677.099>
VStem: 22 121<447.213 563.929> 37 121<681.213 797.635> 143 121<251.213 367.635 870.213 987.099> 286 121<100.213 216.929> 332 121<1013.21 1129.93> 551 121<9.21281 125.635 1083.05 1195.67> 777 121<1036.21 1153.1> 845 121<70.2128 187.099> 965 121<893.213 1009.64> 1011 121<236.213 353.099> 1086 121<440.213 556.929 686.328 792.637>
LayerCount: 2
Fore
SplineSet
203 868 m 0x070240
 168 868 143 894 143 928 c 0
 143 962 167 989 203 989 c 0
 240 989 264 962 264 928 c 0
 264 893 237 868 203 868 c 0x070240
392 1011 m 0x0640c0
 357 1011 332 1037 332 1071 c 0
 332 1105 357 1132 392 1132 c 0
 426 1132 453 1108 453 1071 c 0
 453 1035 426 1011 392 1011 c 0x0640c0
618 1079 m 0x061040
 583 1079 558 1105 558 1139 c 0
 558 1173 583 1200 618 1200 c 0
 652 1200 679 1176 679 1139 c 0
 679 1103 652 1079 618 1079 c 0x061040
82 445 m 0
 47 445 22 471 22 505 c 0
 22 539 47 566 82 566 c 0
 116 566 143 542 143 505 c 0x060840
 143 469 116 445 82 445 c 0
203 249 m 0x0e0240
 168 249 143 275 143 309 c 0
 143 343 168 370 203 370 c 0
 238 370 264 342 264 309 c 0
 264 274 237 249 203 249 c 0x0e0240
346 98 m 0x260140
 311 98 286 124 286 158 c 0
 286 192 310 219 346 219 c 0
 380 219 407 195 407 158 c 0
 407 122 380 98 346 98 c 0x260140
611 7 m 0x860040
 576 7 551 33 551 67 c 0
 551 101 576 128 611 128 c 0
 646 128 672 100 672 67 c 0
 672 32 645 7 611 7 c 0x860040
905 68 m 0x460050
 870 68 845 94 845 128 c 0x860050
 845 162 869 189 905 189 c 0x460050
 942 189 966 162 966 128 c 0x860050
 966 93 939 68 905 68 c 0x460050
1071 234 m 0x160044
 1036 234 1011 260 1011 294 c 0
 1011 328 1035 355 1071 355 c 0
 1108 355 1132 328 1132 294 c 0
 1132 259 1105 234 1071 234 c 0x160044
1146 438 m 0
 1111 438 1086 464 1086 498 c 0
 1086 532 1110 559 1146 559 c 0
 1180 559 1207 535 1207 498 c 0x060042
 1207 462 1180 438 1146 438 c 0
1132 679 m 0x060044
 1097 679 1072 705 1072 739 c 0
 1072 773 1097 800 1132 800 c 0
 1166 800 1193 776 1193 739 c 0
 1193 703 1166 679 1132 679 c 0x060044
1025 891 m 0x068048
 990 891 965 917 965 951 c 0
 965 985 990 1012 1025 1012 c 0
 1060 1012 1086 984 1086 951 c 0
 1086 916 1059 891 1025 891 c 0x068048
837 1034 m 0x062060
 802 1034 777 1060 777 1094 c 0
 777 1128 801 1155 837 1155 c 0
 874 1155 898 1128 898 1094 c 0
 898 1059 871 1034 837 1034 c 0x062060
97 679 m 0
 62 679 37 705 37 739 c 0
 37 773 62 800 97 800 c 0
 132 800 158 772 158 739 c 0x060440
 158 704 131 679 97 679 c 0
EndSplineSet
EndChar

StartChar: uni0E10.descless
Encoding: 63232 63232 241
Width: 1130
Flags: W
HStem: -10 148<541.679 732.135> 290 113<211.744 357.112> 571 126<211.171 360.377> 917 148<776.668 978> 1001 148<391.181 771.364>
VStem: 102 101<409.825 563.511> 357 160<161.889 317 408.083 567.049> 757 160<166.258 603.384>
LayerCount: 2
Fore
SplineSet
324 872 m 1xef
 694 797 917 737 917 574 c 2
 917 279 l 2
 917 86 823 -10 637 -10 c 0
 450 -10 357 88 357 283 c 2
 357 317 l 1
 346 303 325 290 293 290 c 0
 174 290 102 353 102 481 c 0
 102 620 172 697 305 697 c 0
 442 697 517 601 517 428 c 2
 517 283 l 2
 517 188 557 138 637 138 c 0
 717 138 757 188 757 279 c 2
 757 529 l 2
 757 622 612 685 80 762 c 1
 163 1020 320 1149 549 1149 c 0xef
 759 1149 826 1065 961 1065 c 0
 981 1065 1000 1067 1017 1072 c 1
 978 924 l 1
 964 922 949 917 934 917 c 0xf7
 794 917 754 1001 550 1001 c 0
 486 1001 379 989 324 872 c 1xef
275 403 m 0
 335 403 367 434 367 494 c 0
 367 544 338 571 287 571 c 0
 237 571 203 544 203 490 c 0
 203 445 226 403 275 403 c 0
EndSplineSet
EndChar

StartChar: uni0E48.low
Encoding: 63242 63242 251
Width: 0
Flags: W
HStem: 1306 280<-310 -168>
VStem: -310 142<1306 1586>
AnchorPoint: "AboveBase" -180 1227 mark 0
LayerCount: 2
Fore
SplineSet
-310 1586 m 1
 -168 1586 l 1
 -168 1306 l 1
 -310 1306 l 1
 -310 1586 l 1
EndSplineSet
EndChar

StartChar: uni0E49.low
Encoding: 63243 63243 252
Width: 0
Flags: W
HStem: 1243 80<-733 -666.95> 1428 71<-722.362 -629.84> 1628 82<-725.963 -607.926>
VStem: -821 90<1503.21 1623.85> -602 111<1502.28 1623.86>
AnchorPoint: "AboveBase" -240 1227 mark 0
LayerCount: 2
Fore
SplineSet
-664 1499 m 0
 -631 1499 -602 1530 -602 1564 c 0
 -602 1597 -631 1628 -664 1628 c 0
 -696 1628 -731 1601 -731 1564 c 0
 -731 1530 -701 1499 -664 1499 c 0
-539 1388 m 1
 -309 1474 -237 1636 -217 1696 c 1
 -75 1696 l 1
 -132 1462 -373 1261 -733 1243 c 1
 -733 1323 l 1
 -657 1342 -637 1408 -629 1442 c 1
 -646 1433 -666 1428 -688 1428 c 0
 -746 1428 -821 1456 -821 1570 c 0
 -821 1646 -751 1710 -681 1710 c 0
 -519 1710 -491 1601 -491 1549 c 0
 -491 1485 -510 1428 -539 1388 c 1
EndSplineSet
EndChar

StartChar: uni0E4A.low
Encoding: 63244 63244 253
Width: 0
Flags: W
HStem: 1242 88<-677.994 -546.39> 1411 78<-624.731 -545.158> 1477 21G<-475.5 -430.727>
VStem: -820 127<1391.59 1556.32> -545 72<1331.75 1409.17> -221 122<1384.3 1552.23>
DStem2: -102 1413 48 1406 0.357493 0.933916<4.46192 360.029>
AnchorPoint: "AboveBase" 0 1227 mark 0
LayerCount: 2
Fore
SplineSet
-545 1373 m 0xdc
 -545 1395 -565 1411 -589 1411 c 0
 -612 1411 -626 1395 -626 1368 c 0
 -626 1346 -609 1330 -588 1330 c 0
 -560 1330 -545 1347 -545 1373 c 0xdc
-473 1382 m 0
 -473 1285 -531 1242 -624 1242 c 0
 -730 1242 -820 1313 -820 1461 c 0
 -820 1621 -656 1708 -594 1728 c 1
 -455 1611 l 1
 -313 1728 l 1
 -205 1692 -99 1574 -99 1451 c 0
 -99 1438 -100 1426 -102 1413 c 1
 43 1743 l 1
 177 1743 l 1
 48 1406 l 1
 -10 1258 -208 1249 -273 1246 c 1
 -238 1299 -221 1355 -221 1414 c 0
 -221 1498 -258 1562 -313 1594 c 1
 -455 1477 l 1xbc
 -496 1512 -553 1567 -594 1594 c 1
 -651 1571 -691 1522 -693 1445 c 0
 -693 1424 -689 1406 -681 1391 c 1
 -690 1455 -640 1489 -583 1489 c 0
 -516 1489 -473 1432 -473 1382 c 0
EndSplineSet
EndChar

StartChar: uni0E4B.low
Encoding: 63245 63245 254
Width: 0
Flags: W
HStem: 1370 142<-468 -326 -184 -42>
VStem: -326 142<1228 1370 1512 1654>
AnchorPoint: "AboveBase" -60 1227 mark 0
LayerCount: 2
Fore
SplineSet
-42 1370 m 1
 -184 1370 l 1
 -184 1228 l 1
 -326 1228 l 1
 -326 1370 l 1
 -468 1370 l 1
 -468 1512 l 1
 -326 1512 l 1
 -326 1654 l 1
 -184 1654 l 1
 -184 1512 l 1
 -42 1512 l 1
 -42 1370 l 1
EndSplineSet
EndChar

StartChar: uni0E4C.low
Encoding: 63246 63246 255
Width: 0
Flags: W
HStem: 1248 84<-585.463 -426.627>
VStem: -714 113<1347.7 1498.08> -411 105<1345.75 1499.72>
AnchorPoint: "AboveBase" -300 1227 mark 0
LayerCount: 2
Fore
SplineSet
-486 1248 m 0
 -576 1248 -714 1287 -714 1450 c 0
 -714 1502 -687 1564 -650 1596 c 0
 -580 1656 -413 1675 -376 1690 c 1
 -320 1710 -253 1747 -224 1796 c 1
 -69 1796 l 1
 -91 1734 -206 1610 -418 1569 c 1
 -321 1548 -306 1454 -306 1416 c 0
 -306 1390 -328 1330 -352 1302 c 0
 -372 1278 -420 1248 -486 1248 c 0
-506 1512 m 0
 -559 1512 -601 1474 -601 1419 c 0
 -601 1371 -560 1332 -501 1332 c 0
 -460 1332 -411 1367 -411 1422 c 0
 -411 1474 -444 1512 -506 1512 c 0
EndSplineSet
EndChar

StartChar: uni0E0D.descless
Encoding: 63247 63247 256
Width: 1745
Flags: W
HStem: -11 116<311.96 453.982> 0 148<1053 1463> 273 124<319.386 458.247> 1001 148<405.342 760.823>
VStem: 159 160<369 560.709> 159 142<113.69 265.117> 465 107<115.687 265.832> 893 160<148 856.737> 1463 160<148 1139>
LayerCount: 2
Fore
SplineSet
893 657 m 2x7b80
 893 878 784 1001 596 1001 c 0
 450 1001 341 940 268 825 c 1
 347 808 410 754 457 663 c 1
 365 592 319 505 319 403 c 2
 319 369 l 1x7b80
 335 387 360 397 395 397 c 0
 521 397 572 320 572 196 c 0
 572 60 489 -11 362 -11 c 0
 227 -11 159 86 159 258 c 2xb780
 159 403 l 2
 159 508 202 598 288 671 c 1
 261 730 195 770 90 792 c 1
 195 1030 364 1149 596 1149 c 0
 896 1149 1053 986 1053 673 c 2
 1053 148 l 1
 1463 148 l 1
 1463 1139 l 1
 1623 1139 l 1
 1623 0 l 1
 893 0 l 1
 893 657 l 2x7b80
373 105 m 0xb780
 433 105 465 142 465 196 c 0
 465 243 432 273 385 273 c 0
 335 273 301 242 301 192 c 0
 301 147 328 105 373 105 c 0xb780
EndSplineSet
EndChar

StartChar: uniF71B
Encoding: 63259 63259 268
Width: 1000
Flags: W
HStem: 1065 20G<215 830>
VStem: 215 615<61 1085>
LayerCount: 2
Fore
SplineSet
830 1085 m 1
 830 61 l 1
 215 61 l 1
 215 1085 l 1
 830 1085 l 1
EndSplineSet
EndChar

StartChar: uniF71C
Encoding: 63260 63260 269
Width: 700
Flags: W
HStem: -423 269<244 245>
VStem: 107 379
LayerCount: 2
Fore
SplineSet
107 -423 m 1
 244 -154 l 1
 486 -154 l 1
 245 -423 l 1
 107 -423 l 1
EndSplineSet
EndChar

StartChar: uniF71D
Encoding: 63261 63261 270
Width: 800
Flags: W
HStem: -236 211<182 266 532 616> -127 102<266 532>
VStem: 182 84<-236 -127> 532 84<-236 -127>
LayerCount: 2
Fore
SplineSet
616 -236 m 1xb0
 532 -236 l 1xb0
 532 -127 l 1
 266 -127 l 1x70
 266 -236 l 1
 182 -236 l 1
 182 -25 l 1
 616 -25 l 1
 616 -236 l 1xb0
EndSplineSet
EndChar

StartChar: zerowidthnonjoiner
Encoding: 8204 8204 271
Width: 0
Flags: W
LayerCount: 2
Back
SplineSet
36 1289 m 1
 36 -275 l 1
 -36 -275 l 1
 -36 1289 l 1
 36 1289 l 1
EndSplineSet
EndChar

StartChar: ff
Encoding: 64256 64256 274
Width: 1112
Flags: W
HStem: 0 21G<178 357 721 900> 922 140<19 178 357 721 900 1079> 1316 172<494.199 640 1037.2 1183> 1343 172<394.815 637.405 937.815 1180.41>
VStem: 178 179<0 922 1062 1306.99> 721 179<0 922 1062 1306.99>
LayerCount: 2
Fore
SplineSet
1035 1343 m 0xdc
 958 1343 900 1294 900 1160 c 2
 900 1062 l 1
 1079 1062 l 1
 1079 922 l 1
 900 922 l 1
 900 0 l 1
 721 0 l 1
 721 922 l 1
 357 922 l 1
 357 0 l 1
 178 0 l 1
 178 922 l 1
 19 922 l 1
 19 1062 l 1
 178 1062 l 1
 178 1175 l 2
 178 1447 355 1515 487 1515 c 0xdc
 538 1515 589 1506 640 1488 c 1
 640 1316 l 1xec
 580 1336 539 1343 492 1343 c 0
 415 1343 357 1294 357 1160 c 2
 357 1062 l 1
 721 1062 l 1
 721 1175 l 2
 721 1447 898 1515 1030 1515 c 0xdc
 1081 1515 1132 1506 1183 1488 c 1
 1183 1316 l 1xec
 1123 1336 1082 1343 1035 1343 c 0xdc
EndSplineSet
LCarets2: 1 0 
Ligature2: "'liga' Standard Ligatures lookup 0" f f
EndChar

StartChar: fi
Encoding: 64257 64257 275
Width: 992
Flags: W
HStem: 0 21G<178 357 673 853> 922 140<19 178 357 673> 1259 207<673 853> 1343 172<394.601 637.588>
VStem: 178 179<0 922 1062 1306.29> 673 180<0 922 1259 1466>
LayerCount: 2
Fore
SplineSet
673 1259 m 1xec
 673 1466 l 1
 853 1466 l 1
 853 1259 l 1
 673 1259 l 1xec
357 1160 m 2
 357 1062 l 1
 853 1062 l 1
 853 0 l 1
 673 0 l 1
 673 922 l 1
 357 922 l 1
 357 0 l 1
 178 0 l 1
 178 922 l 1
 19 922 l 1
 19 1062 l 1
 178 1062 l 1
 178 1175 l 2
 178 1447 355 1515 487 1515 c 0
 538 1515 589 1506 640 1488 c 1
 640 1316 l 1
 588 1333 541 1343 501 1343 c 0xdc
 411 1343 357 1292 357 1160 c 2
EndSplineSet
LCarets2: 1 0 
Ligature2: "'liga' Standard Ligatures lookup 0" f i
EndChar

StartChar: fl
Encoding: 64258 64258 276
Width: 994
Flags: W
HStem: 0 21G<178 357 670 850> 922 140<19 178 357 536> 1343 172<421.525 667.498>
VStem: 178 179<0 922 1062 1278.03> 670 180<0 1342.17>
LayerCount: 2
Fore
SplineSet
592 1343 m 0
 458 1343 357 1294 357 1160 c 2
 357 1062 l 1
 536 1062 l 1
 536 922 l 1
 357 922 l 1
 357 0 l 1
 178 0 l 1
 178 922 l 1
 19 922 l 1
 19 1062 l 1
 178 1062 l 1
 178 1175 l 2
 178 1447 353 1515 583 1515 c 0
 672 1515 761 1484 850 1466 c 1
 850 0 l 1
 670 0 l 1
 670 1336 l 1
 639 1342 623 1343 592 1343 c 0
EndSplineSet
LCarets2: 1 0 
Ligature2: "'liga' Standard Ligatures lookup 0" f l
EndChar

StartChar: ffi
Encoding: 64259 64259 277
Width: 1535
Flags: W
HStem: 0 21G<178 357 721 900 1216 1396> 922 140<19 178 357 721 900 1216> 1259 207<1216 1396> 1316 172<502.88 640 1045.88 1183> 1343 172<394.601 637.588 937.601 1180.59>
VStem: 178 179<0 922 1062 1306.29> 721 179<0 922 1062 1306.29> 1216 180<0 922 1259 1466>
LayerCount: 2
Fore
SplineSet
900 1160 m 2xcf
 900 1062 l 1
 1396 1062 l 1
 1396 0 l 1
 1216 0 l 1
 1216 922 l 1
 900 922 l 1
 900 0 l 1
 721 0 l 1
 721 922 l 1
 357 922 l 1
 357 0 l 1
 178 0 l 1
 178 922 l 1
 19 922 l 1
 19 1062 l 1
 178 1062 l 1
 178 1175 l 2
 178 1447 355 1515 487 1515 c 0xcf
 538 1515 589 1506 640 1488 c 1
 640 1316 l 1xd7
 588 1333 541 1343 501 1343 c 0
 411 1343 357 1292 357 1160 c 2
 357 1062 l 1
 721 1062 l 1
 721 1175 l 2
 721 1447 898 1515 1030 1515 c 0xcf
 1081 1515 1132 1506 1183 1488 c 1
 1183 1316 l 1xd7
 1131 1333 1084 1343 1044 1343 c 0
 954 1343 900 1292 900 1160 c 2xcf
1216 1259 m 1xe7
 1216 1466 l 1
 1396 1466 l 1
 1396 1259 l 1
 1216 1259 l 1xe7
EndSplineSet
LCarets2: 2 0 0 
Ligature2: "'liga' Standard Ligatures lookup 0" ff i
Ligature2: "'liga' Standard Ligatures lookup 0" f f i
EndChar

StartChar: ffl
Encoding: 64260 64260 278
Width: 1537
Flags: W
HStem: 0 21G<178 357 721 900 1213 1393> 922 140<19 178 357 721 900 1079> 1343 172<394.943 637.68 971.314 1210.61>
VStem: 178 179<0 922 1062 1306.23> 721 179<0 922 1062 1276.79> 1213 180<0 1341.68>
LayerCount: 2
Fore
SplineSet
900 1160 m 2
 900 1062 l 1
 1079 1062 l 1
 1079 922 l 1
 900 922 l 1
 900 0 l 1
 721 0 l 1
 721 922 l 1
 357 922 l 1
 357 0 l 1
 178 0 l 1
 178 922 l 1
 19 922 l 1
 19 1062 l 1
 178 1062 l 1
 178 1175 l 2
 178 1447 355 1515 487 1515 c 0
 538 1515 589 1506 640 1488 c 1
 640 1316 l 1
 592 1332 544 1343 502 1343 c 0
 419 1343 357 1299 357 1160 c 2
 357 1062 l 1
 721 1062 l 1
 721 1175 l 2
 721 1447 896 1515 1126 1515 c 0
 1215 1515 1304 1484 1393 1466 c 1
 1393 0 l 1
 1213 0 l 1
 1213 1336 l 1
 1187 1341 1159 1343 1132 1343 c 0
 1014 1343 900 1294 900 1160 c 2
EndSplineSet
LCarets2: 2 0 0 
Ligature2: "'liga' Standard Ligatures lookup 0" ff l
Ligature2: "'liga' Standard Ligatures lookup 0" f f l
EndChar

StartChar: dotlessi
Encoding: 305 305 279
Width: 455
Flags: W
HStem: 0 21G<136 316> 1042 20G<136 316>
VStem: 136 180<0 1062>
LayerCount: 2
Fore
SplineSet
136 0 m 1
 136 1062 l 1
 316 1062 l 1
 316 0 l 1
 136 0 l 1
EndSplineSet
EndChar

StartChar: dotlessj
Encoding: 567 567 280
Width: 455
Flags: W
HStem: -428 161<-92.0353 99.0322> 1042 20G<134 314>
VStem: 134 180<-233.094 1062>
LayerCount: 2
Fore
SplineSet
314 -58 m 2
 314 -336 204 -428 39 -428 c 0
 -1 -428 -45 -423 -94 -412 c 1
 -94 -259 l 1
 -59 -264 -30 -267 -7 -267 c 0
 90 -267 134 -223 134 -54 c 2
 134 1062 l 1
 314 1062 l 1
 314 -58 l 2
EndSplineSet
EndChar

StartChar: ae
Encoding: 230 230 281
Width: 1877
Flags: W
HStem: -11 158<315.716 663.966 1146.91 1493.69> 491 158<1009 1600> 928 158<372.118 742.233 1144.18 1482.28>
VStem: 74 192<195.891 395.15> 105 176<757.045 830.003> 813 192<298.282 491> 1600 186<249.388 333>
LayerCount: 2
Back
SplineSet
1005 485 m 1
 1011 213 1173 152 1320 152 c 0
 1470 151 1563 214 1600 333 c 1
 1786 333 l 1
 1746 124 1574 -10 1319 -10 c 0
 997 -10 813 183 813 522 c 0
 813 859 991 1086 1309 1086 c 0
 1624 1086 1790 863 1792 520 c 0
 1792 508 1792 496 1791 485 c 1
 1005 485 l 1
1600 649 m 1
 1590 757 1542 914 1311 914 c 0
 1141 914 1019 803 1009 649 c 1
 1600 649 l 1
995 445 m 2xb6
 995 405 951.467 236.451 828 131 c 0
 732 49 616 -24 437 -24 c 0
 149 -24 74 155 74 280 c 0xba
 74 402 146 535 332 585 c 0
 451 616 659 621 813 674 c 1
 814 699 819 716 814 721 c 1
 814 849 759 937 558 937 c 0
 389 937 318 883 281 735 c 1
 105 759 l 1
 146 990 321 1086 584 1086 c 0
 999 1086 995 864 995 685 c 2
 995 445 l 2xb6
266 285 m 0xba
 266 218 307 117 480 117 c 0
 628 117 737 188 784 287 c 0
 803 328 813 388 813 467 c 2
 813 533 l 1
 582 437 266 500 266 285 c 0xba
EndSplineSet
Fore
SplineSet
266 291 m 0xf6
 266 230 307 147 480 147 c 0
 628 147 737 188 784 287 c 0
 809 340 813 438 813 533 c 1
 582 437 266 500 266 291 c 0xf6
1600 649 m 1
 1590 767 1542 928 1311 928 c 0
 1141 928 1019 813 1009 649 c 1
 1600 649 l 1
1005 491 m 1
 1011 219 1173 147 1320 147 c 0
 1470 147 1563 214 1600 333 c 1
 1786 333 l 1
 1746 124 1574 -11 1319 -11 c 0
 1121 -11 975 63 892 199 c 1
 802 79 624 -11 437 -11 c 0
 149 -11 74 167 74 286 c 0xf6
 74 402 146 535 332 585 c 0
 451 616 659 621 813 674 c 1
 813 821 785 928 558 928 c 0
 389 928 318 873 281 735 c 1
 105 759 l 1xee
 146 990 321 1086 584 1086 c 0
 801 1086 904 1030 952 946 c 1
 1036 1038 1156 1086 1309 1086 c 0
 1618 1086 1791 879 1791 491 c 1
 1005 491 l 1
EndSplineSet
EndChar

StartChar: AE
Encoding: 198 198 282
Width: 1951
Flags: W
HStem: 0 179<1057 1807> 471 182<504 878> 646 180<1057 1631> 1237 213<771 878> 1268 182<1057 1807>
VStem: 878 179<179 471 826 1236>
DStem2: -2 0 203 0 0.415315 0.909678<85.1396 603.306 804.169 1446.31>
LayerCount: 2
Back
SplineSet
878 0 m 1
 878 1450 l 1
 1807 1450 l 1
 1807 1268 l 1
 1057 1268 l 1
 1057 826 l 1
 1631 826 l 1
 1631 646 l 1
 1057 646 l 1
 1057 179 l 1
 1807 179 l 1
 1807 0 l 1
 878 0 l 1
981 471 m 1
 419 471 l 1
 203 0 l 1
 -2 0 l 1
 660 1450 l 1
 949 1450 l 1
 927 1236 l 1
 771 1237 l 1
 504 653 l 1
 949 653 l 1
 981 471 l 1
EndSplineSet
Fore
SplineSet
660 1450 m 1xcc
 1807 1450 l 1
 1807 1268 l 1
 1057 1268 l 1
 1057 826 l 1
 1631 826 l 1
 1631 646 l 1
 1057 646 l 1xac
 1057 179 l 1
 1807 179 l 1
 1807 0 l 1
 878 0 l 1
 878 471 l 1
 419 471 l 1
 203 0 l 1
 -2 0 l 1
 660 1450 l 1xcc
878 1236 m 1
 771 1237 l 1
 504 653 l 1
 878 653 l 1xd4
 878 1236 l 1
EndSplineSet
EndChar

StartChar: questiondown
Encoding: 191 191 283
Width: 1139
Flags: W
HStem: 0 163<398.264 716.827> 1123 20G<485 658> 1299 205<464 669>
VStem: 90 187<279.682 554.519> 464 205<1299 1504> 485 171<948.396 1143> 855 185<311.591 458>
LayerCount: 2
Fore
SplineSet
1040 458 m 1xf6
 1026 202 850 0 565 0 c 0
 296 0 90 174 90 399 c 0
 90 759 485 746 485 1143 c 1
 658 1143 l 1
 656 1068 l 2
 647 711 277 682 277 416 c 0
 277 302 367 163 562 163 c 0
 739 163 829 282 855 458 c 1
 1040 458 l 1xf6
669 1504 m 1xfa
 669 1299 l 1
 464 1299 l 1
 464 1504 l 1
 669 1504 l 1xfa
EndSplineSet
EndChar

StartChar: oe
Encoding: 339 339 284
Width: 1942
Flags: W
HStem: -11 158<400.253 731.069 1208.52 1558.69> 485 158<1074 1665> 928 158<400.854 724.858 1211.99 1544.26>
VStem: 68 185<303.357 761.215> 878 192<309.23 485 643 761.261> 1665 186<249.388 333>
LayerCount: 2
Back
SplineSet
1070 485 m 1
 1076 213 1238 147 1385 147 c 0
 1535 147 1628 214 1665 333 c 1
 1851 333 l 1
 1811 124 1639 -11 1384 -11 c 0
 1062 -11 878 183 878 522 c 0
 878 859 1056 1086 1374 1086 c 0
 1683 1086 1856 882 1856 485 c 1
 1070 485 l 1
1665 643 m 1
 1655 765 1607 928 1376 928 c 0
 1206 928 1084 811 1074 643 c 1
 1665 643 l 1
566 -11 m 0
 246 -11 68 190 68 531 c 0
 68 867 244 1086 566 1086 c 0
 874 1086 1063 874 1063 546 c 0
 1063 116 820 -11 566 -11 c 0
566 928 m 0
 358 928 253 773 253 531 c 0
 253 201 441 147 566 147 c 0
 775 147 878 293 878 537 c 0
 878 858 691 928 566 928 c 0
EndSplineSet
Fore
SplineSet
566 928 m 0
 358 928 253 773 253 531 c 0
 253 201 441 147 566 147 c 0
 775 147 878 293 878 537 c 0
 878 858 691 928 566 928 c 0
566 -11 m 0
 246 -11 68 190 68 531 c 0
 68 867 244 1086 566 1086 c 0
 748 1086 887 1012 972 884 c 1
 1055 1011 1192 1086 1374 1086 c 0
 1683 1086 1856 882 1856 485 c 1
 1070 485 l 1
 1076 213 1238 147 1385 147 c 0
 1535 147 1628 214 1665 333 c 1
 1851 333 l 1
 1811 124 1639 -11 1384 -11 c 0
 1196 -11 1055 55 970 177 c 1
 876 37 723 -11 566 -11 c 0
1665 643 m 1
 1655 765 1607 928 1376 928 c 0
 1206 928 1084 811 1074 643 c 1
 1665 643 l 1
EndSplineSet
EndChar

StartChar: OE
Encoding: 338 338 285
Width: 2208
Flags: W
HStem: -10 180<541.078 878.531 1314 2064> 646 180<1314 1888> 1268 182<1314 2064> 1298 180<533.987 873.932>
VStem: 104 200<456.824 1014.15> 1114 200<459.586 646 826 1001.74>
LayerCount: 2
Back
SplineSet
1135 0 m 1
 1135 1450 l 1
 2064 1450 l 1
 2064 1268 l 1
 1314 1268 l 1
 1314 826 l 1
 1888 826 l 1
 1888 646 l 1
 1314 646 l 1
 1314 179 l 1
 2064 179 l 1
 2064 0 l 1
 1135 0 l 1
709 -10 m 0
 370 -10 104 306 104 714 c 0
 104 1188 364 1478 710 1478 c 0
 1048 1478 1314 1176 1314 731 c 0
 1314 277 1030 -10 709 -10 c 0
711 1298 m 0
 404 1298 304 1002 304 711 c 0
 304 383 482 170 708 170 c 0
 940 170 1114 384 1114 732 c 0
 1114 1072 945 1298 711 1298 c 0
EndSplineSet
Fore
SplineSet
711 1298 m 0xdc
 404 1298 304 1002 304 711 c 0
 304 383 482 170 708 170 c 0
 940 170 1114 384 1114 732 c 0
 1114 1072 945 1298 711 1298 c 0xdc
709 -10 m 0
 370 -10 104 306 104 714 c 0
 104 1188 364 1478 710 1478 c 0xdc
 877 1478 1027 1404 1135 1276 c 1
 1135 1450 l 1
 2064 1450 l 1
 2064 1268 l 1
 1314 1268 l 1xec
 1314 826 l 1
 1888 826 l 1
 1888 646 l 1
 1314 646 l 1
 1314 179 l 1
 2064 179 l 1
 2064 0 l 1
 1135 0 l 1
 1135 194 l 1
 1024 63 871 -10 709 -10 c 0
EndSplineSet
EndChar

StartChar: trademark
Encoding: 8482 8482 286
Width: 1760
Flags: W
HStem: 1275 175<48 293 473 719>
VStem: 293 180<635 1275> 816 180<635 1010> 1424 180<635 1010>
DStem2: 1210 870 996 1010 0.365851 -0.930673<-208.586 0> 1210 870 1280 635 0.365851 0.930673<0 208.586>
LayerCount: 2
Fore
SplineSet
1280 635 m 1
 1140 635 l 1
 996 1010 l 1
 996 635 l 1
 816 635 l 1
 816 1450 l 1
 982 1450 l 1
 1210 870 l 1
 1438 1450 l 1
 1604 1450 l 1
 1604 635 l 1
 1424 635 l 1
 1424 1010 l 1
 1280 635 l 1
293 635 m 1
 293 1275 l 1
 48 1275 l 1
 48 1450 l 1
 719 1450 l 1
 719 1275 l 1
 473 1275 l 1
 473 635 l 1
 293 635 l 1
EndSplineSet
EndChar

StartChar: guillemotright
Encoding: 187 187 287
Width: 1174
Flags: W
HStem: 1122 20G<533 555.921>
DStem2: 103 1113 103 925 0.759476 -0.650535<122.301 540.651> 103 379 103 191 0.758708 0.651431<0 418.351> 533 1142 533 946 0.753491 -0.657458<128.862 571.56> 533 358 533 162 0.75276 0.658296<0 442.702>
LayerCount: 2
Fore
SplineSet
103 191 m 1
 103 379 l 1
 420 652 l 1
 103 925 l 1
 103 1113 l 1
 591 695 l 1
 591 610 l 1
 103 191 l 1
533 162 m 1
 533 358 l 1
 864 652 l 1
 533 946 l 1
 533 1142 l 1
 1043 697 l 1
 1043 608 l 1
 533 162 l 1
EndSplineSet
EndChar

StartChar: germandbls
Encoding: 223 223 288
Width: 1238
Flags: W
HStem: -24 146<698.607 936.777> 0 21G<152 333> 1332 146<421.218 710.289>
VStem: 152 181<0 1225.82> 609 181<706.528 902.874> 765 181<1040.14 1278.39> 995 180<182.814 391.513>
LayerCount: 2
Fore
SplineSet
573 1332 m 0xb6
 378 1332 333 1200 333 983 c 2
 333 0 l 1
 152 0 l 1
 152 989 l 2
 152 1316 293 1478 577 1478 c 0
 776 1478 946 1369 946 1196 c 0x76
 946 1048 790 885 790 790 c 0
 790 642 1175 581 1175 311 c 0
 1175 96 1005 -24 816 -24 c 0
 650 -24 532 57 455 215 c 1
 609 286 l 1
 662 176 731 122 812 122 c 0
 928 122 995 207 995 296 c 0
 995 467 609 544 609 763 c 0xba
 609 887 765 1057 765 1175 c 0
 765 1268 683 1332 573 1332 c 0xb6
EndSplineSet
EndChar

StartChar: circumflex
Encoding: 710 710 289
Width: 674
Flags: W
HStem: 1182 280
VStem: 24 626
LayerCount: 2
Fore
SplineSet
343 1354 m 1
 229 1182 l 1
 24 1182 l 1
 240 1462 l 1
 430 1462 l 1
 650 1182 l 1
 451 1182 l 1
 343 1354 l 1
EndSplineSet
EndChar

StartChar: caron
Encoding: 711 711 290
Width: 674
Flags: W
HStem: 1182 280
VStem: 41 625
LayerCount: 2
Fore
SplineSet
355 1295 m 1
 463 1462 l 1
 666 1462 l 1
 445 1182 l 1
 256 1182 l 1
 41 1462 l 1
 246 1462 l 1
 355 1295 l 1
EndSplineSet
EndChar

StartChar: ring
Encoding: 730 730 291
Width: 674
Flags: W
HStem: 1145 71<256.908 421.092> 1431 71<256.908 421.092>
VStem: 160 71<1241.91 1405.71> 447 71<1241.91 1405.71>
LayerCount: 2
Fore
SplineSet
518 1324 m 0
 518 1218 445 1145 339 1145 c 0
 233 1145 160 1218 160 1324 c 0
 160 1430 233 1502 339 1502 c 0
 445 1502 518 1430 518 1324 c 0
339 1216 m 0
 404 1216 447 1259 447 1324 c 0
 447 1389 404 1431 339 1431 c 0
 274 1431 231 1389 231 1324 c 0
 231 1259 274 1216 339 1216 c 0
EndSplineSet
EndChar

StartChar: tilde
Encoding: 732 732 292
Width: 674
Flags: W
HStem: 1216 136<343.215 532.007> 1301 136<144.48 330.286>
VStem: 6 130<1210 1292.34> 542 128<1361.65 1437>
LayerCount: 2
Fore
SplineSet
477 1216 m 0xb0
 371 1216 270 1301 215 1301 c 0
 164 1301 136 1273 136 1210 c 1
 6 1210 l 1
 6 1360 75 1437 209 1437 c 0x70
 298 1437 400 1352 469 1352 c 0xb0
 510 1352 536 1382 542 1437 c 1
 670 1437 l 1x70
 670 1289 603 1216 477 1216 c 0xb0
EndSplineSet
EndChar

StartChar: Ccedilla
Encoding: 199 199 299
Width: 1479
Flags: W
HStem: -423 150<411.151 690.357> -399 160<404 552.658> -4 174<584.367 726 884 999.011> 1297 180<579.436 1010.73>
VStem: 102 197<488.52 999.616> 729 159<-236.499 -5.36298> 1185 188<1050 1140.26> 1210 188<355.705 480>
LayerCount: 2
Back
SplineSet
729 -107 m 0xa0
 729 -56 728 -69 725 20 c 1
 882 20 l 1
 885 -12 888 -61 888 -89 c 0
 888 -355 706 -423 581 -423 c 0xa0
 546 -423 472 -419 404 -399 c 1
 404 -239 l 1
 413 -239 l 1x60
 458 -259 505 -273 555 -273 c 0
 676 -273 729 -227 729 -107 c 0xa0
788 170 m 0xf0
 1024 170 1193 300 1210 480 c 1
 1398 480 l 1xe8
 1306 117 1054 -10 791 -10 c 0
 384 -10 102 256 102 745 c 0
 102 1191 389 1477 794 1477 c 0
 1141 1477 1311 1266 1373 1050 c 1
 1185 1050 l 1
 1123 1252 935 1297 790 1297 c 0
 472 1297 299 1065 299 746 c 0
 299 522 397 170 788 170 c 0xf0
EndSplineSet
Fore
SplineSet
788 170 m 0xbe
 1024 170 1193 300 1210 480 c 1
 1398 480 l 1
 1317 160 1112 24 884 -4 c 1
 886 -33 888 -67 888 -89 c 0
 888 -355 706 -423 581 -423 c 0xbd
 546 -423 472 -419 404 -399 c 1
 404 -239 l 1
 413 -239 l 1x7d
 458 -259 505 -273 555 -273 c 0
 676 -273 729 -227 729 -107 c 0
 729 -62 728 -67 726 -8 c 1
 354 19 102 282 102 745 c 0
 102 1191 389 1477 794 1477 c 0
 1141 1477 1311 1266 1373 1050 c 1
 1185 1050 l 1
 1123 1252 935 1297 790 1297 c 0
 472 1297 299 1065 299 746 c 0
 299 522 397 170 788 170 c 0xbe
EndSplineSet
EndChar

StartChar: ccedilla
Encoding: 231 231 325
Width: 1024
Flags: W
HStem: -423 150<170.151 449.357> -399 160<163 311.658> -4 164<404.434 485 643 730.339> 916 170<403.083 721.156>
VStem: 80 185<312.592 761.451> 488 159<-236.97 -6.63301> 828 177<253.025 403 696 809.411>
LayerCount: 2
Back
SplineSet
488 -107 m 0xa0
 488 -56 487 -69 484 20 c 1
 641 20 l 1
 644 -12 647 -61 647 -89 c 0
 647 -355 465 -423 340 -423 c 0xa0
 305 -423 231 -419 163 -399 c 1
 163 -239 l 1
 172 -239 l 1x60
 217 -259 264 -273 314 -273 c 0
 435 -273 488 -227 488 -107 c 0xa0
561 160 m 0
 683 161 823 203 828 403 c 1
 1005 403 l 1
 997 137 829 -10 563 -10 c 0
 310 -10 80 174 80 527 c 0
 80 867 252 1086 564 1086 c 0
 947 1086 1003 807 1003 696 c 1
 828 696 l 1
 816 816 714 916 571 916 c 0
 366 916 265 786 265 532 c 0
 265 225 442 160 561 160 c 0
EndSplineSet
Fore
SplineSet
561 160 m 0xbe
 683 161 823 203 828 403 c 1
 1005 403 l 1
 998 165 862 22 643 -5 c 1
 645 -34 647 -68 647 -89 c 0
 647 -355 465 -423 340 -423 c 0xbe
 305 -423 231 -419 163 -399 c 1
 163 -239 l 1
 172 -239 l 1x7e
 217 -259 264 -273 314 -273 c 0
 435 -273 488 -227 488 -107 c 0
 488 -61 487 -67 485 -4 c 1
 265 30 80 211 80 527 c 0
 80 867 252 1086 564 1086 c 0
 947 1086 1003 807 1003 696 c 1
 828 696 l 1
 816 816 714 916 571 916 c 0
 366 916 265 786 265 532 c 0
 265 225 442 160 561 160 c 0xbe
EndSplineSet
EndChar

StartChar: thorn
Encoding: 254 254 346
Width: 1139
Flags: W
HStem: -10 158<445.346 727.957> 928 158<436.813 722.991> 1446 20G<122 289>
VStem: 122 180<-390 133 320.9 773.397 957 1466> 871 172<310.816 754.805>
LayerCount: 2
Fore
SplineSet
1043 529 m 0
 1043 218 875 -10 593 -10 c 0
 475 -10 378 38 302 133 c 1
 302 -390 l 1
 122 -390 l 1
 122 1466 l 1
 289 1466 l 1
 289 957 l 1
 318 994 407 1086 584 1086 c 0
 881 1086 1043 852 1043 529 c 0
569 928 m 0
 461 928 300 849 300 534 c 0
 300 327 411 148 577 148 c 0
 695 148 871 221 871 541 c 0
 871 737 784 928 569 928 c 0
EndSplineSet
EndChar

StartChar: oslash
Encoding: 248 248 347
Width: 1139
Flags: W
HStem: -11 158<395.273 729.827> 928 158<400.854 728.171>
VStem: 68 185<303.549 761.215> 878 185<305.921 762.981>
DStem2: 88 -6 182 -77 0.608417 0.793618<0.844318 179.11 362.228 1067.9 1264.4 1417.51>
LayerCount: 2
Back
SplineSet
88 -6 m 25
 953 1117 l 25
 1046 1050 l 25
 182 -77 l 25
 88 -6 l 25
566 -11 m 0
 246 -11 68 190 68 531 c 0
 68 867 244 1086 566 1086 c 0
 874 1086 1063 874 1063 546 c 0
 1063 116 820 -11 566 -11 c 0
566 928 m 0
 358 928 253 773 253 531 c 0
 253 201 441 147 566 147 c 0
 775 147 878 293 878 537 c 0
 878 858 691 928 566 928 c 0
EndSplineSet
Fore
SplineSet
566 928 m 0
 358 928 253 773 253 531 c 0
 253 418 275 338 309 281 c 1
 757 863 l 1
 697 913 625 928 566 928 c 0
286 59 m 1
 182 -77 l 1
 88 -6 l 1
 196 134 l 1
 112 227 68 361 68 531 c 0
 68 867 244 1086 566 1086 c 0
 683 1086 783 1055 862 999 c 1
 953 1117 l 1
 1046 1050 l 1
 946 920 l 1
 1021 827 1063 699 1063 546 c 0
 1063 116 820 -11 566 -11 c 0
 455 -11 361 13 286 59 c 1
390 194 m 1
 447 157 512 147 566 147 c 0
 775 147 878 293 878 537 c 0
 878 637 860 713 831 770 c 1
 390 194 l 1
EndSplineSet
EndChar

StartChar: Oslash
Encoding: 216 216 348
Width: 1593
Flags: W
HStem: -10 180<575.821 1020.8> 1298 180<571.559 1024.38>
VStem: 104 200<460.242 999.089> 1296 200<473.987 1003.2>
DStem2: 88 24 188 -59 0.666795 0.745241<4.82446 267.018 460.324 1541.83 1744.22 1988.62>
LayerCount: 2
Back
SplineSet
88 24 m 25
 1414 1506 l 25
 1509 1425 l 25
 188 -59 l 25
 88 24 l 25
800 -10 m 0
 370 -10 104 306 104 714 c 0
 104 1188 364 1478 801 1478 c 0
 1230 1478 1496 1176 1496 731 c 0
 1496 277 1212 -10 800 -10 c 0
802 1298 m 0
 404 1298 304 1002 304 711 c 0
 304 383 482 170 799 170 c 0
 1122 170 1296 384 1296 732 c 0
 1296 1072 1127 1298 802 1298 c 0
EndSplineSet
Fore
SplineSet
802 1298 m 0
 404 1298 304 1002 304 711 c 0
 304 574 335 457 395 367 c 1
 1128 1187 l 1
 1047 1259 939 1298 802 1298 c 0
360 134 m 1
 188 -59 l 1
 88 24 l 1
 268 225 l 1
 162 353 104 523 104 714 c 0
 104 1188 364 1478 801 1478 c 0
 984 1478 1137 1423 1253 1326 c 1
 1414 1506 l 1
 1509 1425 l 1
 1340 1235 l 1
 1441 1107 1496 934 1496 731 c 0
 1496 277 1212 -10 800 -10 c 0
 623 -10 474 43 360 134 c 1
482 271 m 1
 563 206 669 170 799 170 c 0
 1122 170 1296 384 1296 732 c 0
 1296 873 1267 995 1210 1089 c 1
 482 271 l 1
EndSplineSet
EndChar

StartChar: Eth
Encoding: 208 208 349
Width: 1479
Flags: W
HStem: 0 173<350 908.237> 660 134<8 168 350 761> 1277 173<350 908.268>
VStem: 168 182<173 660 794 1277> 1183 197<464.784 1002.24>
LayerCount: 2
Back
SplineSet
8 660 m 25
 8 794 l 25
 761 794 l 25
 761 660 l 25
 8 660 l 25
1380 733 m 0
 1380 147 1054 0 697 0 c 2
 168 0 l 1
 168 1450 l 1
 673 1450 l 2
 1239 1450 1380 1142 1380 733 c 0
1183 736 m 0
 1183 1169 936 1277 670 1277 c 2
 350 1277 l 1
 350 173 l 1
 675 173 l 2
 980 173 1183 325 1183 736 c 0
EndSplineSet
Fore
SplineSet
1183 736 m 0
 1183 1169 936 1277 670 1277 c 2
 350 1277 l 1
 350 794 l 1
 761 794 l 1
 761 660 l 1
 350 660 l 1
 350 173 l 1
 675 173 l 2
 980 173 1183 325 1183 736 c 0
1380 733 m 0
 1380 147 1054 0 697 0 c 2
 168 0 l 1
 168 660 l 1
 8 660 l 1
 8 794 l 1
 168 794 l 1
 168 1450 l 1
 673 1450 l 2
 1239 1450 1380 1142 1380 733 c 0
EndSplineSet
EndChar

StartChar: Thorn
Encoding: 222 222 350
Width: 1366
Flags: W
HStem: 0 21G<158 338> 290 173<338 958.614> 987 173<338 970.26> 1430 20G<158 338>
VStem: 158 180<0 290 463 987 1160 1450> 1077 200<574.456 891.767>
LayerCount: 2
Fore
SplineSet
731 463 m 2
 925 463 1077 516 1077 730 c 0
 1077 885 1020 987 727 987 c 2
 338 987 l 1
 338 463 l 1
 731 463 l 2
158 1450 m 1
 338 1450 l 1
 338 1160 l 1
 711 1160 l 2
 1185 1160 1277 965 1277 736 c 0
 1277 445 1105 290 728 290 c 2
 338 290 l 1
 338 0 l 1
 158 0 l 1
 158 1450 l 1
EndSplineSet
EndChar

StartChar: multiply
Encoding: 215 215 351
Width: 1184
Flags: W
HStem: 1131 20G<260.656 300.065 884.61 924.667>
DStem2: 158 404 280 286 0.708054 0.706158<3.05592 442.876 615.41 1053.82> 280 1151 162 1029 0.707107 -0.707107<2.82843 439.113 611.647 1050.76>
LayerCount: 2
Fore
SplineSet
158 404 m 1
 473 719 l 1
 162 1029 l 1
 280 1151 l 1
 591 841 l 1
 905 1149 l 1
 1023 1029 l 1
 713 719 l 1
 1023 408 l 1
 905 286 l 1
 591 597 l 1
 280 286 l 1
 158 404 l 1
EndSplineSet
EndChar

StartChar: divide
Encoding: 247 247 352
Width: 1113
Flags: W
HStem: 317 203<455 656> 635 165<77 1035> 916 201<455 656>
VStem: 455 201<317 520 916 1117>
LayerCount: 2
Fore
SplineSet
455 916 m 1
 455 1117 l 1
 656 1117 l 1
 656 916 l 1
 455 916 l 1
1035 635 m 1
 77 635 l 1
 77 800 l 1
 1035 800 l 1
 1035 635 l 1
455 317 m 1
 455 520 l 1
 656 520 l 1
 656 317 l 1
 455 317 l 1
EndSplineSet
EndChar

StartChar: eth
Encoding: 240 240 353
Width: 1125
Flags: W
HStem: -24 146<405.904 707.794> 930 146<408.583 696.103> 1080 21G<308.569 359.5> 1434 20G<305 546.5 814.4 866.2>
VStem: 71 181<292.902 752.508> 869 181<310.711 740.973>
DStem2: 274 1182 317 1080 0.905867 0.423562<0 259.953 450.831 642.643>
LayerCount: 2
Fore
SplineSet
71 520 m 0
 71 725 161 1076 520 1076 c 0
 589 1076 660 1058 717 1019 c 1
 676 1098 644 1145 589 1208 c 1
 317 1080 l 1
 274 1182 l 1
 510 1291 l 1
 449 1350 380 1403 305 1454 c 1
 520 1454 l 1
 573 1415 614 1382 644 1354 c 1
 857 1454 l 1
 903 1354 l 1
 731 1269 l 1
 942 1027 1050 782 1050 522 c 0
 1050 199 858 -24 560 -24 c 0
 247 -24 71 187 71 520 c 0
556 122 m 0
 759 122 869 301 869 530 c 0
 869 747 753 930 554 930 c 0
 347 930 252 741 252 514 c 0
 252 197 436 122 556 122 c 0
EndSplineSet
EndChar

StartChar: uni00B9
Encoding: 185 185 354
Width: 1010
Flags: W
VStem: 532 145<566 1239 1415.17 1512>
LayerCount: 2
Fore
SplineSet
309 1278 m 1
 410 1323 507 1405 537 1512 c 1
 677 1512 l 1
 677 566 l 1
 532 566 l 1
 532 1239 l 1
 475 1180 397 1143 309 1125 c 1
 309 1278 l 1
EndSplineSet
EndChar

StartChar: ordmasculine
Encoding: 186 186 355
Width: 739
Flags: W
HStem: 735 124<250.592 487.236> 1354 124<253.347 487.236>
VStem: 43 140<929.442 1279.88> 556 140<930.513 1282.27>
LayerCount: 2
Fore
SplineSet
43 1102 m 0
 43 1321 163 1478 370 1478 c 0
 579 1478 696 1327 696 1104 c 0
 696 885 579 735 370 735 c 0
 169 735 43 885 43 1102 c 0
370 1354 m 0
 252 1354 183 1266 183 1104 c 0
 183 946 252 859 370 859 c 0
 490 859 556 947 556 1111 c 0
 556 1267 490 1354 370 1354 c 0
EndSplineSet
EndChar

StartChar: onequarter
Encoding: 188 188 356
Width: 1691
Flags: W
HStem: 106 123<1190 1419 1559 1665> 1163 126<112 209.786> 1458 20G<334.5 473 1329.75 1496>
VStem: 333 140<725 1275> 1419 140<-30 106 229 489>
DStem2: 250 -57 404 -57 0.580385 0.814342<89.3792 1884.96> 1035 246 1190 229 0.656099 0.754675<88.8658 435.328>
LayerCount: 2
Fore
SplineSet
250 -57 m 1
 1344 1478 l 1
 1496 1478 l 1
 404 -57 l 1
 250 -57 l 1
333 725 m 1
 333 1275 l 1
 270 1226 197 1189 112 1163 c 1
 112 1289 l 1
 211 1321 299 1383 370 1472 c 1
 473 1472 l 1
 473 725 l 1
 333 725 l 1
1419 -30 m 1
 1419 106 l 1
 1035 106 l 1
 1035 246 l 1
 1441 713 l 1
 1559 713 l 1
 1559 229 l 1
 1665 229 l 1
 1665 106 l 1
 1559 106 l 1
 1559 -30 l 1
 1419 -30 l 1
1419 229 m 1
 1419 489 l 1
 1190 229 l 1
 1419 229 l 1
EndSplineSet
EndChar

StartChar: onequarter
Encoding: 188 188 357
Width: 1691
Flags: W
HStem: 185 142<1191 1398 1543 1666> 1085 21G<105 149> 1452 20G<318 473 1329.75 1496>
VStem: 328 145<526 1199 1375.17 1472> 1398 145<-30 185 327 626>
DStem2: 250 -57 404 -57 0.580385 0.814342<89.3792 1884.96> 1004 315 1191 327 0.555976 0.831198<113.942 477.557>
LayerCount: 2
Back
SplineSet
250 -57 m 1
 1344 1478 l 1
 1496 1478 l 1
 404 -57 l 1
 250 -57 l 1
333 725 m 1
 333 1275 l 1
 270 1226 197 1189 112 1163 c 1
 112 1289 l 1
 211 1321 299 1383 370 1472 c 1
 473 1472 l 1
 473 725 l 1
 333 725 l 1
1419 -30 m 1
 1419 106 l 1
 1035 106 l 1
 1035 246 l 1
 1441 713 l 1
 1559 713 l 1
 1559 229 l 1
 1665 229 l 1
 1665 106 l 1
 1559 106 l 1
 1559 -30 l 1
 1419 -30 l 1
1419 229 m 1
 1419 489 l 1
 1190 229 l 1
 1419 229 l 1
EndSplineSet
Fore
SplineSet
105 1238 m 1
 206 1283 303 1365 333 1472 c 1
 473 1472 l 1
 473 526 l 1
 328 526 l 1
 328 1199 l 1
 271 1140 193 1103 105 1085 c 1
 105 1238 l 1
250 -57 m 1
 1344 1478 l 1
 1496 1478 l 1
 404 -57 l 1
 250 -57 l 1
1398 -30 m 1
 1398 185 l 1
 1004 185 l 1
 1004 315 l 1
 1406 916 l 1
 1543 916 l 1
 1543 327 l 1
 1666 327 l 1
 1666 185 l 1
 1543 185 l 1
 1543 -30 l 1
 1398 -30 l 1
1398 327 m 1
 1398 626 l 1
 1191 327 l 1
 1398 327 l 1
EndSplineSet
EndChar

StartChar: threequarters
Encoding: 190 190 358
Width: 1691
Flags: W
HStem: 106 123<1190 1419 1559 1665> 709 123<213.369 461.409> 1066 101<296 440.004> 1348 124<218.069 447.776>
VStem: 35 142<870.714 927.413> 51 142<1276.58 1321.48> 459 140<1191.76 1332.33> 493 140<865.521 1044.31> 1419 140<-30 106 229 489>
DStem2: 250 -57 404 -57 0.57968 0.814844<89.2708 1883.8> 1035 246 1190 229 0.652394 0.75788<88.2371 434.684>
LayerCount: 2
Fore
SplineSet
250 -57 m 1xf080
 1342 1478 l 1
 1496 1478 l 1
 404 -57 l 1
 250 -57 l 1xf080
633 940 m 0xf180
 633 786 483 709 339 709 c 0
 162 709 63 786 35 926 c 1
 177 940 l 1
 199 867 252 832 329 832 c 0
 433 832 493 873 493 962 c 0xf980
 493 1039 437 1066 329 1066 c 1
 274 1062 l 1
 296 1167 l 1
 398 1167 459 1198 459 1267 c 0
 459 1326 410 1348 333 1348 c 0
 262 1348 215 1324 193 1255 c 1
 51 1279 l 1
 94 1403 191 1472 333 1472 c 0
 516 1472 599 1403 599 1283 c 0xf680
 599 1204 552 1153 461 1125 c 1
 577 1097 633 1039 633 940 c 0xf180
1419 -30 m 1
 1419 106 l 1
 1035 106 l 1
 1035 246 l 1
 1437 713 l 1
 1559 713 l 1
 1559 229 l 1
 1665 229 l 1
 1665 106 l 1
 1559 106 l 1
 1559 -30 l 1
 1419 -30 l 1
1419 229 m 1
 1419 489 l 1
 1190 229 l 1
 1419 229 l 1
EndSplineSet
EndChar

StartChar: threequarters
Encoding: 190 190 359
Width: 1691
Flags: W
HStem: 185 142<1191 1398 1543 1666> 513 136<221.977 457.434> 962 118<253.413 421.86> 1337 135<228.208 442.328>
VStem: 32 145<693.984 818 1184 1284.59> 468 148<1124.29 1312.03> 509 152<700.051 924.128> 1398 145<-30 185 327 626>
DStem2: 250 -57 404 -57 0.580385 0.814342<89.3792 1884.96> 1004 315 1191 327 0.555976 0.831198<113.942 477.557>
LayerCount: 2
Back
SplineSet
250 -57 m 1xf080
 1342 1478 l 1
 1496 1478 l 1
 404 -57 l 1
 250 -57 l 1xf080
633 940 m 0xf180
 633 786 483 709 339 709 c 0
 162 709 63 786 35 926 c 1
 177 940 l 1
 199 867 252 832 329 832 c 0
 433 832 493 873 493 962 c 0xf980
 493 1039 437 1066 329 1066 c 1
 274 1062 l 1
 296 1167 l 1
 398 1167 459 1198 459 1267 c 0
 459 1326 410 1348 333 1348 c 0
 262 1348 215 1324 193 1255 c 1
 51 1279 l 1
 94 1403 191 1472 333 1472 c 0
 516 1472 599 1403 599 1283 c 0xf680
 599 1204 552 1153 461 1125 c 1
 577 1097 633 1039 633 940 c 0xf180
1419 -30 m 1
 1419 106 l 1
 1035 106 l 1
 1035 246 l 1
 1437 713 l 1
 1559 713 l 1
 1559 229 l 1
 1665 229 l 1
 1665 106 l 1
 1559 106 l 1
 1559 -30 l 1
 1419 -30 l 1
1419 229 m 1
 1419 489 l 1
 1190 229 l 1
 1419 229 l 1
EndSplineSet
Fore
SplineSet
336 1337 m 0xfd
 241 1337 200 1283 186 1184 c 1
 43 1184 l 1
 43 1349 165 1472 333 1472 c 0
 483 1472 616 1371 616 1219 c 0xfd
 616 1141 572 1073 515 1033 c 1
 609 997 661 926 661 815 c 0
 661 639 519 513 338 513 c 0
 160 513 32 637 32 818 c 1
 177 818 l 1
 177 714 236 649 338 649 c 0
 436 649 509 715 509 812 c 0xfb
 509 907 450 962 353 962 c 0
 321 962 282 954 252 945 c 1
 252 1083 l 1
 266 1082 281 1080 295 1080 c 0
 393 1080 468 1139 468 1222 c 0
 468 1293 417 1337 336 1337 c 0xfd
250 -57 m 1
 1344 1478 l 1
 1496 1478 l 1
 404 -57 l 1
 250 -57 l 1
1398 -30 m 1
 1398 185 l 1
 1004 185 l 1
 1004 315 l 1
 1406 916 l 1
 1543 916 l 1
 1543 327 l 1
 1666 327 l 1
 1666 185 l 1
 1543 185 l 1
 1543 -30 l 1
 1398 -30 l 1
1398 327 m 1
 1398 626 l 1
 1191 327 l 1
 1398 327 l 1
EndSplineSet
EndChar

StartChar: onehalf
Encoding: 189 189 360
Width: 1691
Flags: W
HStem: -30 140<1227 1659> 798 124<1241.49 1469.08> 1085 21G<105 149> 1452 20G<318 473 1306.75 1473>
VStem: 328 145<526 1199 1375.17 1472> 1047 146<614 748.015> 1511 148<527.104 755.313>
DStem2: 227 -57 381 -57 0.580385 0.814342<89.3792 1884.96>
LayerCount: 2
Back
SplineSet
227 -57 m 1
 1316 1478 l 1
 1476 1478 l 1
 384 -57 l 1
 227 -57 l 1
333 725 m 1
 333 1275 l 1
 270 1226 197 1189 112 1163 c 1
 112 1289 l 1
 211 1321 299 1383 370 1472 c 1
 473 1472 l 1
 473 725 l 1
 333 725 l 1
1642 514 m 0
 1642 333 1448 239 1275 93 c 1
 1659 93 l 1
 1659 -30 l 1
 1039 -30 l 1
 1039 169 1502 353 1502 489 c 0
 1502 560 1453 595 1362 595 c 0
 1285 595 1236 560 1210 485 c 1
 1062 497 l 1
 1099 641 1198 719 1362 719 c 0
 1559 719 1642 648 1642 514 c 0
EndSplineSet
Fore
SplineSet
1356 798 m 0
 1248 798 1194 728 1193 614 c 1
 1047 614 l 1
 1047 801 1167 922 1358 922 c 0
 1526 922 1659 820 1659 653 c 0
 1659 463 1509 362 1384 255 c 0
 1326 205 1268 168 1227 110 c 1
 1659 110 l 1
 1659 -30 l 1
 1025 -30 l 1
 1025 106 1123 218 1263 335 c 0
 1400 450 1511 528 1511 656 c 0
 1511 738 1444 798 1356 798 c 0
105 1238 m 1
 206 1283 303 1365 333 1472 c 1
 473 1472 l 1
 473 526 l 1
 328 526 l 1
 328 1199 l 1
 271 1140 193 1103 105 1085 c 1
 105 1238 l 1
227 -57 m 1
 1321 1478 l 1
 1473 1478 l 1
 381 -57 l 1
 227 -57 l 1
EndSplineSet
EndChar
